{"glyphs":{"a":{"x_min":0,"x_max":425,"ha":425,"o":"m 268 553 q 274 554 288 552 q 302 551 316 546 q 330 541 340 530 q 350 520 348 502 q 347 498 345 464 q 343 431 340 382 q 338 334 336 279 q 334 224 333 178 q 332 131 333 100 q 334 68 338 68 q 349 67 360 83 q 372 99 383 123 q 394 147 404 175 q 414 203 422 227 q 429 251 434 267 q 438 283 439 283 q 440 283 444 282 q 449 282 454 282 q 459 281 463 280 q 467 278 467 275 q 467 273 462 252 q 456 231 446 200 q 437 170 422 134 q 408 99 390 70 q 372 40 350 20 q 328 1 304 2 q 291 2 282 8 q 273 13 266 22 q 259 31 255 42 q 251 53 248 64 q 234 40 217 27 q 200 14 184 8 q 167 2 154 2 q 141 1 135 2 q 121 3 98 12 q 75 20 53 46 q 31 73 16 124 q 0 175 1 262 q 2 337 14 388 q 27 440 45 473 q 63 506 85 524 q 107 543 128 551 q 148 559 164 560 q 179 562 186 562 q 201 562 212 556 q 224 549 234 540 q 243 530 250 519 q 256 508 260 498 q 262 523 264 538 q 266 552 268 553 z m 166 50 q 185 50 198 60 q 211 69 220 82 q 228 96 234 112 q 239 127 243 141 q 243 167 244 202 q 246 238 248 278 q 249 317 252 357 q 254 397 256 433 q 254 431 254 439 q 255 452 250 466 q 244 481 235 493 q 226 505 215 513 q 204 521 194 521 q 175 521 160 506 q 146 492 135 468 q 124 445 116 416 q 109 388 104 360 q 100 332 98 308 q 95 284 94 270 q 92 250 94 213 q 95 176 102 139 q 109 102 124 76 q 139 49 166 50 z"},"L":{"x_min":0,"x_max":417,"ha":417,"o":"m 18 -148 q 68 -115 120 -94 q 173 -73 228 -62 q 214 -54 202 -44 q 191 -34 187 -23 q 188 -26 188 0 q 189 25 190 71 q 192 117 194 181 q 197 245 202 318 q 208 392 216 472 q 225 552 238 631 q 181 612 142 605 q 102 598 96 598 q 87 598 76 615 q 64 632 56 653 q 48 674 46 692 q 43 709 51 710 q 55 711 74 712 q 92 713 120 717 q 149 721 186 728 q 222 735 261 747 q 277 822 300 888 q 322 954 351 1004 q 380 1054 416 1084 q 453 1113 498 1116 q 523 1117 540 1106 q 557 1094 567 1075 q 577 1056 581 1034 q 585 1012 584 993 q 582 928 558 876 q 535 824 498 784 q 460 743 414 713 q 367 683 320 662 q 307 557 301 446 q 295 335 293 236 q 291 138 290 61 q 290 -16 289 -53 q 361 -46 433 -52 q 505 -57 574 -72 q 642 -87 706 -108 q 769 -130 823 -154 q 877 -178 921 -203 q 965 -228 994 -249 q 998 -251 990 -258 q 981 -265 966 -273 q 950 -281 930 -290 q 910 -298 892 -304 q 874 -310 860 -312 q 846 -315 842 -311 q 839 -308 816 -294 q 793 -279 754 -259 q 715 -239 663 -216 q 611 -193 551 -173 q 491 -153 424 -138 q 358 -124 290 -122 q 223 -119 157 -131 q 91 -143 30 -175 q 12 -184 8 -182 q 3 -179 4 -172 q 6 -165 11 -158 q 16 -150 18 -148 z m 481 1072 q 454 1064 432 1038 q 410 1013 392 974 q 375 935 361 885 q 347 835 337 777 q 370 792 400 812 q 430 833 454 860 q 479 887 496 920 q 514 954 522 996 q 524 1010 522 1025 q 521 1040 516 1052 q 512 1064 503 1070 q 494 1076 481 1072 z"},"3":{"x_min":0,"x_max":813,"ha":813,"o":"m 584 521 l 493 438 l 517 314 l 410 377 l 300 314 l 326 435 l 234 521 l 358 534 l 410 648 l 460 535 z m 455 384 l 426 556 l 391 556 l 361 384 l 376 375 l 389 384 l 395 423 l 421 423 l 428 384 l 442 375 z m 419 448 l 399 448 l 408 516 z m 407 14 l 421 14 l 416 26 q 415 28 415 30 q 415 31 413 33 q 413 30 411 26 z m 235 -3 l 235 2 l 242 2 l 242 -3 z m 563 -3 l 563 39 l 568 39 l 568 1 l 589 1 l 589 -3 z m 525 -3 l 525 39 l 555 39 l 555 33 l 530 33 l 530 20 l 553 20 l 553 15 l 530 15 l 530 1 l 555 1 l 555 -3 z m 377 -3 l 377 14 l 361 39 l 368 39 l 376 26 q 378 20 380 19 q 381 20 382 22 q 383 24 385 26 l 393 39 l 399 39 l 382 14 l 382 -3 z m 251 -3 l 251 39 l 267 39 q 269 39 270 38 q 272 37 273 37 q 277 36 278 33 q 280 31 280 27 q 280 24 278 23 q 277 19 274 19 q 277 18 280 15 q 282 11 282 9 q 282 7 282 6 q 281 5 281 4 q 280 0 277 0 q 276 -2 275 -2 q 274 -2 273 -3 l 267 -3 z m 137 -3 l 125 39 l 131 39 l 137 11 q 138 8 138 6 q 138 4 139 2 q 140 7 140 10 l 148 39 l 155 39 l 161 17 q 162 12 163 9 q 164 6 164 2 q 165 4 165 6 q 165 8 166 11 l 173 39 l 178 39 l 166 -3 l 161 -3 l 153 28 q 152 31 152 33 q 151 31 151 28 l 142 -3 z m 82 -3 l 70 39 l 77 39 l 82 11 q 82 6 85 2 q 86 7 86 10 l 94 39 l 100 39 l 107 17 q 108 12 108 9 q 109 6 109 2 q 111 4 111 6 q 111 8 112 11 l 118 39 l 124 39 l 112 -3 l 107 -3 l 99 28 q 98 31 98 33 q 96 31 96 28 l 87 -3 z m 256 20 l 265 20 q 269 20 270 22 q 273 22 273 23 q 274 24 274 27 q 274 30 273 31 l 272 31 q 271 31 271 32 q 271 32 270 32 q 269 33 264 33 l 256 33 z m 190 -3 l 179 39 l 185 39 l 191 11 q 192 8 192 6 q 192 4 194 2 q 194 6 194 8 q 195 9 195 10 l 203 39 l 209 39 l 216 17 q 217 12 218 9 q 218 6 218 2 q 220 4 220 6 q 220 8 221 11 l 228 39 l 233 39 l 221 -3 l 216 -3 l 208 28 q 207 31 207 33 q 205 31 205 28 l 196 -3 z m 443 19 l 455 19 q 457 19 458 20 q 460 20 462 20 q 464 20 464 23 q 465 24 465 27 q 465 30 463 32 q 462 33 456 33 l 443 33 z m 256 1 l 267 1 q 269 1 270 2 l 273 2 q 274 4 276 5 l 276 9 q 276 11 274 13 q 274 15 272 15 l 265 15 l 256 15 z m 290 -3 l 290 39 l 295 39 l 295 -3 z m 657 17 q 657 8 660 5 q 664 1 671 1 q 678 1 681 5 q 685 8 685 18 q 685 23 684 26 q 682 31 679 32 q 676 33 671 33 q 665 33 662 30 q 657 26 657 17 z m 651 17 q 651 28 657 33 q 661 39 671 39 q 674 39 676 38 q 679 37 681 36 q 684 35 686 33 q 687 31 689 28 q 690 26 690 18 q 690 9 688 6 q 685 1 681 -2 q 677 -4 671 -4 q 668 -4 666 -4 q 663 -3 660 -2 q 658 0 656 2 q 655 4 654 6 q 653 9 652 12 q 651 14 651 17 z m 395 -3 l 411 39 l 417 39 l 434 -3 l 428 -3 l 423 9 l 406 9 l 400 -3 z m 306 -3 l 306 39 l 311 39 l 311 1 l 330 1 l 330 -3 z m 595 -3 l 595 2 l 602 2 l 602 -3 z m 499 13 l 499 18 l 516 18 l 516 2 q 512 -2 508 -3 q 506 -3 504 -4 q 501 -4 499 -4 q 493 -4 489 -2 q 486 0 484 2 q 482 3 481 6 q 480 9 479 12 q 478 14 478 17 q 478 21 479 23 q 480 25 481 28 q 483 34 488 36 q 490 37 493 38 q 496 39 499 39 q 504 39 507 37 q 511 36 512 33 q 515 30 516 27 l 511 26 q 511 27 508 30 q 508 32 504 33 l 499 33 l 493 33 q 490 32 488 30 q 488 29 485 26 q 485 24 484 22 q 484 20 484 18 q 484 11 486 9 q 490 3 491 2 q 494 1 499 1 q 503 1 506 2 q 508 4 509 4 q 510 4 511 5 l 511 13 z m 438 -3 l 438 39 l 456 39 q 459 39 461 38 q 463 37 465 37 q 468 36 469 33 q 471 31 471 27 q 471 22 468 19 q 467 18 464 18 q 462 17 459 15 q 461 15 462 14 q 462 14 463 14 q 464 12 464 10 q 465 9 467 7 l 475 -3 l 468 -3 l 462 5 q 460 7 460 8 q 459 10 458 11 q 458 13 457 13 q 456 13 455 14 l 454 14 q 453 14 453 14 q 453 15 452 15 l 450 15 l 443 15 l 443 -3 z m 337 -3 l 337 39 l 343 39 l 343 1 l 363 1 l 363 -3 z m 641 11 l 646 10 q 644 2 640 0 q 636 -4 629 -4 q 623 -4 619 -2 q 616 0 615 2 q 614 4 612 6 q 610 14 610 18 q 610 22 612 30 q 617 35 619 36 q 622 37 624 38 q 626 39 629 39 q 632 39 635 38 q 638 37 640 36 q 642 34 644 32 q 645 30 646 27 l 640 26 q 640 30 636 32 q 634 33 629 33 q 623 33 621 32 q 619 31 618 30 q 618 28 616 26 q 616 24 616 22 q 615 20 615 18 q 615 12 618 9 q 618 7 619 6 q 620 4 621 2 q 624 1 629 1 q 634 1 637 4 q 640 7 641 11 z m 698 -3 l 698 39 l 706 39 l 716 9 q 716 7 717 6 q 718 4 718 2 q 718 3 720 9 l 729 39 l 737 39 l 737 -3 l 732 -3 l 732 31 l 720 -3 l 715 -3 l 703 32 l 703 -3 z m 407 14 l 421 14 l 416 26 q 415 28 415 30 q 415 31 413 33 q 413 30 411 26 z m 235 -3 l 235 2 l 242 2 l 242 -3 z m 563 -3 l 563 39 l 568 39 l 568 1 l 589 1 l 589 -3 z m 525 -3 l 525 39 l 555 39 l 555 33 l 530 33 l 530 20 l 553 20 l 553 15 l 530 15 l 530 1 l 555 1 l 555 -3 z m 377 -3 l 377 14 l 361 39 l 368 39 l 376 26 q 378 20 380 19 q 381 20 382 22 q 383 24 385 26 l 393 39 l 399 39 l 382 14 l 382 -3 z m 251 -3 l 251 39 l 267 39 q 269 39 270 38 q 272 37 273 37 q 277 36 278 33 q 280 31 280 27 q 280 24 278 23 q 277 19 274 19 q 277 18 280 15 q 282 11 282 9 q 282 7 282 6 q 281 5 281 4 q 280 0 277 0 q 276 -2 275 -2 q 274 -2 273 -3 l 267 -3 z m 137 -3 l 125 39 l 131 39 l 137 11 q 138 8 138 6 q 138 4 139 2 q 140 7 140 10 l 148 39 l 155 39 l 161 17 q 162 12 163 9 q 164 6 164 2 q 165 4 165 6 q 165 8 166 11 l 173 39 l 178 39 l 166 -3 l 161 -3 l 153 28 q 152 31 152 33 q 151 31 151 28 l 142 -3 z m 82 -3 l 70 39 l 77 39 l 82 11 q 82 6 85 2 q 86 7 86 10 l 94 39 l 100 39 l 107 17 q 108 12 108 9 q 109 6 109 2 q 111 4 111 6 q 111 8 112 11 l 118 39 l 124 39 l 112 -3 l 107 -3 l 99 28 q 98 31 98 33 q 96 31 96 28 l 87 -3 z m 256 20 l 265 20 q 269 20 270 22 q 273 22 273 23 q 274 24 274 27 q 274 30 273 31 l 272 31 q 271 31 271 32 q 271 32 270 32 q 269 33 264 33 l 256 33 z m 190 -3 l 179 39 l 185 39 l 191 11 q 192 8 192 6 q 192 4 194 2 q 194 6 194 8 q 195 9 195 10 l 203 39 l 209 39 l 216 17 q 217 12 218 9 q 218 6 218 2 q 220 4 220 6 q 220 8 221 11 l 228 39 l 233 39 l 221 -3 l 216 -3 l 208 28 q 207 31 207 33 q 205 31 205 28 l 196 -3 z m 443 19 l 455 19 q 457 19 458 20 q 460 20 462 20 q 464 20 464 23 q 465 24 465 27 q 465 30 463 32 q 462 33 456 33 l 443 33 z m 256 1 l 267 1 q 269 1 270 2 l 273 2 q 274 4 276 5 l 276 9 q 276 11 274 13 q 274 15 272 15 l 265 15 l 256 15 z m 290 -3 l 290 39 l 295 39 l 295 -3 z m 657 17 q 657 8 660 5 q 664 1 671 1 q 678 1 681 5 q 685 8 685 18 q 685 23 684 26 q 682 31 679 32 q 676 33 671 33 q 665 33 662 30 q 657 26 657 17 z m 651 17 q 651 28 657 33 q 661 39 671 39 q 674 39 676 38 q 679 37 681 36 q 684 35 686 33 q 687 31 689 28 q 690 26 690 18 q 690 9 688 6 q 685 1 681 -2 q 677 -4 671 -4 q 668 -4 666 -4 q 663 -3 660 -2 q 658 0 656 2 q 655 4 654 6 q 653 9 652 12 q 651 14 651 17 z m 395 -3 l 411 39 l 417 39 l 434 -3 l 428 -3 l 423 9 l 406 9 l 400 -3 z m 306 -3 l 306 39 l 311 39 l 311 1 l 330 1 l 330 -3 z m 595 -3 l 595 2 l 602 2 l 602 -3 z m 499 13 l 499 18 l 516 18 l 516 2 q 512 -2 508 -3 q 506 -3 504 -4 q 501 -4 499 -4 q 493 -4 489 -2 q 486 0 484 2 q 482 3 481 6 q 480 9 479 12 q 478 14 478 17 q 478 21 479 23 q 480 25 481 28 q 483 34 488 36 q 490 37 493 38 q 496 39 499 39 q 504 39 507 37 q 511 36 512 33 q 515 30 516 27 l 511 26 q 511 27 508 30 q 508 32 504 33 l 499 33 l 493 33 q 490 32 488 30 q 488 29 485 26 q 485 24 484 22 q 484 20 484 18 q 484 11 486 9 q 490 3 491 2 q 494 1 499 1 q 503 1 506 2 q 508 4 509 4 q 510 4 511 5 l 511 13 z m 438 -3 l 438 39 l 456 39 q 459 39 461 38 q 463 37 465 37 q 468 36 469 33 q 471 31 471 27 q 471 22 468 19 q 467 18 464 18 q 462 17 459 15 q 461 15 462 14 q 462 14 463 14 q 464 12 464 10 q 465 9 467 7 l 475 -3 l 468 -3 l 462 5 q 460 7 460 8 q 459 10 458 11 q 458 13 457 13 q 456 13 455 14 l 454 14 q 453 14 453 14 q 453 15 452 15 l 450 15 l 443 15 l 443 -3 z m 337 -3 l 337 39 l 343 39 l 343 1 l 363 1 l 363 -3 z m 641 11 l 646 10 q 644 2 640 0 q 636 -4 629 -4 q 623 -4 619 -2 q 616 0 615 2 q 614 4 612 6 q 610 14 610 18 q 610 22 612 30 q 617 35 619 36 q 622 37 624 38 q 626 39 629 39 q 632 39 635 38 q 638 37 640 36 q 642 34 644 32 q 645 30 646 27 l 640 26 q 640 30 636 32 q 634 33 629 33 q 623 33 621 32 q 619 31 618 30 q 618 28 616 26 q 616 24 616 22 q 615 20 615 18 q 615 12 618 9 q 618 7 619 6 q 620 4 621 2 q 624 1 629 1 q 634 1 637 4 q 640 7 641 11 z m 698 -3 l 698 39 l 706 39 l 716 9 q 716 7 717 6 q 718 4 718 2 q 718 3 720 9 l 729 39 l 737 39 l 737 -3 l 732 -3 l 732 31 l 720 -3 l 715 -3 l 703 32 l 703 -3 z m 407 14 l 421 14 l 416 26 q 415 28 415 30 q 415 31 413 33 q 413 30 411 26 z m 235 -3 l 235 2 l 242 2 l 242 -3 z m 563 -3 l 563 39 l 568 39 l 568 1 l 589 1 l 589 -3 z m 525 -3 l 525 39 l 555 39 l 555 33 l 530 33 l 530 20 l 553 20 l 553 15 l 530 15 l 530 1 l 555 1 l 555 -3 z m 377 -3 l 377 14 l 361 39 l 368 39 l 376 26 q 378 20 380 19 q 381 20 382 22 q 383 24 385 26 l 393 39 l 399 39 l 382 14 l 382 -3 z m 251 -3 l 251 39 l 267 39 q 269 39 270 38 q 272 37 273 37 q 277 36 278 33 q 280 31 280 27 q 280 24 278 23 q 277 19 274 19 q 277 18 280 15 q 282 11 282 9 q 282 7 282 6 q 281 5 281 4 q 280 0 277 0 q 276 -2 275 -2 q 274 -2 273 -3 l 267 -3 z m 137 -3 l 125 39 l 131 39 l 137 11 q 138 8 138 6 q 138 4 139 2 q 140 7 140 10 l 148 39 l 155 39 l 161 17 q 162 12 163 9 q 164 6 164 2 q 165 4 165 6 q 165 8 166 11 l 173 39 l 178 39 l 166 -3 l 161 -3 l 153 28 q 152 31 152 33 q 151 31 151 28 l 142 -3 z m 82 -3 l 70 39 l 77 39 l 82 11 q 82 6 85 2 q 86 7 86 10 l 94 39 l 100 39 l 107 17 q 108 12 108 9 q 109 6 109 2 q 111 4 111 6 q 111 8 112 11 l 118 39 l 124 39 l 112 -3 l 107 -3 l 99 28 q 98 31 98 33 q 96 31 96 28 l 87 -3 z m 256 20 l 265 20 q 269 20 270 22 q 273 22 273 23 q 274 24 274 27 q 274 30 273 31 l 272 31 q 271 31 271 32 q 271 32 270 32 q 269 33 264 33 l 256 33 z m 190 -3 l 179 39 l 185 39 l 191 11 q 192 8 192 6 q 192 4 194 2 q 194 6 194 8 q 195 9 195 10 l 203 39 l 209 39 l 216 17 q 217 12 218 9 q 218 6 218 2 q 220 4 220 6 q 220 8 221 11 l 228 39 l 233 39 l 221 -3 l 216 -3 l 208 28 q 207 31 207 33 q 205 31 205 28 l 196 -3 z m 443 19 l 455 19 q 457 19 458 20 q 460 20 462 20 q 464 20 464 23 q 465 24 465 27 q 465 30 463 32 q 462 33 456 33 l 443 33 z m 256 1 l 267 1 q 269 1 270 2 l 273 2 q 274 4 276 5 l 276 9 q 276 11 274 13 q 274 15 272 15 l 265 15 l 256 15 z m 290 -3 l 290 39 l 295 39 l 295 -3 z m 657 17 q 657 8 660 5 q 664 1 671 1 q 678 1 681 5 q 685 8 685 18 q 685 23 684 26 q 682 31 679 32 q 676 33 671 33 q 665 33 662 30 q 657 26 657 17 z m 651 17 q 651 28 657 33 q 661 39 671 39 q 674 39 676 38 q 679 37 681 36 q 684 35 686 33 q 687 31 689 28 q 690 26 690 18 q 690 9 688 6 q 685 1 681 -2 q 677 -4 671 -4 q 668 -4 666 -4 q 663 -3 660 -2 q 658 0 656 2 q 655 4 654 6 q 653 9 652 12 q 651 14 651 17 z m 395 -3 l 411 39 l 417 39 l 434 -3 l 428 -3 l 423 9 l 406 9 l 400 -3 z m 306 -3 l 306 39 l 311 39 l 311 1 l 330 1 l 330 -3 z m 595 -3 l 595 2 l 602 2 l 602 -3 z m 499 13 l 499 18 l 516 18 l 516 2 q 512 -2 508 -3 q 506 -3 504 -4 q 501 -4 499 -4 q 493 -4 489 -2 q 486 0 484 2 q 482 3 481 6 q 480 9 479 12 q 478 14 478 17 q 478 21 479 23 q 480 25 481 28 q 483 34 488 36 q 490 37 493 38 q 496 39 499 39 q 504 39 507 37 q 511 36 512 33 q 515 30 516 27 l 511 26 q 511 27 508 30 q 508 32 504 33 l 499 33 l 493 33 q 490 32 488 30 q 488 29 485 26 q 485 24 484 22 q 484 20 484 18 q 484 11 486 9 q 490 3 491 2 q 494 1 499 1 q 503 1 506 2 q 508 4 509 4 q 510 4 511 5 l 511 13 z m 438 -3 l 438 39 l 456 39 q 459 39 461 38 q 463 37 465 37 q 468 36 469 33 q 471 31 471 27 q 471 22 468 19 q 467 18 464 18 q 462 17 459 15 q 461 15 462 14 q 462 14 463 14 q 464 12 464 10 q 465 9 467 7 l 475 -3 l 468 -3 l 462 5 q 460 7 460 8 q 459 10 458 11 q 458 13 457 13 q 456 13 455 14 l 454 14 q 453 14 453 14 q 453 15 452 15 l 450 15 l 443 15 l 443 -3 z m 337 -3 l 337 39 l 343 39 l 343 1 l 363 1 l 363 -3 z m 641 11 l 646 10 q 644 2 640 0 q 636 -4 629 -4 q 623 -4 619 -2 q 616 0 615 2 q 614 4 612 6 q 610 14 610 18 q 610 22 612 30 q 617 35 619 36 q 622 37 624 38 q 626 39 629 39 q 632 39 635 38 q 638 37 640 36 q 642 34 644 32 q 645 30 646 27 l 640 26 q 640 30 636 32 q 634 33 629 33 q 623 33 621 32 q 619 31 618 30 q 618 28 616 26 q 616 24 616 22 q 615 20 615 18 q 615 12 618 9 q 618 7 619 6 q 620 4 621 2 q 624 1 629 1 q 634 1 637 4 q 640 7 641 11 z m 698 -3 l 698 39 l 706 39 l 716 9 q 716 7 717 6 q 718 4 718 2 q 718 3 720 9 l 729 39 l 737 39 l 737 -3 l 732 -3 l 732 31 l 720 -3 l 715 -3 l 703 32 l 703 -3 z m 117 74 l 125 71 q 123 62 116 56 q 108 50 99 50 q 90 50 82 54 q 74 60 73 66 q 69 73 69 83 q 69 94 73 101 q 76 108 83 111 q 90 115 99 115 q 110 115 114 110 q 121 108 124 97 l 116 96 q 112 104 109 105 q 105 109 99 109 q 91 109 87 105 q 81 101 79 96 q 78 92 78 83 q 78 74 81 70 q 83 63 87 61 q 92 57 98 57 q 106 57 111 62 q 113 64 114 67 q 116 70 117 74 z m 133 82 q 133 90 135 96 q 137 102 142 106 q 146 111 152 113 q 157 115 163 115 q 172 115 179 111 q 185 108 190 100 q 194 90 194 83 q 194 78 193 74 q 192 70 190 66 q 185 58 178 54 q 170 50 163 50 q 158 50 154 51 q 151 52 147 54 q 140 58 137 66 q 133 73 133 82 z m 142 82 q 142 70 147 63 q 154 57 163 57 q 173 57 178 65 q 185 72 185 83 q 185 87 184 90 q 183 93 182 96 q 180 103 174 105 q 171 109 163 109 q 155 109 148 102 q 142 97 142 82 z m 204 52 l 204 114 l 216 114 l 231 70 q 234 64 234 61 q 236 63 238 71 l 254 114 l 264 114 l 264 52 l 256 52 l 256 104 l 238 52 l 230 52 l 212 105 l 212 52 z m 278 52 l 278 114 l 302 114 l 311 114 q 316 114 319 111 q 320 110 324 105 q 325 103 326 101 q 326 99 326 96 q 326 90 321 83 q 316 78 302 78 l 286 78 l 286 52 z m 286 84 l 303 84 q 312 84 313 88 q 317 89 317 96 q 317 101 316 102 q 312 106 309 106 q 308 108 302 108 l 286 108 z m 337 52 l 337 114 l 345 114 l 345 58 l 376 58 l 376 52 z m 386 52 l 386 114 l 432 114 l 432 108 l 394 108 l 394 88 l 429 88 l 429 80 l 394 80 l 394 58 l 433 58 l 433 52 z m 460 52 l 460 108 l 439 108 l 439 114 l 490 114 l 490 108 l 469 108 l 469 52 z m 499 52 l 499 114 l 545 114 l 545 108 l 507 108 l 507 88 l 542 88 l 542 80 l 507 80 l 507 58 l 546 58 l 546 52 z m 580 71 l 588 72 q 588 67 590 65 q 592 61 597 59 q 599 58 606 58 q 608 58 610 58 q 613 58 615 59 q 618 59 620 63 q 621 65 621 69 q 621 72 620 74 q 619 75 618 76 q 616 76 614 78 q 613 78 603 80 q 598 82 595 82 q 592 83 590 84 q 586 86 584 91 q 582 92 582 94 q 581 96 581 98 q 581 104 585 108 q 586 110 588 111 q 590 112 593 114 q 595 115 605 115 q 612 115 616 113 q 619 111 621 110 q 623 109 624 106 q 628 103 628 97 l 620 96 q 618 104 615 105 q 612 108 605 108 q 595 108 593 105 q 590 102 590 98 q 590 95 593 93 q 593 93 605 88 q 610 87 614 86 q 617 85 619 84 q 622 83 624 82 q 625 80 627 78 q 629 75 629 69 q 629 62 627 59 q 623 55 619 53 q 616 52 613 51 q 610 50 606 50 q 602 50 598 51 q 594 52 592 53 q 587 54 582 61 q 580 65 580 71 z m 641 52 l 641 114 l 686 114 l 686 108 l 650 108 l 650 88 l 685 88 l 685 80 l 650 80 l 650 58 l 688 58 l 688 52 z m 716 52 l 716 108 l 696 108 l 696 114 l 745 114 l 745 108 l 724 108 l 724 52 z m 75 127 l 75 189 l 100 189 l 109 189 q 111 189 117 187 q 118 186 120 184 q 121 182 122 180 q 124 178 124 173 q 124 164 118 158 q 115 153 100 153 l 85 153 l 85 127 z m 85 161 l 100 161 q 109 161 112 163 q 116 167 116 171 q 116 173 115 175 q 114 177 113 179 q 110 182 108 182 q 107 183 100 183 l 85 183 z m 134 127 l 134 189 l 179 189 l 179 183 l 143 183 l 143 163 l 177 163 l 177 156 l 143 156 l 143 135 l 181 135 l 181 127 z m 192 127 l 192 189 l 221 189 q 230 189 234 188 q 239 186 241 183 q 243 175 243 173 q 243 166 239 162 q 235 158 225 156 q 227 154 228 154 q 229 154 230 153 q 235 148 237 144 l 248 127 l 238 127 l 229 140 q 228 143 226 145 q 225 147 224 149 q 222 150 222 152 q 221 153 220 153 q 218 154 216 154 q 215 156 211 156 l 202 156 l 202 127 z m 202 162 l 218 162 q 226 162 228 163 q 231 166 233 167 q 234 169 234 173 q 234 177 231 180 q 228 183 221 183 l 202 183 z m 254 148 l 261 148 q 261 146 262 144 q 263 142 264 140 q 265 139 266 138 q 268 136 270 136 q 276 134 280 134 q 282 134 284 134 q 286 134 287 135 q 293 137 294 139 q 294 140 294 142 q 295 143 295 144 q 295 148 294 149 q 291 151 287 153 q 286 154 284 154 q 281 154 277 156 q 268 157 264 160 q 259 164 257 166 q 256 169 256 174 q 256 176 256 178 q 257 181 259 183 q 260 187 267 189 q 269 191 278 191 q 286 191 290 189 q 296 186 298 182 q 302 176 302 173 l 294 171 q 292 178 289 180 q 285 184 278 184 q 270 184 267 180 q 264 178 264 174 q 264 170 267 169 q 268 167 278 165 q 287 161 293 161 q 295 159 297 158 q 299 156 300 154 q 303 151 303 145 q 303 140 300 136 q 298 133 296 132 q 295 130 293 128 q 285 126 280 126 q 273 126 265 128 q 262 130 260 132 q 258 133 256 136 q 255 139 254 142 q 254 144 254 148 z m 312 158 q 312 172 320 182 q 329 191 342 191 q 346 191 350 190 q 353 189 358 187 q 362 185 364 182 q 366 179 368 175 q 372 168 372 158 q 372 149 368 141 q 364 134 358 130 q 350 126 342 126 q 333 126 326 131 q 317 136 316 143 q 312 148 312 158 z m 320 158 q 320 146 326 140 q 332 134 342 134 q 352 134 358 140 q 363 147 363 158 q 363 162 362 166 q 362 170 360 173 q 357 178 354 180 q 349 184 342 184 q 337 184 334 182 q 331 181 326 178 q 320 172 320 158 z m 382 127 l 382 189 l 391 189 l 424 141 l 424 189 l 432 189 l 432 127 l 424 127 l 390 176 l 390 127 z m 439 127 l 463 189 l 472 189 l 498 127 l 488 127 l 481 147 l 455 147 l 447 127 z m 456 153 l 478 153 l 472 170 q 470 174 469 178 q 468 181 467 183 q 467 180 466 177 q 465 174 464 171 z m 503 127 l 503 189 l 512 189 l 512 135 l 543 135 l 543 127 z m 615 189 l 623 189 l 623 154 q 623 143 621 139 q 619 133 614 130 q 609 126 599 126 q 589 126 585 130 q 582 131 580 134 q 578 136 576 139 q 575 141 575 154 l 575 189 l 582 189 l 582 154 q 582 144 584 141 q 586 137 589 136 q 591 135 593 134 q 595 134 598 134 q 606 134 611 137 q 615 141 615 154 z m 634 148 l 642 148 q 642 146 643 144 q 644 142 645 140 q 646 139 648 138 q 649 136 651 136 q 657 134 660 134 q 667 134 670 135 q 672 136 675 139 q 676 140 676 144 q 676 148 675 149 q 673 150 672 151 q 672 152 670 153 q 668 154 665 154 q 662 154 658 156 q 654 157 650 158 q 647 158 646 160 q 641 162 640 166 q 637 169 637 174 q 637 178 640 183 q 641 187 647 189 q 651 191 659 191 q 662 191 666 191 q 669 191 671 189 q 677 186 680 182 q 681 180 682 178 q 683 175 683 173 l 675 171 q 673 174 672 176 q 672 179 670 180 q 667 184 659 184 q 650 184 649 180 q 645 179 645 174 q 645 171 647 169 q 649 167 659 165 q 670 161 673 161 q 676 159 678 158 q 680 156 681 154 q 684 152 684 145 q 684 139 681 136 q 679 133 678 132 q 676 130 673 128 q 667 126 662 126 q 657 126 654 126 q 650 127 647 128 q 645 130 642 132 q 640 133 638 136 q 636 139 635 142 q 634 144 634 148 z m 696 127 l 696 189 l 741 189 l 741 183 l 705 183 l 705 163 l 738 163 l 738 156 l 705 156 l 705 135 l 742 135 l 742 127 z m 205 259 q 205 269 190 271 q 188 271 185 272 q 182 272 178 272 l 172 265 l 156 248 q 152 243 148 239 q 145 235 140 232 q 146 230 155 229 q 157 229 160 229 q 164 229 167 230 q 182 231 190 238 q 205 250 205 259 z m 216 289 q 216 293 211 293 q 209 293 194 288 l 183 278 q 181 276 179 272 l 196 275 q 200 275 207 280 q 216 286 216 289 z m 229 307 q 229 305 226 305 q 224 305 224 306 q 223 306 221 306 q 211 304 198 291 q 200 293 202 294 q 205 295 207 296 q 214 297 220 296 q 224 296 224 291 l 224 287 q 219 278 196 273 q 214 271 214 261 q 214 249 195 236 q 188 232 180 230 q 173 227 165 226 q 152 223 145 224 q 139 224 132 227 q 126 223 121 223 l 119 223 q 113 225 109 226 l 112 226 q 120 226 125 230 l 125 231 q 118 227 110 227 q 99 227 93 233 q 83 240 83 254 q 83 258 84 262 q 85 265 87 270 q 94 285 111 296 q 116 301 122 302 q 127 304 132 305 q 143 305 147 301 q 142 304 137 304 q 131 304 124 300 q 114 296 113 294 q 103 289 93 277 q 84 263 84 253 q 84 248 85 245 q 86 242 88 239 q 92 233 99 231 q 102 230 104 230 q 106 229 108 229 q 112 229 115 230 q 118 231 122 233 q 111 241 111 255 q 113 268 127 278 l 125 275 q 123 275 121 271 q 115 265 115 258 q 115 245 130 236 q 138 241 138 242 q 140 245 142 247 q 144 249 146 251 q 148 253 148 256 q 149 259 151 262 l 151 261 q 151 256 150 253 l 162 267 q 193 302 213 308 q 204 311 199 311 q 186 310 171 302 q 153 293 153 280 q 153 276 156 273 q 157 272 157 271 q 151 275 151 281 q 151 292 164 303 q 180 315 198 313 q 204 313 216 309 l 220 309 q 225 309 228 307 z m 231 242 q 230 238 223 231 q 216 227 211 227 q 206 227 206 233 q 206 238 212 246 l 211 246 q 210 245 207 245 q 207 245 206 246 q 209 246 216 253 l 217 253 l 220 257 q 223 260 223 262 l 226 262 q 229 262 229 261 q 229 257 223 250 l 216 243 q 210 234 210 231 q 210 228 214 228 q 219 228 226 238 q 227 239 228 240 q 229 240 231 242 z m 236 270 q 232 264 226 264 q 223 264 219 267 l 222 267 q 229 267 231 274 l 231 276 l 236 274 q 237 273 236 270 z m 271 289 q 271 284 240 247 l 239 247 q 230 236 230 230 q 230 227 233 227 q 239 227 246 237 q 247 238 248 238 q 249 239 250 241 q 250 236 242 230 q 237 226 231 226 q 225 227 225 232 q 224 237 245 263 l 257 278 l 263 284 q 266 288 268 294 q 271 292 271 289 z m 288 289 q 288 285 256 247 q 246 235 246 230 q 246 227 250 227 q 254 227 263 237 l 267 241 q 266 236 258 230 q 253 226 247 226 q 241 227 241 232 q 241 238 261 263 l 273 278 l 279 284 q 284 290 285 294 q 288 292 288 289 z m 269 222 q 253 219 244 210 q 237 201 237 199 q 237 195 241 195 q 242 194 248 196 q 250 198 252 200 q 255 203 258 206 z m 298 287 q 296 273 285 262 q 285 261 284 261 q 284 261 284 260 q 281 256 278 252 q 274 249 271 244 q 269 242 269 240 q 268 242 270 246 q 264 237 264 232 q 264 229 267 229 q 268 229 272 231 q 287 243 293 265 l 293 262 l 293 259 q 295 257 295 254 q 295 252 290 244 l 282 231 l 273 219 q 276 221 284 225 l 283 224 q 281 222 278 220 q 274 217 271 212 l 263 202 l 259 197 q 253 191 246 189 q 240 189 237 193 q 231 195 235 202 q 236 203 237 205 q 238 207 240 209 l 241 210 l 234 209 q 251 221 262 222 q 263 222 264 222 q 265 223 266 223 l 267 223 l 269 223 l 275 232 q 271 228 268 228 q 265 227 263 227 q 258 227 258 232 q 258 244 279 263 l 281 264 l 291 274 q 293 278 295 281 q 297 284 298 287 z m 412 302 q 406 304 402 304 q 392 304 384 302 q 375 299 366 294 q 362 292 360 290 q 357 287 354 285 q 366 284 386 272 q 408 294 424 300 z m 433 298 q 429 297 424 296 q 420 294 415 289 q 412 287 400 275 l 393 268 l 403 262 q 405 265 409 270 q 413 274 418 280 z m 442 315 q 442 314 441 313 q 441 306 438 299 l 439 298 l 438 298 q 433 286 425 278 l 409 259 q 411 258 412 258 q 413 258 415 257 q 415 255 414 255 q 412 255 411 256 q 410 256 408 257 q 396 244 395 233 q 393 229 393 227 q 393 223 397 223 q 405 223 414 236 l 418 242 q 428 256 431 267 l 431 270 q 431 269 432 268 l 432 267 q 430 253 422 241 l 409 215 q 409 219 412 228 q 400 219 394 219 q 385 219 387 231 q 387 237 391 244 q 395 252 401 261 l 391 266 l 382 257 q 379 253 374 247 q 368 241 360 231 q 344 215 332 215 l 329 215 q 326 215 320 218 q 320 218 322 218 q 331 216 340 225 q 332 221 321 221 q 310 221 303 226 l 304 226 q 294 233 294 247 q 294 257 298 262 q 304 278 321 289 q 327 294 332 296 q 338 297 344 298 q 354 298 358 294 l 357 294 q 355 296 348 296 q 338 296 323 287 q 312 279 304 270 q 295 256 295 245 q 295 229 310 224 q 316 222 319 222 q 340 223 365 250 l 384 270 q 369 279 350 279 l 349 279 q 347 275 347 270 q 348 270 352 264 q 345 268 345 274 q 345 277 346 279 q 336 277 333 275 q 315 268 317 254 q 317 245 323 238 l 325 236 q 313 248 313 257 q 313 270 325 279 q 335 286 350 286 q 364 302 385 305 q 390 306 401 306 q 406 306 416 304 l 428 301 l 434 301 l 435 300 q 439 307 441 317 l 442 317 z m 455 250 q 455 247 454 245 q 449 240 446 236 q 442 232 439 227 l 440 227 l 441 227 q 440 226 439 226 q 438 226 438 225 q 433 225 433 227 q 433 231 442 240 q 449 249 449 251 q 450 254 446 257 q 434 240 425 236 l 421 234 l 419 235 q 423 235 432 245 q 441 253 444 258 q 444 259 444 259 q 443 259 443 260 q 443 261 450 267 q 450 268 451 268 l 452 267 q 452 266 447 259 q 455 256 455 250 z m 484 253 q 484 259 480 257 q 476 257 474 255 q 471 253 465 245 q 459 237 459 232 q 458 230 461 230 q 467 232 471 237 q 475 245 475 248 q 475 250 474 250 q 478 250 478 245 l 477 243 q 479 245 480 248 q 482 250 484 252 z m 503 262 q 499 262 494 257 q 490 252 486 246 q 482 240 477 232 q 472 222 468 216 q 464 211 463 209 q 450 193 443 193 q 437 192 434 197 q 434 202 434 202 q 434 207 438 211 q 436 210 433 210 q 443 220 455 223 q 456 223 456 224 q 457 224 459 224 l 460 223 q 441 217 437 205 q 436 203 436 200 q 436 199 437 198 q 437 197 438 197 q 446 196 457 212 l 464 222 l 468 228 q 465 227 463 227 q 455 227 455 235 q 455 244 468 256 q 474 262 479 262 q 486 262 486 254 l 487 254 l 492 260 q 497 265 501 265 q 504 265 506 262 z m 521 255 q 521 249 510 243 q 509 242 508 242 l 507 242 q 504 242 501 247 q 503 245 506 245 q 513 249 515 256 l 515 258 l 515 259 l 515 260 q 511 260 502 251 l 502 250 q 499 246 498 244 q 498 241 498 239 q 497 240 497 245 q 495 241 494 238 q 492 234 492 231 q 492 230 493 229 q 493 227 497 227 q 507 231 514 237 q 516 239 519 241 q 517 238 515 236 q 513 233 508 230 q 500 225 494 227 q 494 226 493 227 q 487 227 487 233 q 487 243 498 253 q 504 262 514 262 q 516 262 517 261 q 521 258 521 255 z m 561 289 q 561 285 529 247 q 520 236 520 230 q 520 227 523 227 q 529 227 536 237 q 537 238 538 238 q 539 239 540 241 q 540 236 532 230 q 527 226 520 226 q 515 228 515 232 q 515 240 534 263 l 546 278 l 552 284 q 558 290 558 294 q 561 292 561 289 z m 615 258 q 598 264 597 277 q 592 274 587 272 q 582 269 579 266 q 560 248 560 233 q 560 227 563 226 l 565 226 l 567 226 q 582 226 595 236 q 599 240 604 245 q 610 250 615 258 z m 635 287 l 627 287 q 615 286 598 278 q 600 264 617 261 l 624 270 z m 653 305 q 640 305 630 303 q 619 301 611 296 q 616 301 624 304 q 631 307 640 309 q 620 310 605 297 q 602 295 598 287 q 605 289 612 290 q 618 291 626 290 q 628 290 631 290 q 634 290 639 289 q 641 292 644 296 q 648 300 653 305 z m 716 306 q 714 303 712 300 q 709 298 704 296 q 696 291 689 291 l 687 291 q 686 291 685 292 q 686 293 686 294 q 686 295 688 297 q 679 304 663 304 l 659 299 l 649 287 q 657 286 664 285 q 671 284 677 284 q 691 284 696 287 q 692 283 681 281 q 672 279 663 282 l 647 285 q 643 280 640 276 q 636 273 634 269 l 627 259 l 632 259 q 657 261 661 271 l 662 271 q 659 265 649 260 q 644 258 640 257 q 635 256 631 256 l 626 256 q 619 248 614 242 q 610 236 606 232 q 593 218 582 218 q 577 219 571 219 q 581 219 592 229 q 578 223 570 223 l 564 224 l 572 216 q 564 220 559 225 q 558 225 554 227 q 542 236 541 250 q 541 255 541 259 q 541 263 543 267 q 546 276 551 282 q 556 289 563 296 q 580 311 593 311 q 600 311 605 307 l 604 306 q 601 309 595 309 q 582 307 568 296 q 556 286 550 276 q 542 262 542 250 q 544 232 558 227 q 556 233 557 239 q 559 254 568 265 q 579 279 598 287 q 600 289 600 293 l 609 302 q 622 313 643 313 q 648 313 652 313 q 655 313 660 312 l 661 312 q 668 317 674 320 q 679 322 685 321 q 689 321 691 319 q 680 317 680 317 q 678 316 676 315 q 673 314 670 312 q 674 311 678 310 q 682 310 687 308 q 697 305 703 305 q 712 305 716 306 z m 655 236 q 652 239 652 243 q 652 245 652 246 q 653 248 653 250 q 643 237 644 231 q 644 229 646 229 q 648 229 655 236 z m 668 257 q 668 259 666 259 q 664 259 662 258 q 661 257 659 253 q 654 243 654 240 q 654 237 655 236 l 658 239 l 658 240 l 658 239 q 659 240 659 240 q 659 241 660 242 q 662 248 662 250 q 662 251 661 252 q 663 248 663 247 q 666 250 668 257 z m 672 254 q 672 249 665 239 q 656 230 652 227 l 644 227 q 638 227 638 232 q 638 240 649 253 q 656 262 665 262 q 672 262 672 254 z m 705 256 q 706 254 701 245 q 695 237 693 235 l 681 224 q 674 217 672 209 q 673 221 681 230 q 685 234 687 237 q 689 240 691 244 q 692 245 693 248 l 693 245 q 693 245 692 243 q 694 245 698 253 q 698 254 698 254 q 699 255 699 256 q 699 261 694 259 q 694 259 686 253 q 684 248 680 244 q 677 241 673 236 q 668 230 667 227 q 666 226 662 218 q 662 220 662 222 q 661 225 662 227 q 664 234 671 241 l 677 248 q 682 255 682 259 q 682 260 682 261 q 681 262 681 263 q 687 261 687 257 q 693 262 700 262 q 704 260 705 256 z m 744 270 l 729 270 q 728 268 722 262 q 717 256 709 245 q 707 245 705 240 q 701 235 701 230 q 701 227 703 227 q 708 227 717 237 l 718 238 q 719 239 719 240 q 719 240 720 241 q 720 236 713 230 q 708 226 701 226 q 696 228 695 232 q 695 234 699 242 l 711 256 l 722 270 l 705 272 q 701 273 695 273 l 686 273 q 674 273 662 268 l 661 268 q 671 278 692 278 q 693 278 700 276 q 708 275 722 273 l 725 272 q 728 277 730 280 q 733 284 735 287 q 737 286 737 282 q 737 279 735 277 l 731 271 l 739 270 l 745 270 l 746 270 l 749 270 z m 751 257 q 751 254 744 251 l 743 250 q 746 253 746 258 l 746 262 l 743 262 q 738 262 737 258 q 737 256 740 241 q 741 227 724 227 q 715 227 713 233 q 712 234 712 236 q 712 244 724 246 l 728 245 l 726 245 q 722 245 720 243 q 717 238 717 236 q 717 228 725 228 q 733 228 733 239 q 733 244 732 247 q 731 250 731 254 q 731 264 740 264 q 742 264 743 264 q 744 263 746 263 q 750 261 750 260 q 751 259 751 257 z"},"J":{"x_min":0,"x_max":566,"ha":566,"o":"m 323 1152 q 367 1155 400 1126 q 432 1096 454 1042 q 477 989 490 914 q 503 839 508 750 q 512 662 508 564 q 504 465 494 364 q 483 263 466 163 q 448 63 426 -28 q 444 -67 458 -110 q 473 -153 484 -194 q 494 -234 502 -270 q 510 -306 515 -331 l 427 -395 q 435 -323 428 -250 q 422 -177 403 -114 q 379 -197 350 -266 q 322 -336 290 -386 q 259 -435 225 -460 q 191 -485 155 -480 q 122 -475 95 -446 q 68 -418 49 -374 q 30 -331 20 -277 q 11 -223 12 -168 q 14 -112 28 -60 q 43 -7 73 34 q 103 75 148 100 q 194 124 258 123 q 285 122 309 111 q 333 100 353 80 q 373 195 388 318 q 404 440 411 555 q 418 670 416 771 q 415 872 402 944 q 389 1016 364 1052 q 338 1088 298 1074 q 292 1072 269 1044 q 246 1017 218 970 q 191 923 165 860 q 139 796 126 721 q 114 646 120 563 q 127 480 165 394 q 142 388 121 388 q 103 388 85 393 q 67 398 57 414 q 33 450 24 500 q 16 550 20 608 q 23 666 38 728 q 52 790 74 850 q 96 909 125 963 q 154 1017 186 1058 q 219 1100 254 1125 q 289 1150 323 1152 z m 162 -437 q 184 -440 208 -406 q 232 -373 255 -312 q 278 -251 300 -168 q 321 -86 340 10 q 319 35 293 47 q 267 59 238 54 q 186 45 156 6 q 125 -33 111 -87 q 97 -141 96 -202 q 96 -262 105 -314 q 114 -365 130 -400 q 145 -435 162 -437 z"},"V":{"x_min":0,"x_max":650,"ha":650,"o":"m 11 1107 q 10 1108 29 1114 q 48 1120 72 1126 q 95 1133 114 1138 q 134 1142 134 1139 q 129 1110 129 1044 q 129 978 133 889 q 137 800 145 696 q 153 592 164 488 q 175 384 189 288 q 203 191 220 118 q 236 44 254 1 q 273 -42 294 -40 q 304 -39 328 6 q 353 50 382 129 q 412 208 441 318 q 470 427 490 558 q 509 689 515 838 q 521 986 503 1143 q 518 1144 535 1142 q 549 1140 568 1136 q 587 1133 608 1125 q 621 1120 628 1082 q 634 1045 634 984 q 634 924 628 844 q 621 765 609 676 q 597 588 580 496 q 562 403 539 315 q 516 227 488 149 q 460 71 428 12 q 395 -46 358 -81 q 320 -116 279 -117 q 242 -118 211 -84 q 180 -50 154 8 q 129 67 109 146 q 89 225 73 314 q 57 403 46 497 q 35 591 27 680 q 19 768 14 846 q 10 925 8 984 q 7 1042 8 1076 q 8 1109 11 1107 z"},"7":{"x_min":0,"x_max":813,"ha":813,"o":"m 584 521 l 493 438 l 517 314 l 410 377 l 300 314 l 326 435 l 234 521 l 358 534 l 410 648 l 460 535 z m 455 384 l 426 556 l 391 556 l 361 384 l 376 375 l 389 384 l 395 423 l 421 423 l 428 384 l 442 375 z m 419 448 l 399 448 l 408 516 z m 407 14 l 421 14 l 416 26 q 415 28 415 30 q 415 31 413 33 q 413 30 411 26 z m 235 -3 l 235 2 l 242 2 l 242 -3 z m 563 -3 l 563 39 l 568 39 l 568 1 l 589 1 l 589 -3 z m 525 -3 l 525 39 l 555 39 l 555 33 l 530 33 l 530 20 l 553 20 l 553 15 l 530 15 l 530 1 l 555 1 l 555 -3 z m 377 -3 l 377 14 l 361 39 l 368 39 l 376 26 q 378 20 380 19 q 381 20 382 22 q 383 24 385 26 l 393 39 l 399 39 l 382 14 l 382 -3 z m 251 -3 l 251 39 l 267 39 q 269 39 270 38 q 272 37 273 37 q 277 36 278 33 q 280 31 280 27 q 280 24 278 23 q 277 19 274 19 q 277 18 280 15 q 282 11 282 9 q 282 7 282 6 q 281 5 281 4 q 280 0 277 0 q 276 -2 275 -2 q 274 -2 273 -3 l 267 -3 z m 137 -3 l 125 39 l 131 39 l 137 11 q 138 8 138 6 q 138 4 139 2 q 140 7 140 10 l 148 39 l 155 39 l 161 17 q 162 12 163 9 q 164 6 164 2 q 165 4 165 6 q 165 8 166 11 l 173 39 l 178 39 l 166 -3 l 161 -3 l 153 28 q 152 31 152 33 q 151 31 151 28 l 142 -3 z m 82 -3 l 70 39 l 77 39 l 82 11 q 82 6 85 2 q 86 7 86 10 l 94 39 l 100 39 l 107 17 q 108 12 108 9 q 109 6 109 2 q 111 4 111 6 q 111 8 112 11 l 118 39 l 124 39 l 112 -3 l 107 -3 l 99 28 q 98 31 98 33 q 96 31 96 28 l 87 -3 z m 256 20 l 265 20 q 269 20 270 22 q 273 22 273 23 q 274 24 274 27 q 274 30 273 31 l 272 31 q 271 31 271 32 q 271 32 270 32 q 269 33 264 33 l 256 33 z m 190 -3 l 179 39 l 185 39 l 191 11 q 192 8 192 6 q 192 4 194 2 q 194 6 194 8 q 195 9 195 10 l 203 39 l 209 39 l 216 17 q 217 12 218 9 q 218 6 218 2 q 220 4 220 6 q 220 8 221 11 l 228 39 l 233 39 l 221 -3 l 216 -3 l 208 28 q 207 31 207 33 q 205 31 205 28 l 196 -3 z m 443 19 l 455 19 q 457 19 458 20 q 460 20 462 20 q 464 20 464 23 q 465 24 465 27 q 465 30 463 32 q 462 33 456 33 l 443 33 z m 256 1 l 267 1 q 269 1 270 2 l 273 2 q 274 4 276 5 l 276 9 q 276 11 274 13 q 274 15 272 15 l 265 15 l 256 15 z m 290 -3 l 290 39 l 295 39 l 295 -3 z m 657 17 q 657 8 660 5 q 664 1 671 1 q 678 1 681 5 q 685 8 685 18 q 685 23 684 26 q 682 31 679 32 q 676 33 671 33 q 665 33 662 30 q 657 26 657 17 z m 651 17 q 651 28 657 33 q 661 39 671 39 q 674 39 676 38 q 679 37 681 36 q 684 35 686 33 q 687 31 689 28 q 690 26 690 18 q 690 9 688 6 q 685 1 681 -2 q 677 -4 671 -4 q 668 -4 666 -4 q 663 -3 660 -2 q 658 0 656 2 q 655 4 654 6 q 653 9 652 12 q 651 14 651 17 z m 395 -3 l 411 39 l 417 39 l 434 -3 l 428 -3 l 423 9 l 406 9 l 400 -3 z m 306 -3 l 306 39 l 311 39 l 311 1 l 330 1 l 330 -3 z m 595 -3 l 595 2 l 602 2 l 602 -3 z m 499 13 l 499 18 l 516 18 l 516 2 q 512 -2 508 -3 q 506 -3 504 -4 q 501 -4 499 -4 q 493 -4 489 -2 q 486 0 484 2 q 482 3 481 6 q 480 9 479 12 q 478 14 478 17 q 478 21 479 23 q 480 25 481 28 q 483 34 488 36 q 490 37 493 38 q 496 39 499 39 q 504 39 507 37 q 511 36 512 33 q 515 30 516 27 l 511 26 q 511 27 508 30 q 508 32 504 33 l 499 33 l 493 33 q 490 32 488 30 q 488 29 485 26 q 485 24 484 22 q 484 20 484 18 q 484 11 486 9 q 490 3 491 2 q 494 1 499 1 q 503 1 506 2 q 508 4 509 4 q 510 4 511 5 l 511 13 z m 438 -3 l 438 39 l 456 39 q 459 39 461 38 q 463 37 465 37 q 468 36 469 33 q 471 31 471 27 q 471 22 468 19 q 467 18 464 18 q 462 17 459 15 q 461 15 462 14 q 462 14 463 14 q 464 12 464 10 q 465 9 467 7 l 475 -3 l 468 -3 l 462 5 q 460 7 460 8 q 459 10 458 11 q 458 13 457 13 q 456 13 455 14 l 454 14 q 453 14 453 14 q 453 15 452 15 l 450 15 l 443 15 l 443 -3 z m 337 -3 l 337 39 l 343 39 l 343 1 l 363 1 l 363 -3 z m 641 11 l 646 10 q 644 2 640 0 q 636 -4 629 -4 q 623 -4 619 -2 q 616 0 615 2 q 614 4 612 6 q 610 14 610 18 q 610 22 612 30 q 617 35 619 36 q 622 37 624 38 q 626 39 629 39 q 632 39 635 38 q 638 37 640 36 q 642 34 644 32 q 645 30 646 27 l 640 26 q 640 30 636 32 q 634 33 629 33 q 623 33 621 32 q 619 31 618 30 q 618 28 616 26 q 616 24 616 22 q 615 20 615 18 q 615 12 618 9 q 618 7 619 6 q 620 4 621 2 q 624 1 629 1 q 634 1 637 4 q 640 7 641 11 z m 698 -3 l 698 39 l 706 39 l 716 9 q 716 7 717 6 q 718 4 718 2 q 718 3 720 9 l 729 39 l 737 39 l 737 -3 l 732 -3 l 732 31 l 720 -3 l 715 -3 l 703 32 l 703 -3 z m 407 14 l 421 14 l 416 26 q 415 28 415 30 q 415 31 413 33 q 413 30 411 26 z m 235 -3 l 235 2 l 242 2 l 242 -3 z m 563 -3 l 563 39 l 568 39 l 568 1 l 589 1 l 589 -3 z m 525 -3 l 525 39 l 555 39 l 555 33 l 530 33 l 530 20 l 553 20 l 553 15 l 530 15 l 530 1 l 555 1 l 555 -3 z m 377 -3 l 377 14 l 361 39 l 368 39 l 376 26 q 378 20 380 19 q 381 20 382 22 q 383 24 385 26 l 393 39 l 399 39 l 382 14 l 382 -3 z m 251 -3 l 251 39 l 267 39 q 269 39 270 38 q 272 37 273 37 q 277 36 278 33 q 280 31 280 27 q 280 24 278 23 q 277 19 274 19 q 277 18 280 15 q 282 11 282 9 q 282 7 282 6 q 281 5 281 4 q 280 0 277 0 q 276 -2 275 -2 q 274 -2 273 -3 l 267 -3 z m 137 -3 l 125 39 l 131 39 l 137 11 q 138 8 138 6 q 138 4 139 2 q 140 7 140 10 l 148 39 l 155 39 l 161 17 q 162 12 163 9 q 164 6 164 2 q 165 4 165 6 q 165 8 166 11 l 173 39 l 178 39 l 166 -3 l 161 -3 l 153 28 q 152 31 152 33 q 151 31 151 28 l 142 -3 z m 82 -3 l 70 39 l 77 39 l 82 11 q 82 6 85 2 q 86 7 86 10 l 94 39 l 100 39 l 107 17 q 108 12 108 9 q 109 6 109 2 q 111 4 111 6 q 111 8 112 11 l 118 39 l 124 39 l 112 -3 l 107 -3 l 99 28 q 98 31 98 33 q 96 31 96 28 l 87 -3 z m 256 20 l 265 20 q 269 20 270 22 q 273 22 273 23 q 274 24 274 27 q 274 30 273 31 l 272 31 q 271 31 271 32 q 271 32 270 32 q 269 33 264 33 l 256 33 z m 190 -3 l 179 39 l 185 39 l 191 11 q 192 8 192 6 q 192 4 194 2 q 194 6 194 8 q 195 9 195 10 l 203 39 l 209 39 l 216 17 q 217 12 218 9 q 218 6 218 2 q 220 4 220 6 q 220 8 221 11 l 228 39 l 233 39 l 221 -3 l 216 -3 l 208 28 q 207 31 207 33 q 205 31 205 28 l 196 -3 z m 443 19 l 455 19 q 457 19 458 20 q 460 20 462 20 q 464 20 464 23 q 465 24 465 27 q 465 30 463 32 q 462 33 456 33 l 443 33 z m 256 1 l 267 1 q 269 1 270 2 l 273 2 q 274 4 276 5 l 276 9 q 276 11 274 13 q 274 15 272 15 l 265 15 l 256 15 z m 290 -3 l 290 39 l 295 39 l 295 -3 z m 657 17 q 657 8 660 5 q 664 1 671 1 q 678 1 681 5 q 685 8 685 18 q 685 23 684 26 q 682 31 679 32 q 676 33 671 33 q 665 33 662 30 q 657 26 657 17 z m 651 17 q 651 28 657 33 q 661 39 671 39 q 674 39 676 38 q 679 37 681 36 q 684 35 686 33 q 687 31 689 28 q 690 26 690 18 q 690 9 688 6 q 685 1 681 -2 q 677 -4 671 -4 q 668 -4 666 -4 q 663 -3 660 -2 q 658 0 656 2 q 655 4 654 6 q 653 9 652 12 q 651 14 651 17 z m 395 -3 l 411 39 l 417 39 l 434 -3 l 428 -3 l 423 9 l 406 9 l 400 -3 z m 306 -3 l 306 39 l 311 39 l 311 1 l 330 1 l 330 -3 z m 595 -3 l 595 2 l 602 2 l 602 -3 z m 499 13 l 499 18 l 516 18 l 516 2 q 512 -2 508 -3 q 506 -3 504 -4 q 501 -4 499 -4 q 493 -4 489 -2 q 486 0 484 2 q 482 3 481 6 q 480 9 479 12 q 478 14 478 17 q 478 21 479 23 q 480 25 481 28 q 483 34 488 36 q 490 37 493 38 q 496 39 499 39 q 504 39 507 37 q 511 36 512 33 q 515 30 516 27 l 511 26 q 511 27 508 30 q 508 32 504 33 l 499 33 l 493 33 q 490 32 488 30 q 488 29 485 26 q 485 24 484 22 q 484 20 484 18 q 484 11 486 9 q 490 3 491 2 q 494 1 499 1 q 503 1 506 2 q 508 4 509 4 q 510 4 511 5 l 511 13 z m 438 -3 l 438 39 l 456 39 q 459 39 461 38 q 463 37 465 37 q 468 36 469 33 q 471 31 471 27 q 471 22 468 19 q 467 18 464 18 q 462 17 459 15 q 461 15 462 14 q 462 14 463 14 q 464 12 464 10 q 465 9 467 7 l 475 -3 l 468 -3 l 462 5 q 460 7 460 8 q 459 10 458 11 q 458 13 457 13 q 456 13 455 14 l 454 14 q 453 14 453 14 q 453 15 452 15 l 450 15 l 443 15 l 443 -3 z m 337 -3 l 337 39 l 343 39 l 343 1 l 363 1 l 363 -3 z m 641 11 l 646 10 q 644 2 640 0 q 636 -4 629 -4 q 623 -4 619 -2 q 616 0 615 2 q 614 4 612 6 q 610 14 610 18 q 610 22 612 30 q 617 35 619 36 q 622 37 624 38 q 626 39 629 39 q 632 39 635 38 q 638 37 640 36 q 642 34 644 32 q 645 30 646 27 l 640 26 q 640 30 636 32 q 634 33 629 33 q 623 33 621 32 q 619 31 618 30 q 618 28 616 26 q 616 24 616 22 q 615 20 615 18 q 615 12 618 9 q 618 7 619 6 q 620 4 621 2 q 624 1 629 1 q 634 1 637 4 q 640 7 641 11 z m 698 -3 l 698 39 l 706 39 l 716 9 q 716 7 717 6 q 718 4 718 2 q 718 3 720 9 l 729 39 l 737 39 l 737 -3 l 732 -3 l 732 31 l 720 -3 l 715 -3 l 703 32 l 703 -3 z m 407 14 l 421 14 l 416 26 q 415 28 415 30 q 415 31 413 33 q 413 30 411 26 z m 235 -3 l 235 2 l 242 2 l 242 -3 z m 563 -3 l 563 39 l 568 39 l 568 1 l 589 1 l 589 -3 z m 525 -3 l 525 39 l 555 39 l 555 33 l 530 33 l 530 20 l 553 20 l 553 15 l 530 15 l 530 1 l 555 1 l 555 -3 z m 377 -3 l 377 14 l 361 39 l 368 39 l 376 26 q 378 20 380 19 q 381 20 382 22 q 383 24 385 26 l 393 39 l 399 39 l 382 14 l 382 -3 z m 251 -3 l 251 39 l 267 39 q 269 39 270 38 q 272 37 273 37 q 277 36 278 33 q 280 31 280 27 q 280 24 278 23 q 277 19 274 19 q 277 18 280 15 q 282 11 282 9 q 282 7 282 6 q 281 5 281 4 q 280 0 277 0 q 276 -2 275 -2 q 274 -2 273 -3 l 267 -3 z m 137 -3 l 125 39 l 131 39 l 137 11 q 138 8 138 6 q 138 4 139 2 q 140 7 140 10 l 148 39 l 155 39 l 161 17 q 162 12 163 9 q 164 6 164 2 q 165 4 165 6 q 165 8 166 11 l 173 39 l 178 39 l 166 -3 l 161 -3 l 153 28 q 152 31 152 33 q 151 31 151 28 l 142 -3 z m 82 -3 l 70 39 l 77 39 l 82 11 q 82 6 85 2 q 86 7 86 10 l 94 39 l 100 39 l 107 17 q 108 12 108 9 q 109 6 109 2 q 111 4 111 6 q 111 8 112 11 l 118 39 l 124 39 l 112 -3 l 107 -3 l 99 28 q 98 31 98 33 q 96 31 96 28 l 87 -3 z m 256 20 l 265 20 q 269 20 270 22 q 273 22 273 23 q 274 24 274 27 q 274 30 273 31 l 272 31 q 271 31 271 32 q 271 32 270 32 q 269 33 264 33 l 256 33 z m 190 -3 l 179 39 l 185 39 l 191 11 q 192 8 192 6 q 192 4 194 2 q 194 6 194 8 q 195 9 195 10 l 203 39 l 209 39 l 216 17 q 217 12 218 9 q 218 6 218 2 q 220 4 220 6 q 220 8 221 11 l 228 39 l 233 39 l 221 -3 l 216 -3 l 208 28 q 207 31 207 33 q 205 31 205 28 l 196 -3 z m 443 19 l 455 19 q 457 19 458 20 q 460 20 462 20 q 464 20 464 23 q 465 24 465 27 q 465 30 463 32 q 462 33 456 33 l 443 33 z m 256 1 l 267 1 q 269 1 270 2 l 273 2 q 274 4 276 5 l 276 9 q 276 11 274 13 q 274 15 272 15 l 265 15 l 256 15 z m 290 -3 l 290 39 l 295 39 l 295 -3 z m 657 17 q 657 8 660 5 q 664 1 671 1 q 678 1 681 5 q 685 8 685 18 q 685 23 684 26 q 682 31 679 32 q 676 33 671 33 q 665 33 662 30 q 657 26 657 17 z m 651 17 q 651 28 657 33 q 661 39 671 39 q 674 39 676 38 q 679 37 681 36 q 684 35 686 33 q 687 31 689 28 q 690 26 690 18 q 690 9 688 6 q 685 1 681 -2 q 677 -4 671 -4 q 668 -4 666 -4 q 663 -3 660 -2 q 658 0 656 2 q 655 4 654 6 q 653 9 652 12 q 651 14 651 17 z m 395 -3 l 411 39 l 417 39 l 434 -3 l 428 -3 l 423 9 l 406 9 l 400 -3 z m 306 -3 l 306 39 l 311 39 l 311 1 l 330 1 l 330 -3 z m 595 -3 l 595 2 l 602 2 l 602 -3 z m 499 13 l 499 18 l 516 18 l 516 2 q 512 -2 508 -3 q 506 -3 504 -4 q 501 -4 499 -4 q 493 -4 489 -2 q 486 0 484 2 q 482 3 481 6 q 480 9 479 12 q 478 14 478 17 q 478 21 479 23 q 480 25 481 28 q 483 34 488 36 q 490 37 493 38 q 496 39 499 39 q 504 39 507 37 q 511 36 512 33 q 515 30 516 27 l 511 26 q 511 27 508 30 q 508 32 504 33 l 499 33 l 493 33 q 490 32 488 30 q 488 29 485 26 q 485 24 484 22 q 484 20 484 18 q 484 11 486 9 q 490 3 491 2 q 494 1 499 1 q 503 1 506 2 q 508 4 509 4 q 510 4 511 5 l 511 13 z m 438 -3 l 438 39 l 456 39 q 459 39 461 38 q 463 37 465 37 q 468 36 469 33 q 471 31 471 27 q 471 22 468 19 q 467 18 464 18 q 462 17 459 15 q 461 15 462 14 q 462 14 463 14 q 464 12 464 10 q 465 9 467 7 l 475 -3 l 468 -3 l 462 5 q 460 7 460 8 q 459 10 458 11 q 458 13 457 13 q 456 13 455 14 l 454 14 q 453 14 453 14 q 453 15 452 15 l 450 15 l 443 15 l 443 -3 z m 337 -3 l 337 39 l 343 39 l 343 1 l 363 1 l 363 -3 z m 641 11 l 646 10 q 644 2 640 0 q 636 -4 629 -4 q 623 -4 619 -2 q 616 0 615 2 q 614 4 612 6 q 610 14 610 18 q 610 22 612 30 q 617 35 619 36 q 622 37 624 38 q 626 39 629 39 q 632 39 635 38 q 638 37 640 36 q 642 34 644 32 q 645 30 646 27 l 640 26 q 640 30 636 32 q 634 33 629 33 q 623 33 621 32 q 619 31 618 30 q 618 28 616 26 q 616 24 616 22 q 615 20 615 18 q 615 12 618 9 q 618 7 619 6 q 620 4 621 2 q 624 1 629 1 q 634 1 637 4 q 640 7 641 11 z m 698 -3 l 698 39 l 706 39 l 716 9 q 716 7 717 6 q 718 4 718 2 q 718 3 720 9 l 729 39 l 737 39 l 737 -3 l 732 -3 l 732 31 l 720 -3 l 715 -3 l 703 32 l 703 -3 z m 117 74 l 125 71 q 123 62 116 56 q 108 50 99 50 q 90 50 82 54 q 74 60 73 66 q 69 73 69 83 q 69 94 73 101 q 76 108 83 111 q 90 115 99 115 q 110 115 114 110 q 121 108 124 97 l 116 96 q 112 104 109 105 q 105 109 99 109 q 91 109 87 105 q 81 101 79 96 q 78 92 78 83 q 78 74 81 70 q 83 63 87 61 q 92 57 98 57 q 106 57 111 62 q 113 64 114 67 q 116 70 117 74 z m 133 82 q 133 90 135 96 q 137 102 142 106 q 146 111 152 113 q 157 115 163 115 q 172 115 179 111 q 185 108 190 100 q 194 90 194 83 q 194 78 193 74 q 192 70 190 66 q 185 58 178 54 q 170 50 163 50 q 158 50 154 51 q 151 52 147 54 q 140 58 137 66 q 133 73 133 82 z m 142 82 q 142 70 147 63 q 154 57 163 57 q 173 57 178 65 q 185 72 185 83 q 185 87 184 90 q 183 93 182 96 q 180 103 174 105 q 171 109 163 109 q 155 109 148 102 q 142 97 142 82 z m 204 52 l 204 114 l 216 114 l 231 70 q 234 64 234 61 q 236 63 238 71 l 254 114 l 264 114 l 264 52 l 256 52 l 256 104 l 238 52 l 230 52 l 212 105 l 212 52 z m 278 52 l 278 114 l 302 114 l 311 114 q 316 114 319 111 q 320 110 324 105 q 325 103 326 101 q 326 99 326 96 q 326 90 321 83 q 316 78 302 78 l 286 78 l 286 52 z m 286 84 l 303 84 q 312 84 313 88 q 317 89 317 96 q 317 101 316 102 q 312 106 309 106 q 308 108 302 108 l 286 108 z m 337 52 l 337 114 l 345 114 l 345 58 l 376 58 l 376 52 z m 386 52 l 386 114 l 432 114 l 432 108 l 394 108 l 394 88 l 429 88 l 429 80 l 394 80 l 394 58 l 433 58 l 433 52 z m 460 52 l 460 108 l 439 108 l 439 114 l 490 114 l 490 108 l 469 108 l 469 52 z m 499 52 l 499 114 l 545 114 l 545 108 l 507 108 l 507 88 l 542 88 l 542 80 l 507 80 l 507 58 l 546 58 l 546 52 z m 580 71 l 588 72 q 588 67 590 65 q 592 61 597 59 q 599 58 606 58 q 608 58 610 58 q 613 58 615 59 q 618 59 620 63 q 621 65 621 69 q 621 72 620 74 q 619 75 618 76 q 616 76 614 78 q 613 78 603 80 q 598 82 595 82 q 592 83 590 84 q 586 86 584 91 q 582 92 582 94 q 581 96 581 98 q 581 104 585 108 q 586 110 588 111 q 590 112 593 114 q 595 115 605 115 q 612 115 616 113 q 619 111 621 110 q 623 109 624 106 q 628 103 628 97 l 620 96 q 618 104 615 105 q 612 108 605 108 q 595 108 593 105 q 590 102 590 98 q 590 95 593 93 q 593 93 605 88 q 610 87 614 86 q 617 85 619 84 q 622 83 624 82 q 625 80 627 78 q 629 75 629 69 q 629 62 627 59 q 623 55 619 53 q 616 52 613 51 q 610 50 606 50 q 602 50 598 51 q 594 52 592 53 q 587 54 582 61 q 580 65 580 71 z m 641 52 l 641 114 l 686 114 l 686 108 l 650 108 l 650 88 l 685 88 l 685 80 l 650 80 l 650 58 l 688 58 l 688 52 z m 716 52 l 716 108 l 696 108 l 696 114 l 745 114 l 745 108 l 724 108 l 724 52 z m 75 127 l 75 189 l 100 189 l 109 189 q 111 189 117 187 q 118 186 120 184 q 121 182 122 180 q 124 178 124 173 q 124 164 118 158 q 115 153 100 153 l 85 153 l 85 127 z m 85 161 l 100 161 q 109 161 112 163 q 116 167 116 171 q 116 173 115 175 q 114 177 113 179 q 110 182 108 182 q 107 183 100 183 l 85 183 z m 134 127 l 134 189 l 179 189 l 179 183 l 143 183 l 143 163 l 177 163 l 177 156 l 143 156 l 143 135 l 181 135 l 181 127 z m 192 127 l 192 189 l 221 189 q 230 189 234 188 q 239 186 241 183 q 243 175 243 173 q 243 166 239 162 q 235 158 225 156 q 227 154 228 154 q 229 154 230 153 q 235 148 237 144 l 248 127 l 238 127 l 229 140 q 228 143 226 145 q 225 147 224 149 q 222 150 222 152 q 221 153 220 153 q 218 154 216 154 q 215 156 211 156 l 202 156 l 202 127 z m 202 162 l 218 162 q 226 162 228 163 q 231 166 233 167 q 234 169 234 173 q 234 177 231 180 q 228 183 221 183 l 202 183 z m 254 148 l 261 148 q 261 146 262 144 q 263 142 264 140 q 265 139 266 138 q 268 136 270 136 q 276 134 280 134 q 282 134 284 134 q 286 134 287 135 q 293 137 294 139 q 294 140 294 142 q 295 143 295 144 q 295 148 294 149 q 291 151 287 153 q 286 154 284 154 q 281 154 277 156 q 268 157 264 160 q 259 164 257 166 q 256 169 256 174 q 256 176 256 178 q 257 181 259 183 q 260 187 267 189 q 269 191 278 191 q 286 191 290 189 q 296 186 298 182 q 302 176 302 173 l 294 171 q 292 178 289 180 q 285 184 278 184 q 270 184 267 180 q 264 178 264 174 q 264 170 267 169 q 268 167 278 165 q 287 161 293 161 q 295 159 297 158 q 299 156 300 154 q 303 151 303 145 q 303 140 300 136 q 298 133 296 132 q 295 130 293 128 q 285 126 280 126 q 273 126 265 128 q 262 130 260 132 q 258 133 256 136 q 255 139 254 142 q 254 144 254 148 z m 312 158 q 312 172 320 182 q 329 191 342 191 q 346 191 350 190 q 353 189 358 187 q 362 185 364 182 q 366 179 368 175 q 372 168 372 158 q 372 149 368 141 q 364 134 358 130 q 350 126 342 126 q 333 126 326 131 q 317 136 316 143 q 312 148 312 158 z m 320 158 q 320 146 326 140 q 332 134 342 134 q 352 134 358 140 q 363 147 363 158 q 363 162 362 166 q 362 170 360 173 q 357 178 354 180 q 349 184 342 184 q 337 184 334 182 q 331 181 326 178 q 320 172 320 158 z m 382 127 l 382 189 l 391 189 l 424 141 l 424 189 l 432 189 l 432 127 l 424 127 l 390 176 l 390 127 z m 439 127 l 463 189 l 472 189 l 498 127 l 488 127 l 481 147 l 455 147 l 447 127 z m 456 153 l 478 153 l 472 170 q 470 174 469 178 q 468 181 467 183 q 467 180 466 177 q 465 174 464 171 z m 503 127 l 503 189 l 512 189 l 512 135 l 543 135 l 543 127 z m 615 189 l 623 189 l 623 154 q 623 143 621 139 q 619 133 614 130 q 609 126 599 126 q 589 126 585 130 q 582 131 580 134 q 578 136 576 139 q 575 141 575 154 l 575 189 l 582 189 l 582 154 q 582 144 584 141 q 586 137 589 136 q 591 135 593 134 q 595 134 598 134 q 606 134 611 137 q 615 141 615 154 z m 634 148 l 642 148 q 642 146 643 144 q 644 142 645 140 q 646 139 648 138 q 649 136 651 136 q 657 134 660 134 q 667 134 670 135 q 672 136 675 139 q 676 140 676 144 q 676 148 675 149 q 673 150 672 151 q 672 152 670 153 q 668 154 665 154 q 662 154 658 156 q 654 157 650 158 q 647 158 646 160 q 641 162 640 166 q 637 169 637 174 q 637 178 640 183 q 641 187 647 189 q 651 191 659 191 q 662 191 666 191 q 669 191 671 189 q 677 186 680 182 q 681 180 682 178 q 683 175 683 173 l 675 171 q 673 174 672 176 q 672 179 670 180 q 667 184 659 184 q 650 184 649 180 q 645 179 645 174 q 645 171 647 169 q 649 167 659 165 q 670 161 673 161 q 676 159 678 158 q 680 156 681 154 q 684 152 684 145 q 684 139 681 136 q 679 133 678 132 q 676 130 673 128 q 667 126 662 126 q 657 126 654 126 q 650 127 647 128 q 645 130 642 132 q 640 133 638 136 q 636 139 635 142 q 634 144 634 148 z m 696 127 l 696 189 l 741 189 l 741 183 l 705 183 l 705 163 l 738 163 l 738 156 l 705 156 l 705 135 l 742 135 l 742 127 z m 205 259 q 205 269 190 271 q 188 271 185 272 q 182 272 178 272 l 172 265 l 156 248 q 152 243 148 239 q 145 235 140 232 q 146 230 155 229 q 157 229 160 229 q 164 229 167 230 q 182 231 190 238 q 205 250 205 259 z m 216 289 q 216 293 211 293 q 209 293 194 288 l 183 278 q 181 276 179 272 l 196 275 q 200 275 207 280 q 216 286 216 289 z m 229 307 q 229 305 226 305 q 224 305 224 306 q 223 306 221 306 q 211 304 198 291 q 200 293 202 294 q 205 295 207 296 q 214 297 220 296 q 224 296 224 291 l 224 287 q 219 278 196 273 q 214 271 214 261 q 214 249 195 236 q 188 232 180 230 q 173 227 165 226 q 152 223 145 224 q 139 224 132 227 q 126 223 121 223 l 119 223 q 113 225 109 226 l 112 226 q 120 226 125 230 l 125 231 q 118 227 110 227 q 99 227 93 233 q 83 240 83 254 q 83 258 84 262 q 85 265 87 270 q 94 285 111 296 q 116 301 122 302 q 127 304 132 305 q 143 305 147 301 q 142 304 137 304 q 131 304 124 300 q 114 296 113 294 q 103 289 93 277 q 84 263 84 253 q 84 248 85 245 q 86 242 88 239 q 92 233 99 231 q 102 230 104 230 q 106 229 108 229 q 112 229 115 230 q 118 231 122 233 q 111 241 111 255 q 113 268 127 278 l 125 275 q 123 275 121 271 q 115 265 115 258 q 115 245 130 236 q 138 241 138 242 q 140 245 142 247 q 144 249 146 251 q 148 253 148 256 q 149 259 151 262 l 151 261 q 151 256 150 253 l 162 267 q 193 302 213 308 q 204 311 199 311 q 186 310 171 302 q 153 293 153 280 q 153 276 156 273 q 157 272 157 271 q 151 275 151 281 q 151 292 164 303 q 180 315 198 313 q 204 313 216 309 l 220 309 q 225 309 228 307 z m 231 242 q 230 238 223 231 q 216 227 211 227 q 206 227 206 233 q 206 238 212 246 l 211 246 q 210 245 207 245 q 207 245 206 246 q 209 246 216 253 l 217 253 l 220 257 q 223 260 223 262 l 226 262 q 229 262 229 261 q 229 257 223 250 l 216 243 q 210 234 210 231 q 210 228 214 228 q 219 228 226 238 q 227 239 228 240 q 229 240 231 242 z m 236 270 q 232 264 226 264 q 223 264 219 267 l 222 267 q 229 267 231 274 l 231 276 l 236 274 q 237 273 236 270 z m 271 289 q 271 284 240 247 l 239 247 q 230 236 230 230 q 230 227 233 227 q 239 227 246 237 q 247 238 248 238 q 249 239 250 241 q 250 236 242 230 q 237 226 231 226 q 225 227 225 232 q 224 237 245 263 l 257 278 l 263 284 q 266 288 268 294 q 271 292 271 289 z m 288 289 q 288 285 256 247 q 246 235 246 230 q 246 227 250 227 q 254 227 263 237 l 267 241 q 266 236 258 230 q 253 226 247 226 q 241 227 241 232 q 241 238 261 263 l 273 278 l 279 284 q 284 290 285 294 q 288 292 288 289 z m 269 222 q 253 219 244 210 q 237 201 237 199 q 237 195 241 195 q 242 194 248 196 q 250 198 252 200 q 255 203 258 206 z m 298 287 q 296 273 285 262 q 285 261 284 261 q 284 261 284 260 q 281 256 278 252 q 274 249 271 244 q 269 242 269 240 q 268 242 270 246 q 264 237 264 232 q 264 229 267 229 q 268 229 272 231 q 287 243 293 265 l 293 262 l 293 259 q 295 257 295 254 q 295 252 290 244 l 282 231 l 273 219 q 276 221 284 225 l 283 224 q 281 222 278 220 q 274 217 271 212 l 263 202 l 259 197 q 253 191 246 189 q 240 189 237 193 q 231 195 235 202 q 236 203 237 205 q 238 207 240 209 l 241 210 l 234 209 q 251 221 262 222 q 263 222 264 222 q 265 223 266 223 l 267 223 l 269 223 l 275 232 q 271 228 268 228 q 265 227 263 227 q 258 227 258 232 q 258 244 279 263 l 281 264 l 291 274 q 293 278 295 281 q 297 284 298 287 z m 412 302 q 406 304 402 304 q 392 304 384 302 q 375 299 366 294 q 362 292 360 290 q 357 287 354 285 q 366 284 386 272 q 408 294 424 300 z m 433 298 q 429 297 424 296 q 420 294 415 289 q 412 287 400 275 l 393 268 l 403 262 q 405 265 409 270 q 413 274 418 280 z m 442 315 q 442 314 441 313 q 441 306 438 299 l 439 298 l 438 298 q 433 286 425 278 l 409 259 q 411 258 412 258 q 413 258 415 257 q 415 255 414 255 q 412 255 411 256 q 410 256 408 257 q 396 244 395 233 q 393 229 393 227 q 393 223 397 223 q 405 223 414 236 l 418 242 q 428 256 431 267 l 431 270 q 431 269 432 268 l 432 267 q 430 253 422 241 l 409 215 q 409 219 412 228 q 400 219 394 219 q 385 219 387 231 q 387 237 391 244 q 395 252 401 261 l 391 266 l 382 257 q 379 253 374 247 q 368 241 360 231 q 344 215 332 215 l 329 215 q 326 215 320 218 q 320 218 322 218 q 331 216 340 225 q 332 221 321 221 q 310 221 303 226 l 304 226 q 294 233 294 247 q 294 257 298 262 q 304 278 321 289 q 327 294 332 296 q 338 297 344 298 q 354 298 358 294 l 357 294 q 355 296 348 296 q 338 296 323 287 q 312 279 304 270 q 295 256 295 245 q 295 229 310 224 q 316 222 319 222 q 340 223 365 250 l 384 270 q 369 279 350 279 l 349 279 q 347 275 347 270 q 348 270 352 264 q 345 268 345 274 q 345 277 346 279 q 336 277 333 275 q 315 268 317 254 q 317 245 323 238 l 325 236 q 313 248 313 257 q 313 270 325 279 q 335 286 350 286 q 364 302 385 305 q 390 306 401 306 q 406 306 416 304 l 428 301 l 434 301 l 435 300 q 439 307 441 317 l 442 317 z m 455 250 q 455 247 454 245 q 449 240 446 236 q 442 232 439 227 l 440 227 l 441 227 q 440 226 439 226 q 438 226 438 225 q 433 225 433 227 q 433 231 442 240 q 449 249 449 251 q 450 254 446 257 q 434 240 425 236 l 421 234 l 419 235 q 423 235 432 245 q 441 253 444 258 q 444 259 444 259 q 443 259 443 260 q 443 261 450 267 q 450 268 451 268 l 452 267 q 452 266 447 259 q 455 256 455 250 z m 484 253 q 484 259 480 257 q 476 257 474 255 q 471 253 465 245 q 459 237 459 232 q 458 230 461 230 q 467 232 471 237 q 475 245 475 248 q 475 250 474 250 q 478 250 478 245 l 477 243 q 479 245 480 248 q 482 250 484 252 z m 503 262 q 499 262 494 257 q 490 252 486 246 q 482 240 477 232 q 472 222 468 216 q 464 211 463 209 q 450 193 443 193 q 437 192 434 197 q 434 202 434 202 q 434 207 438 211 q 436 210 433 210 q 443 220 455 223 q 456 223 456 224 q 457 224 459 224 l 460 223 q 441 217 437 205 q 436 203 436 200 q 436 199 437 198 q 437 197 438 197 q 446 196 457 212 l 464 222 l 468 228 q 465 227 463 227 q 455 227 455 235 q 455 244 468 256 q 474 262 479 262 q 486 262 486 254 l 487 254 l 492 260 q 497 265 501 265 q 504 265 506 262 z m 521 255 q 521 249 510 243 q 509 242 508 242 l 507 242 q 504 242 501 247 q 503 245 506 245 q 513 249 515 256 l 515 258 l 515 259 l 515 260 q 511 260 502 251 l 502 250 q 499 246 498 244 q 498 241 498 239 q 497 240 497 245 q 495 241 494 238 q 492 234 492 231 q 492 230 493 229 q 493 227 497 227 q 507 231 514 237 q 516 239 519 241 q 517 238 515 236 q 513 233 508 230 q 500 225 494 227 q 494 226 493 227 q 487 227 487 233 q 487 243 498 253 q 504 262 514 262 q 516 262 517 261 q 521 258 521 255 z m 561 289 q 561 285 529 247 q 520 236 520 230 q 520 227 523 227 q 529 227 536 237 q 537 238 538 238 q 539 239 540 241 q 540 236 532 230 q 527 226 520 226 q 515 228 515 232 q 515 240 534 263 l 546 278 l 552 284 q 558 290 558 294 q 561 292 561 289 z m 615 258 q 598 264 597 277 q 592 274 587 272 q 582 269 579 266 q 560 248 560 233 q 560 227 563 226 l 565 226 l 567 226 q 582 226 595 236 q 599 240 604 245 q 610 250 615 258 z m 635 287 l 627 287 q 615 286 598 278 q 600 264 617 261 l 624 270 z m 653 305 q 640 305 630 303 q 619 301 611 296 q 616 301 624 304 q 631 307 640 309 q 620 310 605 297 q 602 295 598 287 q 605 289 612 290 q 618 291 626 290 q 628 290 631 290 q 634 290 639 289 q 641 292 644 296 q 648 300 653 305 z m 716 306 q 714 303 712 300 q 709 298 704 296 q 696 291 689 291 l 687 291 q 686 291 685 292 q 686 293 686 294 q 686 295 688 297 q 679 304 663 304 l 659 299 l 649 287 q 657 286 664 285 q 671 284 677 284 q 691 284 696 287 q 692 283 681 281 q 672 279 663 282 l 647 285 q 643 280 640 276 q 636 273 634 269 l 627 259 l 632 259 q 657 261 661 271 l 662 271 q 659 265 649 260 q 644 258 640 257 q 635 256 631 256 l 626 256 q 619 248 614 242 q 610 236 606 232 q 593 218 582 218 q 577 219 571 219 q 581 219 592 229 q 578 223 570 223 l 564 224 l 572 216 q 564 220 559 225 q 558 225 554 227 q 542 236 541 250 q 541 255 541 259 q 541 263 543 267 q 546 276 551 282 q 556 289 563 296 q 580 311 593 311 q 600 311 605 307 l 604 306 q 601 309 595 309 q 582 307 568 296 q 556 286 550 276 q 542 262 542 250 q 544 232 558 227 q 556 233 557 239 q 559 254 568 265 q 579 279 598 287 q 600 289 600 293 l 609 302 q 622 313 643 313 q 648 313 652 313 q 655 313 660 312 l 661 312 q 668 317 674 320 q 679 322 685 321 q 689 321 691 319 q 680 317 680 317 q 678 316 676 315 q 673 314 670 312 q 674 311 678 310 q 682 310 687 308 q 697 305 703 305 q 712 305 716 306 z m 655 236 q 652 239 652 243 q 652 245 652 246 q 653 248 653 250 q 643 237 644 231 q 644 229 646 229 q 648 229 655 236 z m 668 257 q 668 259 666 259 q 664 259 662 258 q 661 257 659 253 q 654 243 654 240 q 654 237 655 236 l 658 239 l 658 240 l 658 239 q 659 240 659 240 q 659 241 660 242 q 662 248 662 250 q 662 251 661 252 q 663 248 663 247 q 666 250 668 257 z m 672 254 q 672 249 665 239 q 656 230 652 227 l 644 227 q 638 227 638 232 q 638 240 649 253 q 656 262 665 262 q 672 262 672 254 z m 705 256 q 706 254 701 245 q 695 237 693 235 l 681 224 q 674 217 672 209 q 673 221 681 230 q 685 234 687 237 q 689 240 691 244 q 692 245 693 248 l 693 245 q 693 245 692 243 q 694 245 698 253 q 698 254 698 254 q 699 255 699 256 q 699 261 694 259 q 694 259 686 253 q 684 248 680 244 q 677 241 673 236 q 668 230 667 227 q 666 226 662 218 q 662 220 662 222 q 661 225 662 227 q 664 234 671 241 l 677 248 q 682 255 682 259 q 682 260 682 261 q 681 262 681 263 q 687 261 687 257 q 693 262 700 262 q 704 260 705 256 z m 744 270 l 729 270 q 728 268 722 262 q 717 256 709 245 q 707 245 705 240 q 701 235 701 230 q 701 227 703 227 q 708 227 717 237 l 718 238 q 719 239 719 240 q 719 240 720 241 q 720 236 713 230 q 708 226 701 226 q 696 228 695 232 q 695 234 699 242 l 711 256 l 722 270 l 705 272 q 701 273 695 273 l 686 273 q 674 273 662 268 l 661 268 q 671 278 692 278 q 693 278 700 276 q 708 275 722 273 l 725 272 q 728 277 730 280 q 733 284 735 287 q 737 286 737 282 q 737 279 735 277 l 731 271 l 739 270 l 745 270 l 746 270 l 749 270 z m 751 257 q 751 254 744 251 l 743 250 q 746 253 746 258 l 746 262 l 743 262 q 738 262 737 258 q 737 256 740 241 q 741 227 724 227 q 715 227 713 233 q 712 234 712 236 q 712 244 724 246 l 728 245 l 726 245 q 722 245 720 243 q 717 238 717 236 q 717 228 725 228 q 733 228 733 239 q 733 244 732 247 q 731 250 731 254 q 731 264 740 264 q 742 264 743 264 q 744 263 746 263 q 750 261 750 260 q 751 259 751 257 z"},"S":{"x_min":0,"x_max":684,"ha":684,"o":"m 398 1175 q 483 1179 552 1156 q 622 1134 670 1089 q 718 1044 740 979 q 763 914 755 833 q 754 822 735 810 q 716 798 694 790 q 672 782 654 780 q 637 779 640 788 q 645 805 652 838 q 658 871 650 911 q 641 954 616 991 q 592 1028 556 1055 q 521 1082 478 1096 q 436 1110 391 1107 q 327 1105 282 1082 q 236 1060 205 1028 q 174 995 156 956 q 139 917 130 881 q 122 845 120 818 q 119 790 121 779 q 133 711 173 661 q 213 611 267 570 q 321 530 380 494 q 440 457 492 414 q 544 372 581 320 q 618 267 625 194 q 632 119 611 68 q 590 16 552 -16 q 513 -49 464 -64 q 414 -79 364 -80 q 298 -82 250 -65 q 203 -48 173 -28 q 137 -4 114 26 l 132 90 q 165 55 205 29 q 239 6 282 -12 q 326 -29 374 -26 q 390 -25 420 -17 q 450 -9 478 14 q 505 36 523 76 q 541 116 534 182 q 529 229 489 272 q 449 314 392 356 q 335 398 270 442 q 204 487 148 537 q 91 587 52 646 q 14 705 10 777 q 5 842 22 910 q 40 979 86 1036 q 131 1093 208 1132 q 284 1170 398 1175 z"},"Z":{"x_min":0,"x_max":898,"ha":898,"o":"m 255 1104 q 256 1105 281 1110 q 306 1116 349 1124 q 392 1131 449 1138 q 506 1146 572 1152 q 638 1157 708 1159 q 779 1161 848 1156 q 918 1152 983 1140 q 1048 1128 1102 1106 q 1102 1104 1076 1075 q 1051 1046 1006 998 q 962 949 902 884 q 842 818 774 744 q 706 669 634 590 q 561 510 490 432 q 420 353 356 280 q 291 207 240 146 q 189 85 154 40 q 120 -4 110 -26 q 114 -30 146 -36 q 177 -42 228 -43 q 279 -44 345 -36 q 411 -29 484 -8 q 557 14 632 52 q 708 91 778 154 q 779 155 795 148 q 811 140 828 129 q 844 118 853 104 q 862 91 850 79 q 789 20 720 -17 q 651 -54 580 -76 q 508 -97 437 -104 q 366 -112 301 -111 q 149 -109 -4 -67 q 93 83 204 228 q 315 374 434 514 q 553 655 676 792 q 800 929 923 1063 q 903 1068 862 1067 q 820 1066 766 1060 q 711 1055 648 1046 q 585 1037 522 1026 q 458 1014 398 1000 q 338 986 291 972 q 277 993 267 1015 q 259 1034 254 1058 q 248 1081 255 1104 z"},"x":{"x_min":0,"x_max":483,"ha":483,"o":"m 85 384 q 83 366 72 366 q 61 365 48 373 q 35 381 25 395 q 15 409 16 421 q 20 469 36 500 q 51 530 70 548 q 90 565 108 571 q 127 577 138 577 q 170 577 196 546 q 223 515 243 468 q 267 520 303 544 q 339 569 382 558 q 401 553 416 534 q 431 515 440 490 q 449 464 452 436 q 455 408 451 386 q 448 368 435 352 q 422 336 408 327 q 394 318 383 318 q 372 319 373 334 q 376 429 372 476 q 367 523 358 532 q 350 542 338 522 q 327 501 316 462 q 306 424 298 373 q 289 322 287 271 q 287 266 287 261 q 287 256 286 251 q 285 197 292 157 q 298 117 310 90 q 321 63 336 50 q 351 36 367 36 q 386 36 406 53 q 425 70 442 103 q 459 136 472 184 q 485 233 492 296 q 492 298 498 300 q 505 301 512 301 q 519 301 524 298 q 530 296 529 290 q 513 209 494 155 q 475 101 455 68 q 435 35 414 20 q 393 4 374 0 q 325 -9 292 18 q 258 46 238 91 q 212 46 178 18 q 144 -10 110 -9 q 53 -7 22 23 q -8 53 -19 96 q -30 139 -25 188 q -20 237 -6 278 q -3 287 8 297 q 18 307 30 314 q 43 322 56 326 q 70 330 78 326 q 87 323 89 311 q 91 299 82 274 q 60 215 56 168 q 51 121 58 88 q 64 54 78 36 q 93 18 110 18 q 134 18 151 40 q 168 63 179 99 q 190 135 196 182 q 201 228 201 276 q 201 324 196 370 q 191 416 182 451 q 172 486 158 506 q 144 527 126 524 q 114 522 104 490 q 93 458 85 384 z"},"v":{"x_min":0,"x_max":373,"ha":373,"o":"m -5 562 q -6 569 9 570 q 24 570 43 564 q 62 558 80 546 q 97 534 101 518 q 102 511 102 487 q 102 463 102 428 q 102 393 102 350 q 102 308 103 265 q 104 222 108 181 q 111 140 116 108 q 122 77 132 58 q 141 40 154 40 q 171 40 185 61 q 199 82 210 115 q 222 148 230 188 q 239 229 245 269 q 221 278 204 306 q 188 334 180 370 q 171 406 171 446 q 171 486 179 520 q 187 553 204 575 q 221 597 247 598 q 266 599 281 588 q 296 576 302 546 q 303 539 304 517 q 305 495 304 462 q 303 429 301 388 q 299 347 294 304 q 326 305 351 326 q 376 347 394 372 q 412 398 422 420 q 433 443 437 448 q 446 459 453 452 q 460 445 460 426 q 460 417 448 390 q 436 364 414 336 q 392 309 360 286 q 328 264 288 263 q 280 214 268 168 q 257 122 240 86 q 223 49 200 26 q 176 3 146 2 q 100 -1 72 30 q 44 61 30 112 q 15 163 10 227 q 5 291 4 354 q 3 417 2 472 q 1 528 -5 562 z m 246 558 q 236 556 229 540 q 222 525 218 502 q 214 478 214 450 q 214 422 218 396 q 222 369 230 348 q 238 326 251 315 q 257 360 260 392 q 262 424 262 429 q 262 437 264 459 q 266 481 266 504 q 266 526 262 543 q 258 560 246 558 z"},"O":{"x_min":0,"x_max":859,"ha":859,"o":"m 74 766 q 85 785 111 792 q 137 798 160 798 q 161 831 167 868 q 173 905 185 942 q 197 979 216 1012 q 235 1046 264 1073 q 294 1100 334 1118 q 374 1135 428 1139 q 525 1146 596 1104 q 667 1061 714 986 q 761 910 784 809 q 807 708 808 598 q 808 517 796 434 q 785 351 762 274 q 738 196 704 128 q 670 59 626 6 q 581 -48 527 -82 q 473 -116 410 -124 q 324 -135 256 -106 q 187 -78 136 -22 q 85 35 52 114 q 19 192 6 281 q -14 409 -2 532 q 10 655 74 766 z m 165 679 q 163 689 162 708 q 160 727 159 753 q 142 723 126 672 q 110 622 98 560 q 86 497 80 428 q 74 358 78 289 q 81 214 101 147 q 121 80 158 30 q 194 -21 249 -50 q 304 -80 378 -79 q 423 -78 464 -51 q 505 -24 540 24 q 574 71 602 134 q 629 198 649 272 q 669 347 680 428 q 690 509 691 591 q 692 689 678 782 q 664 876 632 948 q 601 1020 551 1062 q 501 1103 430 1098 q 422 1097 404 1090 q 386 1082 364 1064 q 343 1047 320 1017 q 298 987 282 942 q 266 896 258 832 q 251 768 259 682 q 268 586 292 513 q 317 440 344 390 q 372 339 396 310 q 421 280 431 270 q 437 264 424 259 q 412 254 394 251 q 375 248 358 248 q 341 247 338 250 q 330 259 306 292 q 283 326 256 381 q 228 436 202 511 q 177 586 165 679 z"},"C":{"x_min":0,"x_max":842,"ha":842,"o":"m 520 1177 q 605 1175 664 1138 q 722 1102 758 1048 q 794 994 810 931 q 827 868 828 811 q 829 738 812 678 q 796 618 768 572 q 739 525 703 492 q 667 459 629 438 q 591 418 556 410 q 520 402 494 406 q 491 406 479 420 q 467 435 455 452 q 443 469 437 483 q 431 497 442 496 q 509 493 566 521 q 624 549 666 596 q 708 642 732 700 q 755 759 754 816 q 753 888 737 946 q 721 1005 690 1046 q 660 1086 616 1108 q 572 1130 515 1130 q 444 1130 384 1102 q 325 1074 278 1025 q 230 976 194 910 q 159 845 136 770 q 112 695 100 614 q 89 534 90 455 q 91 361 110 272 q 130 183 169 113 q 208 43 266 0 q 323 -44 400 -46 q 456 -48 510 -34 q 563 -21 611 11 q 659 43 700 96 q 740 149 770 227 q 771 231 779 224 q 787 218 796 208 q 804 198 810 188 q 817 179 816 177 q 813 171 800 150 q 788 128 765 98 q 742 69 708 36 q 675 4 630 -24 q 586 -51 530 -70 q 474 -88 407 -88 q 321 -89 248 -44 q 176 0 122 74 q 68 149 36 247 q 3 345 -3 451 q -8 538 3 626 q 14 714 41 796 q 68 877 111 948 q 154 1018 214 1070 q 274 1122 350 1150 q 426 1179 520 1177 z"},"W":{"x_min":0,"x_max":783,"ha":783,"o":"m 101 1159 q 101 1158 122 1158 q 142 1158 166 1154 q 190 1151 208 1142 q 226 1132 222 1113 q 180 929 158 785 q 136 641 128 532 q 120 422 124 344 q 127 266 137 212 q 147 158 161 126 q 175 93 188 76 q 201 59 210 54 q 220 48 220 48 q 226 46 245 78 q 264 110 288 168 q 311 227 334 308 q 356 390 370 487 q 390 481 406 474 q 420 468 432 460 q 443 452 445 441 q 450 400 455 346 q 460 291 467 232 q 474 173 482 115 q 491 57 502 10 q 513 -38 526 -70 q 539 -102 555 -108 q 563 -111 580 -70 q 598 -28 614 50 q 631 129 641 242 q 651 354 644 492 q 638 631 610 792 q 582 952 522 1128 q 551 1147 574 1161 q 594 1172 611 1180 q 628 1188 630 1182 q 685 1008 712 843 q 739 678 744 531 q 749 384 736 260 q 722 137 696 46 q 671 -46 636 -100 q 602 -154 565 -162 q 539 -168 514 -144 q 489 -120 468 -76 q 446 -33 428 24 q 411 82 400 142 q 388 202 384 260 q 379 317 383 361 q 382 356 374 322 q 365 288 352 242 q 338 196 320 146 q 301 95 280 55 q 258 15 234 -6 q 209 -27 184 -14 q 119 20 81 89 q 43 158 24 248 q 6 337 5 439 q 4 541 12 643 q 20 745 35 838 q 50 932 64 1004 q 79 1075 90 1118 q 101 1160 101 1159 z"},"A":{"x_min":0,"x_max":825,"ha":825,"o":"m 120 691 q 126 696 144 687 q 162 678 179 664 q 196 650 207 636 q 218 623 210 620 q 169 605 146 580 q 124 556 116 528 q 109 500 116 470 q 122 440 139 414 q 156 389 182 370 q 207 350 238 342 q 242 340 246 340 q 250 339 255 338 q 285 429 318 528 q 350 626 382 720 q 414 813 443 897 q 472 981 495 1044 q 518 1107 533 1144 q 548 1182 552 1182 q 560 1183 576 1182 q 591 1182 606 1180 q 621 1178 632 1174 q 644 1170 646 1164 q 646 1164 644 1158 q 647 1147 653 1108 q 659 1068 667 1008 q 675 949 684 873 q 694 797 704 713 q 714 629 724 542 q 735 454 744 372 q 754 289 762 215 q 770 141 776 84 q 782 28 785 -8 q 788 -43 788 -48 q 787 -56 769 -62 q 751 -68 730 -72 q 709 -75 692 -76 q 674 -77 674 -75 q 672 -62 668 -23 q 665 16 660 74 q 655 132 649 204 q 643 277 637 357 q 607 343 570 330 q 532 317 492 306 q 451 296 408 289 q 364 282 322 280 q 301 200 280 112 q 258 24 237 -75 q 235 -84 219 -86 q 203 -88 184 -86 q 164 -84 147 -80 q 130 -77 126 -75 q 125 -74 133 -46 q 141 -19 156 29 q 171 77 192 142 q 213 208 237 283 q 230 284 224 284 q 217 285 210 287 q 173 294 138 314 q 103 335 76 366 q 48 397 32 436 q 16 475 18 518 q 21 560 44 604 q 68 649 120 691 z m 588 1048 q 567 1004 539 940 q 511 875 478 787 q 446 699 410 586 q 373 472 335 330 q 409 328 488 344 q 567 361 635 387 q 628 477 621 570 q 614 664 608 752 q 601 839 596 916 q 591 992 588 1048 z"},"f":{"x_min":0,"x_max":133,"ha":133,"o":"m 178 713 q 183 713 182 704 q 182 694 180 683 q 177 670 172 652 l 93 650 q 91 561 90 464 q 89 368 88 274 q 88 180 88 92 q 88 5 88 -66 q 87 -137 87 -186 q 87 -235 87 -253 q 87 -271 74 -276 q 62 -282 48 -280 q 33 -278 20 -270 q 7 -263 6 -255 q 5 -251 5 -203 q 5 -155 5 -79 q 5 -3 6 92 q 7 188 8 287 q 8 386 8 480 q 9 574 9 648 l -38 647 q -41 647 -44 652 q -46 658 -46 666 q -47 673 -44 680 q -42 687 -34 689 l 9 694 l 9 811 q 7 839 11 876 q 15 913 28 946 q 40 979 64 1002 q 88 1025 126 1025 q 162 1024 185 1006 q 208 988 214 958 q 222 911 225 878 q 228 846 229 835 q 229 830 218 828 q 206 827 192 829 q 177 831 164 836 q 152 842 151 851 q 150 872 150 892 q 150 913 149 930 q 148 946 144 956 q 140 967 132 967 q 124 968 114 965 q 103 962 102 940 q 99 894 98 834 q 96 773 94 703 q 114 705 135 708 q 156 710 178 713 z"},"Q":{"x_min":0,"x_max":859,"ha":859,"o":"m 74 766 q 85 785 111 792 q 137 798 160 798 q 161 831 167 868 q 173 905 185 942 q 197 979 216 1012 q 235 1046 264 1073 q 294 1100 334 1118 q 374 1135 428 1139 q 525 1146 596 1104 q 667 1061 714 986 q 761 910 784 809 q 807 708 808 598 q 808 511 794 422 q 781 333 754 251 q 727 169 688 98 q 649 27 598 -24 q 651 -56 709 -90 q 767 -124 826 -148 q 886 -173 944 -180 q 1001 -188 1054 -167 q 1048 -188 1043 -201 q 1038 -214 1033 -224 q 1028 -235 1022 -246 q 1015 -257 1006 -273 q 980 -285 948 -280 q 916 -275 880 -259 q 844 -243 804 -218 q 765 -193 724 -165 q 684 -137 642 -109 q 601 -81 562 -57 q 528 -84 490 -102 q 452 -119 410 -124 q 324 -135 256 -106 q 187 -78 136 -22 q 85 35 52 114 q 19 192 6 281 q -14 409 -2 532 q 10 655 74 766 z m 397 46 q 421 56 455 46 q 489 35 531 13 q 567 59 596 124 q 626 188 646 264 q 667 339 678 423 q 690 507 691 591 q 692 689 678 782 q 664 876 632 948 q 601 1020 551 1062 q 501 1103 430 1098 q 422 1097 404 1090 q 386 1082 364 1064 q 343 1047 320 1017 q 298 987 282 942 q 266 896 258 832 q 251 768 259 682 q 268 586 292 513 q 317 440 344 390 q 372 339 396 310 q 421 280 431 270 q 437 264 424 259 q 412 254 394 251 q 375 248 358 248 q 341 247 338 250 q 330 259 306 292 q 283 326 256 381 q 228 436 202 511 q 177 586 165 679 q 163 689 162 708 q 160 727 159 753 q 142 723 126 672 q 110 622 98 560 q 86 497 80 428 q 74 358 78 289 q 81 214 101 147 q 121 80 158 30 q 194 -21 249 -50 q 304 -80 378 -79 q 410 -78 440 -64 q 471 -50 498 -24 q 458 -6 422 -1 q 387 4 358 -10 q 354 -10 358 -3 q 362 4 368 13 q 375 22 384 32 q 392 41 397 46 z"},"w":{"x_min":0,"x_max":593,"ha":593,"o":"m 234 412 q 233 420 248 420 q 263 420 282 414 q 301 408 318 396 q 336 384 340 368 q 341 360 340 332 q 339 304 338 268 q 337 231 338 190 q 338 150 342 116 q 347 83 356 61 q 366 39 384 40 q 401 40 415 61 q 429 82 440 115 q 451 148 460 188 q 469 229 475 269 q 450 278 434 306 q 417 334 408 370 q 400 407 400 446 q 400 486 408 520 q 417 553 434 575 q 451 597 477 598 q 496 599 511 588 q 526 576 532 546 q 533 539 534 517 q 534 495 534 462 q 533 429 530 388 q 528 347 523 304 q 555 305 580 326 q 605 347 623 372 q 641 398 652 420 q 662 443 666 448 q 675 459 682 452 q 690 445 690 426 q 690 417 678 390 q 666 364 644 336 q 621 309 589 286 q 557 264 517 263 q 510 214 498 168 q 487 122 470 86 q 453 49 430 26 q 406 3 376 2 q 347 0 326 8 q 304 15 290 30 q 275 44 266 64 q 256 85 251 110 q 233 63 208 34 q 182 4 146 2 q 100 -1 72 30 q 44 61 30 112 q 15 163 10 227 q 5 291 4 354 q 3 417 2 472 q 1 528 -5 562 q -6 569 9 570 q 24 570 43 564 q 62 558 80 546 q 97 534 101 518 q 102 511 102 487 q 102 463 102 428 q 102 393 102 350 q 102 308 103 265 q 104 222 108 181 q 111 140 116 108 q 122 77 132 58 q 141 40 154 40 q 169 41 182 58 q 195 75 206 103 q 217 131 226 166 q 234 201 240 237 q 240 285 240 331 q 240 377 234 412 z m 476 558 q 466 556 459 540 q 452 525 448 501 q 444 477 444 449 q 444 421 448 394 q 452 368 460 346 q 468 324 481 314 q 487 359 490 392 q 492 424 492 429 q 492 437 494 459 q 496 481 496 504 q 496 526 492 543 q 488 560 476 558 z"},"E":{"x_min":0,"x_max":683,"ha":683,"o":"m 381 1149 q 447 1147 496 1134 q 546 1120 582 1098 q 618 1076 642 1049 q 667 1022 682 994 q 718 928 720 846 q 718 836 704 822 q 689 808 671 797 q 653 786 636 780 q 620 775 614 783 q 608 874 580 944 q 568 974 550 1002 q 532 1029 507 1050 q 482 1071 448 1082 q 415 1093 372 1090 q 290 1083 236 1048 q 183 1013 152 960 q 120 906 108 840 q 95 775 97 708 q 98 658 108 608 q 117 558 135 512 q 153 467 180 430 q 208 394 246 372 q 284 349 332 343 q 380 337 439 355 q 444 352 449 344 q 454 336 456 328 q 459 320 459 315 q 459 310 455 313 q 382 305 332 287 q 283 269 252 246 q 220 223 203 198 q 186 172 178 150 q 171 128 170 110 q 168 93 168 87 q 166 66 176 40 q 185 15 204 -8 q 223 -30 250 -46 q 278 -61 312 -62 q 347 -63 382 -54 q 418 -45 450 -24 q 482 -4 508 29 q 533 62 548 110 q 552 115 560 107 q 568 99 576 87 q 583 75 586 62 q 590 49 585 43 q 560 0 527 -30 q 494 -60 456 -78 q 419 -97 379 -105 q 339 -113 300 -113 q 244 -112 200 -94 q 156 -77 125 -50 q 94 -22 76 12 q 59 46 55 80 q 51 120 63 161 q 75 202 100 236 q 126 269 162 292 q 198 315 242 318 q 181 333 134 368 q 86 403 52 452 q 18 502 -1 564 q -20 625 -24 692 q -29 774 -8 856 q 13 939 62 1004 q 110 1070 189 1110 q 268 1151 381 1149 z"},"s":{"x_min":0,"x_max":358,"ha":358,"o":"m 143 576 q 173 579 195 572 q 217 565 233 552 q 249 540 260 524 q 270 508 276 492 q 281 476 283 462 q 285 449 284 442 q 282 428 272 410 q 262 392 250 378 q 238 365 228 360 q 217 356 214 368 q 212 376 214 393 q 215 410 216 430 q 218 450 218 471 q 217 492 211 508 q 205 524 192 534 q 179 543 156 540 q 143 538 136 525 q 129 512 127 494 q 125 477 126 458 q 127 440 131 428 q 140 396 162 368 q 184 340 209 310 q 234 281 256 250 q 278 218 287 179 q 292 160 290 130 q 287 99 271 69 q 255 39 223 17 q 191 -5 138 -7 q 95 -9 65 4 q 35 16 16 38 q -3 59 -12 86 q -22 114 -25 142 q -28 171 -26 198 q -25 224 -21 244 q -15 274 4 289 q 22 304 40 306 q 59 309 71 301 q 83 293 76 278 q 59 244 56 204 q 53 164 61 128 q 69 92 88 66 q 107 41 134 37 q 153 34 168 42 q 184 50 194 64 q 205 79 210 98 q 215 116 213 133 q 209 165 186 199 q 163 233 136 266 q 108 300 82 332 q 55 364 44 393 q 33 421 34 452 q 34 483 46 509 q 59 535 83 554 q 107 572 143 576 z"},"l":{"x_min":0,"x_max":284,"ha":284,"o":"m 182 1000 q 219 1008 242 994 q 264 979 274 950 q 285 920 287 880 q 289 839 285 797 q 281 755 274 714 q 267 674 260 645 q 243 571 220 518 q 198 465 175 428 q 152 391 130 370 q 109 348 93 337 q 91 293 92 246 q 92 198 98 158 q 105 117 118 90 q 132 63 155 61 q 189 57 212 80 q 235 102 251 138 q 267 174 279 216 q 291 258 303 294 q 306 302 313 304 q 320 306 327 304 q 334 301 338 296 q 343 290 341 284 q 322 225 304 172 q 286 119 264 80 q 241 40 210 17 q 180 -6 135 -3 q 103 -1 76 24 q 48 49 29 103 q 10 157 2 244 q -6 331 3 456 q 5 482 10 530 q 15 579 24 637 q 33 695 47 756 q 61 818 80 870 q 100 921 125 957 q 150 993 182 1000 z m 105 462 q 103 453 100 433 q 98 413 96 387 q 109 399 124 420 q 140 440 156 470 q 173 501 189 544 q 205 586 219 642 q 234 700 241 757 q 248 814 248 858 q 248 901 241 926 q 234 951 219 946 q 206 941 194 912 q 182 883 171 840 q 160 797 151 744 q 142 692 134 640 q 126 587 118 540 q 111 494 105 462 z"},"8":{"x_min":0,"x_max":813,"ha":813,"o":"m 584 521 l 493 438 l 517 314 l 410 377 l 300 314 l 326 435 l 234 521 l 358 534 l 410 648 l 460 535 z m 455 384 l 426 556 l 391 556 l 361 384 l 376 375 l 389 384 l 395 423 l 421 423 l 428 384 l 442 375 z m 419 448 l 399 448 l 408 516 z m 407 14 l 421 14 l 416 26 q 415 28 415 30 q 415 31 413 33 q 413 30 411 26 z m 235 -3 l 235 2 l 242 2 l 242 -3 z m 563 -3 l 563 39 l 568 39 l 568 1 l 589 1 l 589 -3 z m 525 -3 l 525 39 l 555 39 l 555 33 l 530 33 l 530 20 l 553 20 l 553 15 l 530 15 l 530 1 l 555 1 l 555 -3 z m 377 -3 l 377 14 l 361 39 l 368 39 l 376 26 q 378 20 380 19 q 381 20 382 22 q 383 24 385 26 l 393 39 l 399 39 l 382 14 l 382 -3 z m 251 -3 l 251 39 l 267 39 q 269 39 270 38 q 272 37 273 37 q 277 36 278 33 q 280 31 280 27 q 280 24 278 23 q 277 19 274 19 q 277 18 280 15 q 282 11 282 9 q 282 7 282 6 q 281 5 281 4 q 280 0 277 0 q 276 -2 275 -2 q 274 -2 273 -3 l 267 -3 z m 137 -3 l 125 39 l 131 39 l 137 11 q 138 8 138 6 q 138 4 139 2 q 140 7 140 10 l 148 39 l 155 39 l 161 17 q 162 12 163 9 q 164 6 164 2 q 165 4 165 6 q 165 8 166 11 l 173 39 l 178 39 l 166 -3 l 161 -3 l 153 28 q 152 31 152 33 q 151 31 151 28 l 142 -3 z m 82 -3 l 70 39 l 77 39 l 82 11 q 82 6 85 2 q 86 7 86 10 l 94 39 l 100 39 l 107 17 q 108 12 108 9 q 109 6 109 2 q 111 4 111 6 q 111 8 112 11 l 118 39 l 124 39 l 112 -3 l 107 -3 l 99 28 q 98 31 98 33 q 96 31 96 28 l 87 -3 z m 256 20 l 265 20 q 269 20 270 22 q 273 22 273 23 q 274 24 274 27 q 274 30 273 31 l 272 31 q 271 31 271 32 q 271 32 270 32 q 269 33 264 33 l 256 33 z m 190 -3 l 179 39 l 185 39 l 191 11 q 192 8 192 6 q 192 4 194 2 q 194 6 194 8 q 195 9 195 10 l 203 39 l 209 39 l 216 17 q 217 12 218 9 q 218 6 218 2 q 220 4 220 6 q 220 8 221 11 l 228 39 l 233 39 l 221 -3 l 216 -3 l 208 28 q 207 31 207 33 q 205 31 205 28 l 196 -3 z m 443 19 l 455 19 q 457 19 458 20 q 460 20 462 20 q 464 20 464 23 q 465 24 465 27 q 465 30 463 32 q 462 33 456 33 l 443 33 z m 256 1 l 267 1 q 269 1 270 2 l 273 2 q 274 4 276 5 l 276 9 q 276 11 274 13 q 274 15 272 15 l 265 15 l 256 15 z m 290 -3 l 290 39 l 295 39 l 295 -3 z m 657 17 q 657 8 660 5 q 664 1 671 1 q 678 1 681 5 q 685 8 685 18 q 685 23 684 26 q 682 31 679 32 q 676 33 671 33 q 665 33 662 30 q 657 26 657 17 z m 651 17 q 651 28 657 33 q 661 39 671 39 q 674 39 676 38 q 679 37 681 36 q 684 35 686 33 q 687 31 689 28 q 690 26 690 18 q 690 9 688 6 q 685 1 681 -2 q 677 -4 671 -4 q 668 -4 666 -4 q 663 -3 660 -2 q 658 0 656 2 q 655 4 654 6 q 653 9 652 12 q 651 14 651 17 z m 395 -3 l 411 39 l 417 39 l 434 -3 l 428 -3 l 423 9 l 406 9 l 400 -3 z m 306 -3 l 306 39 l 311 39 l 311 1 l 330 1 l 330 -3 z m 595 -3 l 595 2 l 602 2 l 602 -3 z m 499 13 l 499 18 l 516 18 l 516 2 q 512 -2 508 -3 q 506 -3 504 -4 q 501 -4 499 -4 q 493 -4 489 -2 q 486 0 484 2 q 482 3 481 6 q 480 9 479 12 q 478 14 478 17 q 478 21 479 23 q 480 25 481 28 q 483 34 488 36 q 490 37 493 38 q 496 39 499 39 q 504 39 507 37 q 511 36 512 33 q 515 30 516 27 l 511 26 q 511 27 508 30 q 508 32 504 33 l 499 33 l 493 33 q 490 32 488 30 q 488 29 485 26 q 485 24 484 22 q 484 20 484 18 q 484 11 486 9 q 490 3 491 2 q 494 1 499 1 q 503 1 506 2 q 508 4 509 4 q 510 4 511 5 l 511 13 z m 438 -3 l 438 39 l 456 39 q 459 39 461 38 q 463 37 465 37 q 468 36 469 33 q 471 31 471 27 q 471 22 468 19 q 467 18 464 18 q 462 17 459 15 q 461 15 462 14 q 462 14 463 14 q 464 12 464 10 q 465 9 467 7 l 475 -3 l 468 -3 l 462 5 q 460 7 460 8 q 459 10 458 11 q 458 13 457 13 q 456 13 455 14 l 454 14 q 453 14 453 14 q 453 15 452 15 l 450 15 l 443 15 l 443 -3 z m 337 -3 l 337 39 l 343 39 l 343 1 l 363 1 l 363 -3 z m 641 11 l 646 10 q 644 2 640 0 q 636 -4 629 -4 q 623 -4 619 -2 q 616 0 615 2 q 614 4 612 6 q 610 14 610 18 q 610 22 612 30 q 617 35 619 36 q 622 37 624 38 q 626 39 629 39 q 632 39 635 38 q 638 37 640 36 q 642 34 644 32 q 645 30 646 27 l 640 26 q 640 30 636 32 q 634 33 629 33 q 623 33 621 32 q 619 31 618 30 q 618 28 616 26 q 616 24 616 22 q 615 20 615 18 q 615 12 618 9 q 618 7 619 6 q 620 4 621 2 q 624 1 629 1 q 634 1 637 4 q 640 7 641 11 z m 698 -3 l 698 39 l 706 39 l 716 9 q 716 7 717 6 q 718 4 718 2 q 718 3 720 9 l 729 39 l 737 39 l 737 -3 l 732 -3 l 732 31 l 720 -3 l 715 -3 l 703 32 l 703 -3 z m 407 14 l 421 14 l 416 26 q 415 28 415 30 q 415 31 413 33 q 413 30 411 26 z m 235 -3 l 235 2 l 242 2 l 242 -3 z m 563 -3 l 563 39 l 568 39 l 568 1 l 589 1 l 589 -3 z m 525 -3 l 525 39 l 555 39 l 555 33 l 530 33 l 530 20 l 553 20 l 553 15 l 530 15 l 530 1 l 555 1 l 555 -3 z m 377 -3 l 377 14 l 361 39 l 368 39 l 376 26 q 378 20 380 19 q 381 20 382 22 q 383 24 385 26 l 393 39 l 399 39 l 382 14 l 382 -3 z m 251 -3 l 251 39 l 267 39 q 269 39 270 38 q 272 37 273 37 q 277 36 278 33 q 280 31 280 27 q 280 24 278 23 q 277 19 274 19 q 277 18 280 15 q 282 11 282 9 q 282 7 282 6 q 281 5 281 4 q 280 0 277 0 q 276 -2 275 -2 q 274 -2 273 -3 l 267 -3 z m 137 -3 l 125 39 l 131 39 l 137 11 q 138 8 138 6 q 138 4 139 2 q 140 7 140 10 l 148 39 l 155 39 l 161 17 q 162 12 163 9 q 164 6 164 2 q 165 4 165 6 q 165 8 166 11 l 173 39 l 178 39 l 166 -3 l 161 -3 l 153 28 q 152 31 152 33 q 151 31 151 28 l 142 -3 z m 82 -3 l 70 39 l 77 39 l 82 11 q 82 6 85 2 q 86 7 86 10 l 94 39 l 100 39 l 107 17 q 108 12 108 9 q 109 6 109 2 q 111 4 111 6 q 111 8 112 11 l 118 39 l 124 39 l 112 -3 l 107 -3 l 99 28 q 98 31 98 33 q 96 31 96 28 l 87 -3 z m 256 20 l 265 20 q 269 20 270 22 q 273 22 273 23 q 274 24 274 27 q 274 30 273 31 l 272 31 q 271 31 271 32 q 271 32 270 32 q 269 33 264 33 l 256 33 z m 190 -3 l 179 39 l 185 39 l 191 11 q 192 8 192 6 q 192 4 194 2 q 194 6 194 8 q 195 9 195 10 l 203 39 l 209 39 l 216 17 q 217 12 218 9 q 218 6 218 2 q 220 4 220 6 q 220 8 221 11 l 228 39 l 233 39 l 221 -3 l 216 -3 l 208 28 q 207 31 207 33 q 205 31 205 28 l 196 -3 z m 443 19 l 455 19 q 457 19 458 20 q 460 20 462 20 q 464 20 464 23 q 465 24 465 27 q 465 30 463 32 q 462 33 456 33 l 443 33 z m 256 1 l 267 1 q 269 1 270 2 l 273 2 q 274 4 276 5 l 276 9 q 276 11 274 13 q 274 15 272 15 l 265 15 l 256 15 z m 290 -3 l 290 39 l 295 39 l 295 -3 z m 657 17 q 657 8 660 5 q 664 1 671 1 q 678 1 681 5 q 685 8 685 18 q 685 23 684 26 q 682 31 679 32 q 676 33 671 33 q 665 33 662 30 q 657 26 657 17 z m 651 17 q 651 28 657 33 q 661 39 671 39 q 674 39 676 38 q 679 37 681 36 q 684 35 686 33 q 687 31 689 28 q 690 26 690 18 q 690 9 688 6 q 685 1 681 -2 q 677 -4 671 -4 q 668 -4 666 -4 q 663 -3 660 -2 q 658 0 656 2 q 655 4 654 6 q 653 9 652 12 q 651 14 651 17 z m 395 -3 l 411 39 l 417 39 l 434 -3 l 428 -3 l 423 9 l 406 9 l 400 -3 z m 306 -3 l 306 39 l 311 39 l 311 1 l 330 1 l 330 -3 z m 595 -3 l 595 2 l 602 2 l 602 -3 z m 499 13 l 499 18 l 516 18 l 516 2 q 512 -2 508 -3 q 506 -3 504 -4 q 501 -4 499 -4 q 493 -4 489 -2 q 486 0 484 2 q 482 3 481 6 q 480 9 479 12 q 478 14 478 17 q 478 21 479 23 q 480 25 481 28 q 483 34 488 36 q 490 37 493 38 q 496 39 499 39 q 504 39 507 37 q 511 36 512 33 q 515 30 516 27 l 511 26 q 511 27 508 30 q 508 32 504 33 l 499 33 l 493 33 q 490 32 488 30 q 488 29 485 26 q 485 24 484 22 q 484 20 484 18 q 484 11 486 9 q 490 3 491 2 q 494 1 499 1 q 503 1 506 2 q 508 4 509 4 q 510 4 511 5 l 511 13 z m 438 -3 l 438 39 l 456 39 q 459 39 461 38 q 463 37 465 37 q 468 36 469 33 q 471 31 471 27 q 471 22 468 19 q 467 18 464 18 q 462 17 459 15 q 461 15 462 14 q 462 14 463 14 q 464 12 464 10 q 465 9 467 7 l 475 -3 l 468 -3 l 462 5 q 460 7 460 8 q 459 10 458 11 q 458 13 457 13 q 456 13 455 14 l 454 14 q 453 14 453 14 q 453 15 452 15 l 450 15 l 443 15 l 443 -3 z m 337 -3 l 337 39 l 343 39 l 343 1 l 363 1 l 363 -3 z m 641 11 l 646 10 q 644 2 640 0 q 636 -4 629 -4 q 623 -4 619 -2 q 616 0 615 2 q 614 4 612 6 q 610 14 610 18 q 610 22 612 30 q 617 35 619 36 q 622 37 624 38 q 626 39 629 39 q 632 39 635 38 q 638 37 640 36 q 642 34 644 32 q 645 30 646 27 l 640 26 q 640 30 636 32 q 634 33 629 33 q 623 33 621 32 q 619 31 618 30 q 618 28 616 26 q 616 24 616 22 q 615 20 615 18 q 615 12 618 9 q 618 7 619 6 q 620 4 621 2 q 624 1 629 1 q 634 1 637 4 q 640 7 641 11 z m 698 -3 l 698 39 l 706 39 l 716 9 q 716 7 717 6 q 718 4 718 2 q 718 3 720 9 l 729 39 l 737 39 l 737 -3 l 732 -3 l 732 31 l 720 -3 l 715 -3 l 703 32 l 703 -3 z m 407 14 l 421 14 l 416 26 q 415 28 415 30 q 415 31 413 33 q 413 30 411 26 z m 235 -3 l 235 2 l 242 2 l 242 -3 z m 563 -3 l 563 39 l 568 39 l 568 1 l 589 1 l 589 -3 z m 525 -3 l 525 39 l 555 39 l 555 33 l 530 33 l 530 20 l 553 20 l 553 15 l 530 15 l 530 1 l 555 1 l 555 -3 z m 377 -3 l 377 14 l 361 39 l 368 39 l 376 26 q 378 20 380 19 q 381 20 382 22 q 383 24 385 26 l 393 39 l 399 39 l 382 14 l 382 -3 z m 251 -3 l 251 39 l 267 39 q 269 39 270 38 q 272 37 273 37 q 277 36 278 33 q 280 31 280 27 q 280 24 278 23 q 277 19 274 19 q 277 18 280 15 q 282 11 282 9 q 282 7 282 6 q 281 5 281 4 q 280 0 277 0 q 276 -2 275 -2 q 274 -2 273 -3 l 267 -3 z m 137 -3 l 125 39 l 131 39 l 137 11 q 138 8 138 6 q 138 4 139 2 q 140 7 140 10 l 148 39 l 155 39 l 161 17 q 162 12 163 9 q 164 6 164 2 q 165 4 165 6 q 165 8 166 11 l 173 39 l 178 39 l 166 -3 l 161 -3 l 153 28 q 152 31 152 33 q 151 31 151 28 l 142 -3 z m 82 -3 l 70 39 l 77 39 l 82 11 q 82 6 85 2 q 86 7 86 10 l 94 39 l 100 39 l 107 17 q 108 12 108 9 q 109 6 109 2 q 111 4 111 6 q 111 8 112 11 l 118 39 l 124 39 l 112 -3 l 107 -3 l 99 28 q 98 31 98 33 q 96 31 96 28 l 87 -3 z m 256 20 l 265 20 q 269 20 270 22 q 273 22 273 23 q 274 24 274 27 q 274 30 273 31 l 272 31 q 271 31 271 32 q 271 32 270 32 q 269 33 264 33 l 256 33 z m 190 -3 l 179 39 l 185 39 l 191 11 q 192 8 192 6 q 192 4 194 2 q 194 6 194 8 q 195 9 195 10 l 203 39 l 209 39 l 216 17 q 217 12 218 9 q 218 6 218 2 q 220 4 220 6 q 220 8 221 11 l 228 39 l 233 39 l 221 -3 l 216 -3 l 208 28 q 207 31 207 33 q 205 31 205 28 l 196 -3 z m 443 19 l 455 19 q 457 19 458 20 q 460 20 462 20 q 464 20 464 23 q 465 24 465 27 q 465 30 463 32 q 462 33 456 33 l 443 33 z m 256 1 l 267 1 q 269 1 270 2 l 273 2 q 274 4 276 5 l 276 9 q 276 11 274 13 q 274 15 272 15 l 265 15 l 256 15 z m 290 -3 l 290 39 l 295 39 l 295 -3 z m 657 17 q 657 8 660 5 q 664 1 671 1 q 678 1 681 5 q 685 8 685 18 q 685 23 684 26 q 682 31 679 32 q 676 33 671 33 q 665 33 662 30 q 657 26 657 17 z m 651 17 q 651 28 657 33 q 661 39 671 39 q 674 39 676 38 q 679 37 681 36 q 684 35 686 33 q 687 31 689 28 q 690 26 690 18 q 690 9 688 6 q 685 1 681 -2 q 677 -4 671 -4 q 668 -4 666 -4 q 663 -3 660 -2 q 658 0 656 2 q 655 4 654 6 q 653 9 652 12 q 651 14 651 17 z m 395 -3 l 411 39 l 417 39 l 434 -3 l 428 -3 l 423 9 l 406 9 l 400 -3 z m 306 -3 l 306 39 l 311 39 l 311 1 l 330 1 l 330 -3 z m 595 -3 l 595 2 l 602 2 l 602 -3 z m 499 13 l 499 18 l 516 18 l 516 2 q 512 -2 508 -3 q 506 -3 504 -4 q 501 -4 499 -4 q 493 -4 489 -2 q 486 0 484 2 q 482 3 481 6 q 480 9 479 12 q 478 14 478 17 q 478 21 479 23 q 480 25 481 28 q 483 34 488 36 q 490 37 493 38 q 496 39 499 39 q 504 39 507 37 q 511 36 512 33 q 515 30 516 27 l 511 26 q 511 27 508 30 q 508 32 504 33 l 499 33 l 493 33 q 490 32 488 30 q 488 29 485 26 q 485 24 484 22 q 484 20 484 18 q 484 11 486 9 q 490 3 491 2 q 494 1 499 1 q 503 1 506 2 q 508 4 509 4 q 510 4 511 5 l 511 13 z m 438 -3 l 438 39 l 456 39 q 459 39 461 38 q 463 37 465 37 q 468 36 469 33 q 471 31 471 27 q 471 22 468 19 q 467 18 464 18 q 462 17 459 15 q 461 15 462 14 q 462 14 463 14 q 464 12 464 10 q 465 9 467 7 l 475 -3 l 468 -3 l 462 5 q 460 7 460 8 q 459 10 458 11 q 458 13 457 13 q 456 13 455 14 l 454 14 q 453 14 453 14 q 453 15 452 15 l 450 15 l 443 15 l 443 -3 z m 337 -3 l 337 39 l 343 39 l 343 1 l 363 1 l 363 -3 z m 641 11 l 646 10 q 644 2 640 0 q 636 -4 629 -4 q 623 -4 619 -2 q 616 0 615 2 q 614 4 612 6 q 610 14 610 18 q 610 22 612 30 q 617 35 619 36 q 622 37 624 38 q 626 39 629 39 q 632 39 635 38 q 638 37 640 36 q 642 34 644 32 q 645 30 646 27 l 640 26 q 640 30 636 32 q 634 33 629 33 q 623 33 621 32 q 619 31 618 30 q 618 28 616 26 q 616 24 616 22 q 615 20 615 18 q 615 12 618 9 q 618 7 619 6 q 620 4 621 2 q 624 1 629 1 q 634 1 637 4 q 640 7 641 11 z m 698 -3 l 698 39 l 706 39 l 716 9 q 716 7 717 6 q 718 4 718 2 q 718 3 720 9 l 729 39 l 737 39 l 737 -3 l 732 -3 l 732 31 l 720 -3 l 715 -3 l 703 32 l 703 -3 z m 117 74 l 125 71 q 123 62 116 56 q 108 50 99 50 q 90 50 82 54 q 74 60 73 66 q 69 73 69 83 q 69 94 73 101 q 76 108 83 111 q 90 115 99 115 q 110 115 114 110 q 121 108 124 97 l 116 96 q 112 104 109 105 q 105 109 99 109 q 91 109 87 105 q 81 101 79 96 q 78 92 78 83 q 78 74 81 70 q 83 63 87 61 q 92 57 98 57 q 106 57 111 62 q 113 64 114 67 q 116 70 117 74 z m 133 82 q 133 90 135 96 q 137 102 142 106 q 146 111 152 113 q 157 115 163 115 q 172 115 179 111 q 185 108 190 100 q 194 90 194 83 q 194 78 193 74 q 192 70 190 66 q 185 58 178 54 q 170 50 163 50 q 158 50 154 51 q 151 52 147 54 q 140 58 137 66 q 133 73 133 82 z m 142 82 q 142 70 147 63 q 154 57 163 57 q 173 57 178 65 q 185 72 185 83 q 185 87 184 90 q 183 93 182 96 q 180 103 174 105 q 171 109 163 109 q 155 109 148 102 q 142 97 142 82 z m 204 52 l 204 114 l 216 114 l 231 70 q 234 64 234 61 q 236 63 238 71 l 254 114 l 264 114 l 264 52 l 256 52 l 256 104 l 238 52 l 230 52 l 212 105 l 212 52 z m 278 52 l 278 114 l 302 114 l 311 114 q 316 114 319 111 q 320 110 324 105 q 325 103 326 101 q 326 99 326 96 q 326 90 321 83 q 316 78 302 78 l 286 78 l 286 52 z m 286 84 l 303 84 q 312 84 313 88 q 317 89 317 96 q 317 101 316 102 q 312 106 309 106 q 308 108 302 108 l 286 108 z m 337 52 l 337 114 l 345 114 l 345 58 l 376 58 l 376 52 z m 386 52 l 386 114 l 432 114 l 432 108 l 394 108 l 394 88 l 429 88 l 429 80 l 394 80 l 394 58 l 433 58 l 433 52 z m 460 52 l 460 108 l 439 108 l 439 114 l 490 114 l 490 108 l 469 108 l 469 52 z m 499 52 l 499 114 l 545 114 l 545 108 l 507 108 l 507 88 l 542 88 l 542 80 l 507 80 l 507 58 l 546 58 l 546 52 z m 580 71 l 588 72 q 588 67 590 65 q 592 61 597 59 q 599 58 606 58 q 608 58 610 58 q 613 58 615 59 q 618 59 620 63 q 621 65 621 69 q 621 72 620 74 q 619 75 618 76 q 616 76 614 78 q 613 78 603 80 q 598 82 595 82 q 592 83 590 84 q 586 86 584 91 q 582 92 582 94 q 581 96 581 98 q 581 104 585 108 q 586 110 588 111 q 590 112 593 114 q 595 115 605 115 q 612 115 616 113 q 619 111 621 110 q 623 109 624 106 q 628 103 628 97 l 620 96 q 618 104 615 105 q 612 108 605 108 q 595 108 593 105 q 590 102 590 98 q 590 95 593 93 q 593 93 605 88 q 610 87 614 86 q 617 85 619 84 q 622 83 624 82 q 625 80 627 78 q 629 75 629 69 q 629 62 627 59 q 623 55 619 53 q 616 52 613 51 q 610 50 606 50 q 602 50 598 51 q 594 52 592 53 q 587 54 582 61 q 580 65 580 71 z m 641 52 l 641 114 l 686 114 l 686 108 l 650 108 l 650 88 l 685 88 l 685 80 l 650 80 l 650 58 l 688 58 l 688 52 z m 716 52 l 716 108 l 696 108 l 696 114 l 745 114 l 745 108 l 724 108 l 724 52 z m 75 127 l 75 189 l 100 189 l 109 189 q 111 189 117 187 q 118 186 120 184 q 121 182 122 180 q 124 178 124 173 q 124 164 118 158 q 115 153 100 153 l 85 153 l 85 127 z m 85 161 l 100 161 q 109 161 112 163 q 116 167 116 171 q 116 173 115 175 q 114 177 113 179 q 110 182 108 182 q 107 183 100 183 l 85 183 z m 134 127 l 134 189 l 179 189 l 179 183 l 143 183 l 143 163 l 177 163 l 177 156 l 143 156 l 143 135 l 181 135 l 181 127 z m 192 127 l 192 189 l 221 189 q 230 189 234 188 q 239 186 241 183 q 243 175 243 173 q 243 166 239 162 q 235 158 225 156 q 227 154 228 154 q 229 154 230 153 q 235 148 237 144 l 248 127 l 238 127 l 229 140 q 228 143 226 145 q 225 147 224 149 q 222 150 222 152 q 221 153 220 153 q 218 154 216 154 q 215 156 211 156 l 202 156 l 202 127 z m 202 162 l 218 162 q 226 162 228 163 q 231 166 233 167 q 234 169 234 173 q 234 177 231 180 q 228 183 221 183 l 202 183 z m 254 148 l 261 148 q 261 146 262 144 q 263 142 264 140 q 265 139 266 138 q 268 136 270 136 q 276 134 280 134 q 282 134 284 134 q 286 134 287 135 q 293 137 294 139 q 294 140 294 142 q 295 143 295 144 q 295 148 294 149 q 291 151 287 153 q 286 154 284 154 q 281 154 277 156 q 268 157 264 160 q 259 164 257 166 q 256 169 256 174 q 256 176 256 178 q 257 181 259 183 q 260 187 267 189 q 269 191 278 191 q 286 191 290 189 q 296 186 298 182 q 302 176 302 173 l 294 171 q 292 178 289 180 q 285 184 278 184 q 270 184 267 180 q 264 178 264 174 q 264 170 267 169 q 268 167 278 165 q 287 161 293 161 q 295 159 297 158 q 299 156 300 154 q 303 151 303 145 q 303 140 300 136 q 298 133 296 132 q 295 130 293 128 q 285 126 280 126 q 273 126 265 128 q 262 130 260 132 q 258 133 256 136 q 255 139 254 142 q 254 144 254 148 z m 312 158 q 312 172 320 182 q 329 191 342 191 q 346 191 350 190 q 353 189 358 187 q 362 185 364 182 q 366 179 368 175 q 372 168 372 158 q 372 149 368 141 q 364 134 358 130 q 350 126 342 126 q 333 126 326 131 q 317 136 316 143 q 312 148 312 158 z m 320 158 q 320 146 326 140 q 332 134 342 134 q 352 134 358 140 q 363 147 363 158 q 363 162 362 166 q 362 170 360 173 q 357 178 354 180 q 349 184 342 184 q 337 184 334 182 q 331 181 326 178 q 320 172 320 158 z m 382 127 l 382 189 l 391 189 l 424 141 l 424 189 l 432 189 l 432 127 l 424 127 l 390 176 l 390 127 z m 439 127 l 463 189 l 472 189 l 498 127 l 488 127 l 481 147 l 455 147 l 447 127 z m 456 153 l 478 153 l 472 170 q 470 174 469 178 q 468 181 467 183 q 467 180 466 177 q 465 174 464 171 z m 503 127 l 503 189 l 512 189 l 512 135 l 543 135 l 543 127 z m 615 189 l 623 189 l 623 154 q 623 143 621 139 q 619 133 614 130 q 609 126 599 126 q 589 126 585 130 q 582 131 580 134 q 578 136 576 139 q 575 141 575 154 l 575 189 l 582 189 l 582 154 q 582 144 584 141 q 586 137 589 136 q 591 135 593 134 q 595 134 598 134 q 606 134 611 137 q 615 141 615 154 z m 634 148 l 642 148 q 642 146 643 144 q 644 142 645 140 q 646 139 648 138 q 649 136 651 136 q 657 134 660 134 q 667 134 670 135 q 672 136 675 139 q 676 140 676 144 q 676 148 675 149 q 673 150 672 151 q 672 152 670 153 q 668 154 665 154 q 662 154 658 156 q 654 157 650 158 q 647 158 646 160 q 641 162 640 166 q 637 169 637 174 q 637 178 640 183 q 641 187 647 189 q 651 191 659 191 q 662 191 666 191 q 669 191 671 189 q 677 186 680 182 q 681 180 682 178 q 683 175 683 173 l 675 171 q 673 174 672 176 q 672 179 670 180 q 667 184 659 184 q 650 184 649 180 q 645 179 645 174 q 645 171 647 169 q 649 167 659 165 q 670 161 673 161 q 676 159 678 158 q 680 156 681 154 q 684 152 684 145 q 684 139 681 136 q 679 133 678 132 q 676 130 673 128 q 667 126 662 126 q 657 126 654 126 q 650 127 647 128 q 645 130 642 132 q 640 133 638 136 q 636 139 635 142 q 634 144 634 148 z m 696 127 l 696 189 l 741 189 l 741 183 l 705 183 l 705 163 l 738 163 l 738 156 l 705 156 l 705 135 l 742 135 l 742 127 z m 205 259 q 205 269 190 271 q 188 271 185 272 q 182 272 178 272 l 172 265 l 156 248 q 152 243 148 239 q 145 235 140 232 q 146 230 155 229 q 157 229 160 229 q 164 229 167 230 q 182 231 190 238 q 205 250 205 259 z m 216 289 q 216 293 211 293 q 209 293 194 288 l 183 278 q 181 276 179 272 l 196 275 q 200 275 207 280 q 216 286 216 289 z m 229 307 q 229 305 226 305 q 224 305 224 306 q 223 306 221 306 q 211 304 198 291 q 200 293 202 294 q 205 295 207 296 q 214 297 220 296 q 224 296 224 291 l 224 287 q 219 278 196 273 q 214 271 214 261 q 214 249 195 236 q 188 232 180 230 q 173 227 165 226 q 152 223 145 224 q 139 224 132 227 q 126 223 121 223 l 119 223 q 113 225 109 226 l 112 226 q 120 226 125 230 l 125 231 q 118 227 110 227 q 99 227 93 233 q 83 240 83 254 q 83 258 84 262 q 85 265 87 270 q 94 285 111 296 q 116 301 122 302 q 127 304 132 305 q 143 305 147 301 q 142 304 137 304 q 131 304 124 300 q 114 296 113 294 q 103 289 93 277 q 84 263 84 253 q 84 248 85 245 q 86 242 88 239 q 92 233 99 231 q 102 230 104 230 q 106 229 108 229 q 112 229 115 230 q 118 231 122 233 q 111 241 111 255 q 113 268 127 278 l 125 275 q 123 275 121 271 q 115 265 115 258 q 115 245 130 236 q 138 241 138 242 q 140 245 142 247 q 144 249 146 251 q 148 253 148 256 q 149 259 151 262 l 151 261 q 151 256 150 253 l 162 267 q 193 302 213 308 q 204 311 199 311 q 186 310 171 302 q 153 293 153 280 q 153 276 156 273 q 157 272 157 271 q 151 275 151 281 q 151 292 164 303 q 180 315 198 313 q 204 313 216 309 l 220 309 q 225 309 228 307 z m 231 242 q 230 238 223 231 q 216 227 211 227 q 206 227 206 233 q 206 238 212 246 l 211 246 q 210 245 207 245 q 207 245 206 246 q 209 246 216 253 l 217 253 l 220 257 q 223 260 223 262 l 226 262 q 229 262 229 261 q 229 257 223 250 l 216 243 q 210 234 210 231 q 210 228 214 228 q 219 228 226 238 q 227 239 228 240 q 229 240 231 242 z m 236 270 q 232 264 226 264 q 223 264 219 267 l 222 267 q 229 267 231 274 l 231 276 l 236 274 q 237 273 236 270 z m 271 289 q 271 284 240 247 l 239 247 q 230 236 230 230 q 230 227 233 227 q 239 227 246 237 q 247 238 248 238 q 249 239 250 241 q 250 236 242 230 q 237 226 231 226 q 225 227 225 232 q 224 237 245 263 l 257 278 l 263 284 q 266 288 268 294 q 271 292 271 289 z m 288 289 q 288 285 256 247 q 246 235 246 230 q 246 227 250 227 q 254 227 263 237 l 267 241 q 266 236 258 230 q 253 226 247 226 q 241 227 241 232 q 241 238 261 263 l 273 278 l 279 284 q 284 290 285 294 q 288 292 288 289 z m 269 222 q 253 219 244 210 q 237 201 237 199 q 237 195 241 195 q 242 194 248 196 q 250 198 252 200 q 255 203 258 206 z m 298 287 q 296 273 285 262 q 285 261 284 261 q 284 261 284 260 q 281 256 278 252 q 274 249 271 244 q 269 242 269 240 q 268 242 270 246 q 264 237 264 232 q 264 229 267 229 q 268 229 272 231 q 287 243 293 265 l 293 262 l 293 259 q 295 257 295 254 q 295 252 290 244 l 282 231 l 273 219 q 276 221 284 225 l 283 224 q 281 222 278 220 q 274 217 271 212 l 263 202 l 259 197 q 253 191 246 189 q 240 189 237 193 q 231 195 235 202 q 236 203 237 205 q 238 207 240 209 l 241 210 l 234 209 q 251 221 262 222 q 263 222 264 222 q 265 223 266 223 l 267 223 l 269 223 l 275 232 q 271 228 268 228 q 265 227 263 227 q 258 227 258 232 q 258 244 279 263 l 281 264 l 291 274 q 293 278 295 281 q 297 284 298 287 z m 412 302 q 406 304 402 304 q 392 304 384 302 q 375 299 366 294 q 362 292 360 290 q 357 287 354 285 q 366 284 386 272 q 408 294 424 300 z m 433 298 q 429 297 424 296 q 420 294 415 289 q 412 287 400 275 l 393 268 l 403 262 q 405 265 409 270 q 413 274 418 280 z m 442 315 q 442 314 441 313 q 441 306 438 299 l 439 298 l 438 298 q 433 286 425 278 l 409 259 q 411 258 412 258 q 413 258 415 257 q 415 255 414 255 q 412 255 411 256 q 410 256 408 257 q 396 244 395 233 q 393 229 393 227 q 393 223 397 223 q 405 223 414 236 l 418 242 q 428 256 431 267 l 431 270 q 431 269 432 268 l 432 267 q 430 253 422 241 l 409 215 q 409 219 412 228 q 400 219 394 219 q 385 219 387 231 q 387 237 391 244 q 395 252 401 261 l 391 266 l 382 257 q 379 253 374 247 q 368 241 360 231 q 344 215 332 215 l 329 215 q 326 215 320 218 q 320 218 322 218 q 331 216 340 225 q 332 221 321 221 q 310 221 303 226 l 304 226 q 294 233 294 247 q 294 257 298 262 q 304 278 321 289 q 327 294 332 296 q 338 297 344 298 q 354 298 358 294 l 357 294 q 355 296 348 296 q 338 296 323 287 q 312 279 304 270 q 295 256 295 245 q 295 229 310 224 q 316 222 319 222 q 340 223 365 250 l 384 270 q 369 279 350 279 l 349 279 q 347 275 347 270 q 348 270 352 264 q 345 268 345 274 q 345 277 346 279 q 336 277 333 275 q 315 268 317 254 q 317 245 323 238 l 325 236 q 313 248 313 257 q 313 270 325 279 q 335 286 350 286 q 364 302 385 305 q 390 306 401 306 q 406 306 416 304 l 428 301 l 434 301 l 435 300 q 439 307 441 317 l 442 317 z m 455 250 q 455 247 454 245 q 449 240 446 236 q 442 232 439 227 l 440 227 l 441 227 q 440 226 439 226 q 438 226 438 225 q 433 225 433 227 q 433 231 442 240 q 449 249 449 251 q 450 254 446 257 q 434 240 425 236 l 421 234 l 419 235 q 423 235 432 245 q 441 253 444 258 q 444 259 444 259 q 443 259 443 260 q 443 261 450 267 q 450 268 451 268 l 452 267 q 452 266 447 259 q 455 256 455 250 z m 484 253 q 484 259 480 257 q 476 257 474 255 q 471 253 465 245 q 459 237 459 232 q 458 230 461 230 q 467 232 471 237 q 475 245 475 248 q 475 250 474 250 q 478 250 478 245 l 477 243 q 479 245 480 248 q 482 250 484 252 z m 503 262 q 499 262 494 257 q 490 252 486 246 q 482 240 477 232 q 472 222 468 216 q 464 211 463 209 q 450 193 443 193 q 437 192 434 197 q 434 202 434 202 q 434 207 438 211 q 436 210 433 210 q 443 220 455 223 q 456 223 456 224 q 457 224 459 224 l 460 223 q 441 217 437 205 q 436 203 436 200 q 436 199 437 198 q 437 197 438 197 q 446 196 457 212 l 464 222 l 468 228 q 465 227 463 227 q 455 227 455 235 q 455 244 468 256 q 474 262 479 262 q 486 262 486 254 l 487 254 l 492 260 q 497 265 501 265 q 504 265 506 262 z m 521 255 q 521 249 510 243 q 509 242 508 242 l 507 242 q 504 242 501 247 q 503 245 506 245 q 513 249 515 256 l 515 258 l 515 259 l 515 260 q 511 260 502 251 l 502 250 q 499 246 498 244 q 498 241 498 239 q 497 240 497 245 q 495 241 494 238 q 492 234 492 231 q 492 230 493 229 q 493 227 497 227 q 507 231 514 237 q 516 239 519 241 q 517 238 515 236 q 513 233 508 230 q 500 225 494 227 q 494 226 493 227 q 487 227 487 233 q 487 243 498 253 q 504 262 514 262 q 516 262 517 261 q 521 258 521 255 z m 561 289 q 561 285 529 247 q 520 236 520 230 q 520 227 523 227 q 529 227 536 237 q 537 238 538 238 q 539 239 540 241 q 540 236 532 230 q 527 226 520 226 q 515 228 515 232 q 515 240 534 263 l 546 278 l 552 284 q 558 290 558 294 q 561 292 561 289 z m 615 258 q 598 264 597 277 q 592 274 587 272 q 582 269 579 266 q 560 248 560 233 q 560 227 563 226 l 565 226 l 567 226 q 582 226 595 236 q 599 240 604 245 q 610 250 615 258 z m 635 287 l 627 287 q 615 286 598 278 q 600 264 617 261 l 624 270 z m 653 305 q 640 305 630 303 q 619 301 611 296 q 616 301 624 304 q 631 307 640 309 q 620 310 605 297 q 602 295 598 287 q 605 289 612 290 q 618 291 626 290 q 628 290 631 290 q 634 290 639 289 q 641 292 644 296 q 648 300 653 305 z m 716 306 q 714 303 712 300 q 709 298 704 296 q 696 291 689 291 l 687 291 q 686 291 685 292 q 686 293 686 294 q 686 295 688 297 q 679 304 663 304 l 659 299 l 649 287 q 657 286 664 285 q 671 284 677 284 q 691 284 696 287 q 692 283 681 281 q 672 279 663 282 l 647 285 q 643 280 640 276 q 636 273 634 269 l 627 259 l 632 259 q 657 261 661 271 l 662 271 q 659 265 649 260 q 644 258 640 257 q 635 256 631 256 l 626 256 q 619 248 614 242 q 610 236 606 232 q 593 218 582 218 q 577 219 571 219 q 581 219 592 229 q 578 223 570 223 l 564 224 l 572 216 q 564 220 559 225 q 558 225 554 227 q 542 236 541 250 q 541 255 541 259 q 541 263 543 267 q 546 276 551 282 q 556 289 563 296 q 580 311 593 311 q 600 311 605 307 l 604 306 q 601 309 595 309 q 582 307 568 296 q 556 286 550 276 q 542 262 542 250 q 544 232 558 227 q 556 233 557 239 q 559 254 568 265 q 579 279 598 287 q 600 289 600 293 l 609 302 q 622 313 643 313 q 648 313 652 313 q 655 313 660 312 l 661 312 q 668 317 674 320 q 679 322 685 321 q 689 321 691 319 q 680 317 680 317 q 678 316 676 315 q 673 314 670 312 q 674 311 678 310 q 682 310 687 308 q 697 305 703 305 q 712 305 716 306 z m 655 236 q 652 239 652 243 q 652 245 652 246 q 653 248 653 250 q 643 237 644 231 q 644 229 646 229 q 648 229 655 236 z m 668 257 q 668 259 666 259 q 664 259 662 258 q 661 257 659 253 q 654 243 654 240 q 654 237 655 236 l 658 239 l 658 240 l 658 239 q 659 240 659 240 q 659 241 660 242 q 662 248 662 250 q 662 251 661 252 q 663 248 663 247 q 666 250 668 257 z m 672 254 q 672 249 665 239 q 656 230 652 227 l 644 227 q 638 227 638 232 q 638 240 649 253 q 656 262 665 262 q 672 262 672 254 z m 705 256 q 706 254 701 245 q 695 237 693 235 l 681 224 q 674 217 672 209 q 673 221 681 230 q 685 234 687 237 q 689 240 691 244 q 692 245 693 248 l 693 245 q 693 245 692 243 q 694 245 698 253 q 698 254 698 254 q 699 255 699 256 q 699 261 694 259 q 694 259 686 253 q 684 248 680 244 q 677 241 673 236 q 668 230 667 227 q 666 226 662 218 q 662 220 662 222 q 661 225 662 227 q 664 234 671 241 l 677 248 q 682 255 682 259 q 682 260 682 261 q 681 262 681 263 q 687 261 687 257 q 693 262 700 262 q 704 260 705 256 z m 744 270 l 729 270 q 728 268 722 262 q 717 256 709 245 q 707 245 705 240 q 701 235 701 230 q 701 227 703 227 q 708 227 717 237 l 718 238 q 719 239 719 240 q 719 240 720 241 q 720 236 713 230 q 708 226 701 226 q 696 228 695 232 q 695 234 699 242 l 711 256 l 722 270 l 705 272 q 701 273 695 273 l 686 273 q 674 273 662 268 l 661 268 q 671 278 692 278 q 693 278 700 276 q 708 275 722 273 l 725 272 q 728 277 730 280 q 733 284 735 287 q 737 286 737 282 q 737 279 735 277 l 731 271 l 739 270 l 745 270 l 746 270 l 749 270 z m 751 257 q 751 254 744 251 l 743 250 q 746 253 746 258 l 746 262 l 743 262 q 738 262 737 258 q 737 256 740 241 q 741 227 724 227 q 715 227 713 233 q 712 234 712 236 q 712 244 724 246 l 728 245 l 726 245 q 722 245 720 243 q 717 238 717 236 q 717 228 725 228 q 733 228 733 239 q 733 244 732 247 q 731 250 731 254 q 731 264 740 264 q 742 264 743 264 q 744 263 746 263 q 750 261 750 260 q 751 259 751 257 z"},"e":{"x_min":0,"x_max":323,"ha":323,"o":"m 155 562 q 195 566 220 542 q 246 518 260 481 q 275 444 280 401 q 284 358 281 323 q 274 248 252 205 q 231 162 204 140 q 178 117 151 111 q 124 105 108 105 q 122 67 141 54 q 160 42 169 44 q 195 46 217 60 q 239 75 256 98 q 274 120 288 147 q 301 174 311 200 q 321 226 326 248 q 332 271 335 284 q 337 289 350 288 q 363 288 365 278 q 365 275 360 254 q 355 232 344 202 q 333 171 316 136 q 299 102 276 72 q 252 43 222 22 q 191 2 154 0 q 121 -2 97 12 q 73 25 57 46 q 41 68 30 94 q 20 121 15 146 q 10 170 8 188 q 6 207 6 214 q 6 228 7 258 q 8 288 12 326 q 17 363 26 404 q 36 444 53 478 q 70 513 94 536 q 119 559 155 562 z m 93 218 q 92 191 94 169 q 96 147 100 130 q 112 129 130 133 q 149 137 167 156 q 185 174 199 212 q 213 250 217 318 q 222 427 206 478 q 190 528 158 522 q 148 520 140 503 q 132 486 124 460 q 117 433 112 400 q 106 368 102 334 q 98 301 96 270 q 93 240 93 218 z"},"b":{"x_min":0,"x_max":384,"ha":384,"o":"m 178 555 q 194 558 220 554 q 246 549 260 542 q 281 530 297 500 q 313 471 322 430 q 331 390 334 342 q 337 295 332 248 q 328 200 316 155 q 303 110 283 76 q 316 109 351 166 q 361 182 369 202 q 377 223 383 241 q 389 259 392 271 q 396 283 397 283 q 398 283 402 282 q 407 282 412 282 q 417 281 421 280 q 425 278 425 275 q 425 274 423 265 q 421 256 416 242 q 412 227 406 210 q 399 193 390 177 q 343 90 299 51 q 255 12 201 4 q 176 -3 152 0 q 132 2 115 14 q 98 25 86 39 q 86 28 87 26 q 90 13 80 9 q 69 5 54 6 q 40 7 26 12 q 11 16 7 21 q 3 25 2 66 q 2 106 4 170 q 5 235 8 317 q 11 399 14 485 q 17 571 20 654 q 23 738 25 806 q 27 875 28 922 q 28 968 26 979 q 23 995 47 1000 q 53 1001 66 1000 q 80 1000 94 997 q 107 994 116 988 q 126 982 123 972 q 120 960 116 914 q 112 868 108 801 q 105 734 102 652 q 98 571 95 487 q 118 524 142 538 q 167 553 178 555 z m 92 390 q 89 308 88 238 q 86 167 85 116 q 90 94 99 80 q 108 65 118 56 q 129 48 140 44 q 150 41 159 42 q 178 43 194 64 q 209 86 220 120 q 230 154 236 198 q 242 241 244 286 q 245 330 242 372 q 239 415 232 448 q 225 480 214 498 q 202 517 186 515 q 171 512 156 497 q 142 482 130 462 q 118 443 108 423 q 98 403 92 390 z"},"m":{"x_min":0,"x_max":719,"ha":719,"o":"m 330 108 q 332 79 334 56 q 335 32 338 13 q 339 7 323 4 q 307 1 288 2 q 270 4 254 13 q 239 22 241 40 q 236 69 239 116 q 242 163 246 216 q 249 268 252 320 q 254 372 249 414 q 244 455 228 478 q 213 502 182 498 q 159 494 142 466 q 126 438 116 402 q 105 367 98 333 q 92 299 88 284 q 86 193 87 124 q 88 55 94 13 q 95 7 80 4 q 64 1 45 2 q 26 4 11 13 q -4 22 -2 40 q -2 43 0 92 q 2 141 4 218 l 3 218 q 6 305 7 358 q 8 410 7 443 q 6 476 4 498 q 2 520 -2 547 q -3 553 12 556 q 27 559 46 558 q 64 556 80 547 q 95 538 94 520 l 91 426 q 100 451 114 476 q 127 500 146 520 q 164 539 188 551 q 211 563 240 562 q 266 561 284 549 q 303 537 315 517 q 327 497 334 470 q 340 442 343 411 q 352 438 365 465 q 378 492 397 514 q 416 536 440 550 q 465 563 497 562 q 534 561 556 538 q 577 516 588 480 q 599 444 601 398 q 603 353 601 306 q 599 258 594 212 q 590 166 588 130 q 586 94 588 71 q 590 48 601 47 q 621 44 638 60 q 656 77 670 104 q 685 130 696 161 q 708 192 717 220 q 726 247 731 265 q 736 283 739 283 q 740 283 744 282 q 749 282 754 282 q 759 281 763 280 q 767 278 767 275 q 767 260 762 233 q 756 206 744 174 q 733 142 716 109 q 699 76 677 50 q 655 24 628 8 q 600 -7 567 -3 q 538 0 524 24 q 509 48 504 85 q 499 122 500 168 q 501 215 504 262 q 507 309 508 354 q 509 398 504 432 q 498 465 484 484 q 469 502 439 498 q 422 495 408 478 q 395 461 385 438 q 375 414 368 386 q 360 359 355 335 q 350 311 347 294 q 344 277 342 275 q 339 227 335 184 q 331 140 330 108 z"},"n":{"x_min":0,"x_max":462,"ha":462,"o":"m 91 426 q 100 451 114 476 q 127 500 146 520 q 164 539 188 551 q 211 563 240 562 q 277 561 298 538 q 320 516 331 480 q 342 444 344 398 q 346 353 344 306 q 342 258 338 212 q 333 166 331 130 q 329 94 331 71 q 333 48 344 47 q 364 44 382 60 q 400 77 414 104 q 428 130 440 161 q 452 192 460 220 q 469 247 474 265 q 479 283 482 283 q 485 283 498 282 q 510 280 510 275 q 510 260 504 233 q 499 206 488 174 q 476 142 460 109 q 443 76 420 50 q 398 24 370 8 q 343 -7 310 -3 q 281 0 266 24 q 252 48 247 85 q 242 122 243 168 q 244 215 247 262 q 250 309 251 354 q 252 398 246 432 q 241 465 226 484 q 212 502 182 498 q 159 494 142 466 q 126 438 116 402 q 105 367 98 333 q 92 299 88 284 q 86 193 87 124 q 88 55 94 13 q 95 7 80 4 q 64 1 45 2 q 26 4 11 13 q -4 22 -2 40 q -2 43 0 92 q 2 141 4 218 l 3 218 q 6 305 7 358 q 8 410 7 443 q 6 476 4 498 q 2 520 -2 547 q -3 553 12 556 q 27 559 46 558 q 64 556 80 547 q 95 538 94 520 z"},"h":{"x_min":0,"x_max":462,"ha":462,"o":"m 110 968 q 109 925 107 864 q 105 804 103 734 q 101 663 99 586 q 97 510 95 435 q 105 459 118 482 q 132 505 150 523 q 167 541 190 552 q 212 562 240 562 q 277 561 298 538 q 320 516 331 480 q 342 444 344 398 q 346 353 344 306 q 342 258 338 212 q 333 166 331 130 q 329 94 331 71 q 333 48 344 47 q 364 44 382 60 q 400 77 414 104 q 428 130 440 161 q 452 192 460 220 q 469 247 474 265 q 479 283 482 283 q 485 283 498 282 q 510 280 510 275 q 510 260 504 233 q 499 206 488 174 q 476 142 460 109 q 443 76 420 50 q 398 24 370 8 q 343 -7 310 -3 q 281 0 266 24 q 252 48 247 85 q 242 122 243 168 q 244 215 247 262 q 250 309 251 354 q 252 398 246 432 q 241 465 226 484 q 212 502 182 498 q 162 495 147 472 q 132 450 122 420 q 111 390 104 358 q 96 326 92 304 q 91 251 90 204 q 90 157 90 118 q 90 80 91 53 q 92 26 94 13 q 95 7 80 4 q 64 1 45 2 q 26 4 11 13 q -4 22 -2 40 q -2 43 0 92 q 2 141 4 218 l 3 218 q 5 276 7 352 q 9 427 11 508 q 13 588 15 668 q 17 747 18 814 q 18 881 17 929 q 16 977 14 995 q 13 1001 28 1004 q 43 1007 62 1006 q 80 1004 96 995 q 111 986 110 968 z"},"z":{"x_min":0,"x_max":383,"ha":383,"o":"m 338 118 q 356 91 362 48 q 368 5 367 -40 q 366 -86 360 -129 q 355 -172 350 -199 q 340 -252 319 -284 q 298 -317 272 -334 q 247 -351 220 -356 q 192 -362 169 -362 q 129 -363 103 -347 q 77 -331 62 -306 q 46 -282 38 -252 q 31 -223 29 -196 q 27 -169 28 -150 q 30 -130 31 -125 q 33 -117 48 -110 q 63 -103 80 -99 q 97 -95 110 -95 q 124 -95 123 -101 q 117 -144 113 -184 q 109 -224 114 -256 q 120 -287 137 -306 q 154 -326 190 -329 q 208 -330 224 -308 q 240 -286 252 -249 q 265 -212 272 -165 q 280 -118 280 -70 q 281 -22 274 23 q 267 68 250 101 q 235 132 207 152 q 179 173 134 170 l 144 211 q 174 220 198 246 q 222 272 238 306 q 253 341 259 378 q 265 415 260 446 q 255 478 238 498 q 221 519 190 519 q 162 519 138 501 q 115 483 98 457 q 82 431 74 402 q 67 373 72 352 q 76 330 92 320 q 109 311 142 324 q 150 327 150 314 q 150 302 140 286 q 130 270 109 258 q 88 245 55 250 q 38 252 26 264 q 15 277 8 295 q 2 313 -1 333 q -4 353 -2 370 q 1 405 15 438 q 29 472 54 498 q 78 524 113 541 q 148 558 194 560 q 225 561 255 551 q 285 541 308 520 q 332 498 346 464 q 361 430 360 384 q 359 350 348 323 q 336 296 318 274 q 301 253 281 238 q 261 222 244 212 q 227 202 216 197 q 205 192 206 192 q 248 192 282 172 q 317 151 338 118 z"},"B":{"x_min":0,"x_max":883,"ha":883,"o":"m 340 789 q 341 789 350 794 q 359 800 372 807 q 384 814 398 820 q 411 827 422 830 q 433 833 440 829 q 446 825 444 812 l 428 439 q 467 461 506 494 q 511 497 517 482 q 523 466 526 444 q 529 423 528 402 q 526 381 515 375 q 491 361 468 351 q 446 341 424 333 l 411 28 q 411 21 402 19 q 392 17 381 18 q 370 20 361 24 q 352 28 352 34 q 351 72 351 117 q 350 155 350 206 q 350 258 349 315 q 275 306 214 328 q 153 351 108 393 q 64 435 36 490 q 9 545 2 600 q -4 641 2 696 q 7 752 26 812 q 45 872 80 931 q 114 990 168 1038 q 221 1085 294 1116 q 368 1147 466 1152 q 566 1157 643 1131 q 720 1105 775 1059 q 830 1013 864 952 q 897 890 909 823 q 921 756 912 690 q 903 624 874 568 q 844 512 794 472 q 744 431 674 416 q 715 410 740 384 q 765 359 778 326 q 790 294 794 260 q 797 227 795 205 q 789 141 764 93 q 738 45 702 12 q 665 -22 622 -44 q 579 -65 540 -77 q 502 -89 471 -94 q 440 -99 428 -99 q 379 -101 340 -94 q 302 -88 272 -77 q 243 -66 222 -51 q 200 -36 185 -20 q 150 17 138 65 q 153 82 166 93 q 177 103 187 108 q 197 114 200 106 q 203 98 209 72 q 215 47 234 20 q 254 -7 292 -28 q 330 -50 398 -50 q 476 -50 533 -19 q 590 12 628 54 q 666 97 686 141 q 705 185 708 211 q 714 261 705 296 q 696 331 678 353 q 661 375 639 388 q 617 400 597 406 q 577 411 562 412 q 548 413 547 414 q 549 415 554 420 q 560 426 567 433 q 574 440 580 446 q 586 452 589 453 q 645 472 685 502 q 725 532 750 570 q 776 608 788 652 q 799 696 798 741 q 796 831 771 898 q 746 965 702 1008 q 658 1052 597 1073 q 536 1094 462 1093 q 381 1091 308 1057 q 236 1023 182 966 q 128 908 96 832 q 65 756 66 671 q 67 614 88 560 q 109 506 146 468 q 183 429 234 411 q 286 393 348 407 q 347 478 346 546 q 345 615 344 669 q 343 723 342 756 q 341 789 340 789 z"},"K":{"x_min":0,"x_max":525,"ha":525,"o":"m 557 1116 q 560 1121 578 1126 q 596 1132 616 1134 q 636 1136 652 1133 q 667 1130 665 1118 q 647 1005 606 888 q 564 770 500 662 q 436 555 352 465 q 267 375 164 317 q 164 315 164 313 q 163 311 163 309 q 183 283 218 242 q 254 201 300 154 q 347 106 403 57 q 459 8 522 -34 q 585 -75 652 -105 q 719 -135 788 -144 q 856 -153 924 -136 q 992 -120 1056 -70 q 1053 -103 1047 -130 q 1042 -153 1034 -175 q 1025 -197 1013 -202 q 937 -236 865 -243 q 793 -250 726 -236 q 659 -223 598 -192 q 536 -161 481 -120 q 426 -78 378 -30 q 329 18 288 66 q 247 114 214 158 q 182 203 158 238 q 152 160 148 94 q 143 27 140 -20 q 138 -68 137 -94 q 136 -119 137 -115 q 127 -120 112 -118 q 97 -116 84 -111 q 70 -106 62 -100 q 53 -93 55 -89 q 55 -89 56 -60 q 58 -32 60 18 q 62 67 66 133 q 69 199 72 274 q 58 269 44 265 q 31 261 17 257 q 12 256 7 258 q 2 261 0 266 q -2 271 0 277 q 2 283 12 288 q 29 296 44 305 q 60 314 75 323 q 79 406 83 493 q 87 580 91 662 q 95 745 98 818 q 102 892 104 947 q 107 1002 108 1034 q 110 1067 110 1068 q 110 1076 130 1084 q 150 1093 178 1099 q 205 1105 234 1106 q 262 1108 278 1102 q 259 1036 243 952 q 227 867 214 773 q 200 679 190 580 q 179 481 170 386 q 269 459 334 538 q 399 617 438 694 q 478 770 498 840 q 518 911 528 968 q 538 1025 542 1064 q 547 1102 557 1116 z"},"R":{"x_min":0,"x_max":760,"ha":760,"o":"m 3 651 q -2 760 32 848 q 66 935 128 996 q 191 1058 277 1091 q 363 1124 462 1123 q 555 1122 624 1090 q 693 1058 738 1011 q 783 964 806 908 q 829 853 831 804 q 834 715 804 631 q 775 547 719 475 q 663 403 586 346 q 508 288 415 253 q 454 207 510 148 q 567 90 636 34 q 705 -21 782 -67 q 860 -113 941 -134 q 1022 -154 1104 -142 q 1185 -130 1262 -70 q 1258 -103 1252 -130 q 1247 -153 1238 -175 q 1230 -197 1218 -202 q 1117 -247 1024 -246 q 930 -244 846 -210 q 761 -177 688 -120 q 614 -64 553 0 q 492 64 444 127 q 397 190 365 236 q 321 222 277 215 l 267 -86 q 267 -93 258 -95 q 248 -97 237 -96 q 226 -95 217 -90 q 208 -86 208 -80 q 207 -43 207 3 q 206 42 206 94 q 206 147 205 207 q 184 205 163 204 q 142 204 121 206 q 106 207 100 214 q 93 221 94 229 q 94 237 101 244 q 108 251 121 252 q 143 253 164 255 q 184 257 204 259 q 204 301 203 340 q 202 378 202 420 q 168 427 134 442 q 100 458 72 486 q 43 514 24 554 q 6 595 3 651 z m 194 824 q 196 824 214 836 q 232 847 252 856 q 271 866 286 867 q 301 868 298 847 l 287 508 q 322 518 360 544 q 397 570 435 622 q 442 631 448 619 q 454 607 458 587 q 462 567 462 546 q 463 525 459 516 q 452 498 436 482 q 419 465 396 452 q 372 438 344 428 q 315 419 284 416 l 279 272 q 479 315 590 445 q 700 575 706 790 q 707 822 692 866 q 677 909 647 949 q 617 989 572 1017 q 528 1045 471 1046 q 424 1047 375 1039 q 326 1031 280 1014 q 233 996 192 968 q 150 940 119 902 q 88 863 69 814 q 50 764 49 703 q 47 617 90 564 q 132 511 201 501 q 200 565 199 624 q 198 683 197 727 q 196 771 196 798 q 195 824 194 824 z"},"T":{"x_min":0,"x_max":542,"ha":542,"o":"m 395 977 q 392 984 406 987 q 420 990 440 988 q 460 986 480 980 q 499 973 506 961 l 430 -81 q 427 -84 418 -84 q 408 -85 398 -82 q 387 -80 377 -75 q 367 -70 363 -63 q 373 227 380 455 q 383 552 386 646 q 389 739 391 812 q 393 885 394 930 q 395 976 395 977 z m 1027 1131 q 1028 1130 1029 1112 q 1030 1095 1031 1073 q 1032 1047 1032 1015 q 1003 1025 952 1030 q 900 1036 834 1038 q 769 1039 693 1036 q 617 1034 538 1028 q 460 1021 383 1011 q 306 1001 238 988 q 169 974 114 957 q 58 940 23 920 q 9 928 0 936 q -8 943 -10 951 q -12 959 0 965 q 60 996 134 1020 q 208 1044 288 1062 q 367 1080 450 1093 q 532 1106 610 1114 q 688 1123 758 1128 q 829 1133 884 1134 q 940 1136 978 1135 q 1015 1134 1027 1131 z"},"P":{"x_min":0,"x_max":750,"ha":750,"o":"m 3 651 q -2 760 32 848 q 66 935 128 996 q 191 1058 277 1091 q 363 1124 462 1123 q 555 1122 624 1090 q 693 1058 738 1011 q 783 964 806 908 q 829 853 831 804 q 835 699 793 602 q 751 504 676 424 q 601 345 498 290 q 395 235 277 215 l 267 -86 q 267 -93 258 -95 q 248 -97 237 -96 q 226 -95 217 -90 q 208 -86 208 -80 q 207 -43 207 3 q 206 42 206 94 q 206 147 205 207 q 184 205 163 204 q 142 204 121 206 q 106 207 100 214 q 93 221 94 229 q 94 237 101 244 q 108 251 121 252 q 143 253 164 255 q 184 257 204 259 q 204 301 203 340 q 202 378 202 420 q 168 427 134 442 q 100 458 72 486 q 43 514 24 554 q 6 595 3 651 z m 194 824 q 196 824 214 836 q 232 847 252 856 q 271 866 286 867 q 301 868 298 847 l 287 508 q 322 518 360 544 q 397 570 435 622 q 442 631 448 619 q 454 607 458 587 q 462 567 462 546 q 463 525 459 516 q 452 498 436 482 q 419 465 396 452 q 372 438 344 428 q 315 419 284 416 l 279 272 q 479 315 590 445 q 700 575 706 790 q 707 822 692 866 q 677 909 647 949 q 617 989 572 1017 q 528 1045 471 1046 q 424 1047 375 1039 q 326 1031 280 1014 q 233 996 192 968 q 150 940 119 902 q 88 863 69 814 q 50 764 49 703 q 47 617 90 564 q 132 511 201 501 q 200 565 199 624 q 198 683 197 727 q 196 771 196 798 q 195 824 194 824 z"},"t":{"x_min":0,"x_max":175,"ha":175,"o":"m 246 778 q 262 778 264 768 q 266 759 260 748 q 255 736 246 726 q 236 716 229 714 q 226 713 215 713 q 204 713 186 714 q 168 714 144 714 q 121 715 95 716 q 93 650 90 576 q 88 502 86 430 q 85 358 84 292 q 83 227 83 177 q 83 127 84 98 q 86 68 89 68 q 100 67 112 83 q 123 99 134 123 q 144 147 154 175 q 164 203 172 227 q 179 251 184 267 q 189 283 190 283 q 191 283 196 282 q 200 282 205 282 q 210 281 214 280 q 218 278 218 275 q 218 273 212 252 q 207 231 198 200 q 188 170 174 134 q 159 99 140 70 q 122 40 100 20 q 79 1 54 2 q 37 2 26 12 q 14 22 8 36 q 1 49 -2 64 q -6 79 -6 90 q -6 95 -6 126 q -5 156 -4 204 q -2 252 0 314 q 1 376 3 444 q 5 512 6 582 q 8 653 9 718 q -39 720 -84 720 q -129 721 -164 719 q -169 719 -168 724 q -167 729 -164 734 q -160 740 -154 744 q -149 748 -144 748 q -123 749 -98 751 q -77 753 -49 755 q -21 757 10 760 q 10 803 10 841 q 11 879 10 910 q 10 940 9 962 q 8 984 7 995 q 6 1001 22 1004 q 38 1007 56 1006 q 75 1004 90 995 q 106 986 104 968 q 103 964 101 908 q 99 852 96 767 q 126 769 152 771 q 179 773 200 774 q 220 776 232 777 q 245 778 246 778 z"},"M":{"x_min":0,"x_max":833,"ha":833,"o":"m 634 1083 q 638 1091 650 1090 q 663 1090 679 1084 q 695 1077 713 1067 q 731 1057 745 1046 q 759 1036 768 1027 q 776 1018 774 1014 l 744 -139 q 743 -151 732 -150 q 721 -150 708 -144 q 696 -138 686 -129 q 675 -120 675 -114 q 673 53 669 219 q 667 290 666 368 q 664 445 662 523 q 660 601 658 676 q 656 752 653 819 q 640 758 624 680 q 608 602 592 516 q 576 431 561 343 q 546 255 535 174 q 524 94 518 26 q 512 -42 513 -87 q 514 -92 514 -94 q 515 -96 515 -97 l 513 -100 q 513 -102 514 -103 q 514 -104 514 -106 q 514 -107 511 -104 q 503 -111 485 -102 q 467 -92 448 -74 q 428 -57 411 -36 q 394 -14 389 2 q 375 51 350 132 q 324 214 292 312 q 261 409 226 514 q 192 620 160 716 l 147 -166 q 142 -172 130 -170 q 119 -169 106 -162 q 94 -155 84 -145 q 74 -135 72 -123 q 66 186 62 438 q 60 545 58 650 q 56 755 54 842 q 53 928 52 987 q 50 1046 50 1062 l 50 1064 q 47 1080 64 1092 q 81 1105 103 1108 q 125 1112 142 1104 q 160 1095 159 1069 q 157 1045 171 986 q 185 926 209 844 q 233 761 264 663 q 295 565 328 465 q 361 365 393 270 q 425 174 451 98 q 464 161 480 241 q 497 321 515 409 q 533 497 551 588 q 569 680 585 767 q 601 854 614 932 q 628 1009 636 1070 q 635 1074 634 1077 q 634 1080 634 1083 z"},"g":{"x_min":0,"x_max":384,"ha":384,"o":"m 248 574 q 248 580 262 579 q 276 578 292 573 q 308 568 322 560 q 335 551 334 544 q 334 540 334 500 q 335 461 336 398 q 336 335 335 256 q 334 178 331 96 q 328 14 322 -64 q 315 -141 304 -202 q 295 -253 276 -284 q 256 -316 232 -333 q 207 -350 180 -356 q 154 -362 131 -362 q 92 -363 66 -347 q 40 -331 24 -306 q 8 -282 1 -252 q -6 -223 -8 -196 q -10 -169 -9 -150 q -8 -130 -6 -125 q -5 -117 10 -110 q 25 -103 42 -99 q 60 -95 74 -95 q 87 -95 86 -101 q 79 -144 76 -186 q 74 -227 80 -260 q 86 -292 104 -312 q 123 -331 158 -329 q 179 -328 194 -296 q 209 -263 219 -210 q 229 -157 235 -88 q 241 -19 244 56 q 230 35 214 24 q 197 12 182 7 q 166 2 154 2 q 141 1 135 2 q 121 3 98 12 q 75 20 53 46 q 31 73 16 124 q 0 175 1 262 q 2 337 14 388 q 27 440 45 473 q 63 506 85 524 q 107 543 128 551 q 148 559 164 560 q 179 562 186 562 q 210 561 224 546 q 238 532 246 515 q 246 535 246 550 q 247 564 248 574 z m 243 141 q 243 142 244 142 q 245 142 246 143 q 248 224 248 300 q 247 376 247 438 q 243 432 243 442 q 244 455 240 469 q 236 483 230 494 q 223 506 214 514 q 204 521 194 521 q 175 521 160 506 q 146 492 135 468 q 124 445 116 416 q 109 388 104 360 q 100 332 98 308 q 95 284 94 270 q 92 250 94 213 q 95 176 102 139 q 109 102 124 76 q 139 49 166 50 q 185 50 198 60 q 211 69 220 82 q 228 96 234 112 q 239 127 243 141 z"},"j":{"x_min":0,"x_max":152,"ha":152,"o":"m 2 574 q 2 580 16 579 q 29 578 46 573 q 62 568 75 560 q 88 551 87 544 q 87 540 88 500 q 88 461 88 398 q 89 335 88 256 q 88 178 85 96 q 82 14 76 -64 q 69 -141 58 -202 q 49 -253 30 -284 q 10 -316 -14 -333 q -39 -350 -66 -356 q -92 -362 -115 -362 q -155 -363 -181 -350 q -207 -336 -223 -315 q -239 -294 -246 -268 q -254 -243 -256 -220 q -258 -198 -257 -180 q -256 -163 -254 -158 q -253 -151 -238 -144 q -223 -137 -206 -132 q -188 -128 -174 -128 q -161 -128 -162 -134 q -169 -177 -172 -216 q -175 -254 -169 -282 q -163 -311 -145 -327 q -127 -343 -91 -341 q -69 -340 -54 -305 q -38 -270 -28 -212 q -18 -155 -12 -81 q -6 -7 -3 72 q 0 152 0 232 q 1 311 1 380 q 1 448 0 500 q 0 551 2 574 z m 3 712 q 3 746 22 770 q 40 794 66 794 q 92 794 110 770 q 128 746 128 712 q 128 678 110 654 q 92 630 66 630 q 40 630 22 654 q 3 678 3 712 z"},"i":{"x_min":0,"x_max":176,"ha":176,"o":"m 22 553 q 28 554 42 552 q 56 551 70 546 q 83 541 93 530 q 103 520 102 502 q 101 498 99 464 q 97 431 94 382 q 92 334 90 279 q 87 224 86 178 q 85 131 86 100 q 87 68 92 68 q 103 67 114 83 q 126 99 137 123 q 148 147 158 175 q 167 203 175 227 q 183 251 188 267 q 192 283 193 283 q 194 283 198 282 q 203 282 208 282 q 213 281 217 280 q 221 278 221 275 q 221 273 216 252 q 210 231 200 200 q 191 170 176 134 q 162 99 144 70 q 126 40 104 20 q 82 1 58 2 q 41 2 30 12 q 18 23 12 37 q 5 51 2 66 q -2 81 -3 90 q -4 96 -3 132 q -2 169 0 220 q 1 272 4 330 q 7 388 10 438 q 13 487 16 520 q 19 552 22 553 z m 3 712 q 3 746 22 770 q 40 794 66 794 q 92 794 110 770 q 128 746 128 712 q 128 678 110 654 q 92 630 66 630 q 40 630 22 654 q 3 678 3 712 z"},"y":{"x_min":0,"x_max":393,"ha":393,"o":"m 15 448 q 14 477 12 500 q 10 524 8 543 q 7 549 23 552 q 39 555 58 554 q 76 552 92 543 q 107 534 105 516 q 109 487 106 440 q 104 393 100 340 q 96 288 94 236 q 91 184 96 142 q 101 101 116 77 q 132 53 163 58 q 184 61 200 84 q 215 108 226 139 q 236 170 243 202 q 250 235 254 256 q 255 310 255 360 q 255 411 255 452 q 255 494 256 526 q 256 557 257 574 q 257 580 271 579 q 285 578 301 573 q 317 568 330 560 q 343 551 342 544 q 342 540 343 500 q 344 461 344 398 q 345 335 344 256 q 343 178 340 96 q 337 14 330 -64 q 324 -141 313 -202 q 304 -253 284 -284 q 265 -316 240 -333 q 216 -350 190 -356 q 163 -362 140 -362 q 101 -363 75 -347 q 49 -331 33 -306 q 17 -282 10 -252 q 3 -223 0 -196 q -2 -169 0 -150 q 1 -130 2 -125 q 4 -117 19 -110 q 34 -103 52 -99 q 69 -95 82 -95 q 95 -95 94 -101 q 88 -144 84 -186 q 80 -227 86 -260 q 91 -292 108 -312 q 125 -331 161 -329 q 185 -328 201 -288 q 217 -249 228 -186 q 238 -123 244 -42 q 249 39 252 123 q 243 99 230 76 q 216 52 198 34 q 180 16 157 5 q 134 -6 106 -6 q 67 -5 45 20 q 23 44 12 84 q 2 123 0 172 q -1 221 2 271 q 5 321 10 368 q 14 414 15 448 z"},"p":{"x_min":0,"x_max":384,"ha":384,"o":"m 178 555 q 194 558 220 554 q 246 549 260 542 q 281 530 297 500 q 313 471 322 430 q 331 390 334 342 q 337 295 332 248 q 328 200 316 155 q 303 110 283 76 q 316 109 351 166 q 361 182 369 202 q 377 223 383 241 q 389 259 392 271 q 396 283 397 283 q 398 283 402 282 q 407 282 412 282 q 417 281 421 280 q 425 278 425 275 q 425 274 423 265 q 421 256 416 242 q 412 227 406 210 q 399 193 390 177 q 343 90 299 51 q 255 12 201 4 q 176 -3 152 0 q 129 2 110 17 q 90 32 78 47 q 75 -37 72 -117 q 70 -197 69 -262 q 68 -326 68 -368 q 68 -411 70 -418 q 73 -431 62 -435 q 52 -439 38 -438 q 23 -437 8 -432 q -6 -428 -10 -423 q -14 -419 -14 -378 q -15 -338 -14 -274 q -13 -209 -10 -127 q -7 -45 -4 41 q -1 127 2 210 q 6 294 8 362 q 10 431 10 478 q 11 524 9 535 q 5 551 30 556 q 36 557 49 556 q 62 556 76 553 q 89 550 98 544 q 108 538 106 528 q 104 523 104 516 q 103 508 101 497 q 123 528 145 540 q 167 553 178 555 z m 94 395 q 91 342 88 276 q 84 211 81 139 q 81 139 82 137 q 85 108 94 90 q 103 71 114 60 q 126 49 138 45 q 150 41 159 42 q 178 43 194 64 q 209 86 220 120 q 230 154 236 198 q 242 241 244 286 q 245 330 242 372 q 239 415 232 448 q 225 480 214 498 q 202 517 186 515 q 171 513 158 499 q 144 485 132 466 q 120 448 110 428 q 101 408 94 395 z"},"X":{"x_min":0,"x_max":854,"ha":854,"o":"m 933 1182 q 937 1186 950 1187 q 963 1188 979 1186 q 995 1185 1010 1182 q 1026 1178 1036 1173 q 1047 1168 1050 1162 q 1053 1155 1042 1148 q 1039 1146 1021 1121 q 1003 1096 974 1052 q 944 1009 905 950 q 866 892 820 822 q 775 753 726 676 q 676 599 626 520 q 663 422 700 324 q 736 225 766 140 q 795 56 815 -8 q 835 -71 839 -98 q 843 -104 834 -114 q 826 -125 814 -134 q 802 -142 790 -145 q 779 -148 777 -140 q 771 -115 750 -60 q 730 -6 700 68 q 671 142 634 230 q 597 319 558 412 q 503 323 452 238 q 401 153 360 78 q 318 4 288 -56 q 259 -115 247 -153 q 247 -153 238 -156 q 229 -158 217 -158 q 205 -158 192 -154 q 179 -151 170 -139 q 165 -133 176 -104 q 186 -74 208 -26 q 231 21 264 83 q 296 145 335 216 q 374 288 418 366 q 463 445 510 525 q 465 630 423 728 q 381 825 348 900 q 315 975 295 1020 q 275 1065 274 1065 q 269 1064 284 1067 q 300 1070 324 1068 q 349 1067 379 1056 q 409 1045 433 1017 q 434 1016 446 986 q 458 956 478 906 q 497 855 524 787 q 550 719 579 643 q 638 742 695 834 q 752 926 800 999 q 847 1072 882 1120 q 917 1169 933 1182 z"},"Y":{"x_min":0,"x_max":666,"ha":666,"o":"m 22 1134 q 32 1136 55 1140 q 78 1145 100 1147 q 123 1149 138 1148 q 153 1146 147 1137 q 144 1132 138 1086 q 133 1039 128 966 q 123 893 121 802 q 119 711 122 617 q 126 523 137 434 q 148 345 169 277 q 190 209 224 169 q 257 129 306 133 q 377 139 422 186 q 468 233 494 306 q 521 379 531 470 q 541 562 540 656 q 540 750 532 840 q 523 929 512 998 q 502 1068 492 1110 q 482 1151 478 1150 q 504 1152 525 1152 q 543 1152 560 1150 q 576 1147 581 1139 q 583 1135 592 1094 q 601 1053 610 987 q 620 921 628 837 q 635 753 635 663 q 640 574 636 475 q 633 376 622 274 q 612 172 594 71 q 577 -30 554 -122 q 572 -161 586 -204 q 601 -247 612 -288 q 622 -329 630 -365 q 638 -401 643 -426 l 555 -490 q 563 -418 556 -344 q 550 -271 531 -208 q 507 -292 478 -362 q 450 -431 418 -480 q 387 -529 353 -554 q 319 -580 283 -574 q 250 -569 223 -540 q 196 -512 177 -468 q 158 -425 148 -371 q 139 -317 140 -262 q 142 -206 156 -154 q 171 -101 201 -60 q 231 -19 276 6 q 322 30 386 29 q 414 28 438 17 q 461 6 482 -14 q 490 35 498 86 q 505 136 512 188 q 472 140 416 112 q 360 85 283 84 q 216 84 168 128 q 120 173 88 246 q 55 320 36 414 q 17 508 8 606 q -1 704 -2 798 q -2 893 2 967 q 5 1041 11 1087 q 17 1133 22 1134 z m 290 -531 q 313 -534 336 -500 q 360 -467 383 -406 q 406 -345 428 -262 q 449 -179 468 -83 q 447 -59 421 -48 q 395 -36 366 -41 q 327 -47 300 -72 q 273 -96 256 -131 q 240 -166 232 -208 q 225 -251 224 -295 q 224 -339 230 -381 q 235 -423 244 -456 q 253 -488 265 -508 q 277 -529 290 -531 z"},"c":{"x_min":0,"x_max":323,"ha":323,"o":"m 254 300 q 247 291 238 284 q 228 276 219 274 q 210 271 204 275 q 199 279 199 294 q 212 332 214 373 q 215 414 208 448 q 201 482 188 503 q 174 524 158 522 q 144 520 132 485 q 120 450 112 402 q 103 353 98 302 q 93 251 93 218 q 92 163 101 128 q 110 94 123 75 q 136 56 149 50 q 162 43 169 44 q 195 46 217 60 q 239 75 256 98 q 274 120 288 147 q 301 174 311 200 q 321 226 326 248 q 332 271 335 284 q 337 289 350 288 q 363 288 365 278 q 365 275 360 254 q 355 232 344 202 q 333 171 316 136 q 299 102 276 72 q 252 43 222 22 q 191 2 154 0 q 121 -2 97 12 q 73 25 57 46 q 41 68 30 94 q 20 121 15 146 q 10 170 8 188 q 6 207 6 214 q 6 227 7 257 q 8 287 12 324 q 17 362 26 402 q 36 443 53 477 q 70 511 94 534 q 119 558 155 562 q 192 566 218 540 q 245 514 258 474 q 272 433 271 386 q 270 338 254 300 z"},"6":{"x_min":0,"x_max":813,"ha":813,"o":"m 584 521 l 493 438 l 517 314 l 410 377 l 300 314 l 326 435 l 234 521 l 358 534 l 410 648 l 460 535 z m 455 384 l 426 556 l 391 556 l 361 384 l 376 375 l 389 384 l 395 423 l 421 423 l 428 384 l 442 375 z m 419 448 l 399 448 l 408 516 z m 407 14 l 421 14 l 416 26 q 415 28 415 30 q 415 31 413 33 q 413 30 411 26 z m 235 -3 l 235 2 l 242 2 l 242 -3 z m 563 -3 l 563 39 l 568 39 l 568 1 l 589 1 l 589 -3 z m 525 -3 l 525 39 l 555 39 l 555 33 l 530 33 l 530 20 l 553 20 l 553 15 l 530 15 l 530 1 l 555 1 l 555 -3 z m 377 -3 l 377 14 l 361 39 l 368 39 l 376 26 q 378 20 380 19 q 381 20 382 22 q 383 24 385 26 l 393 39 l 399 39 l 382 14 l 382 -3 z m 251 -3 l 251 39 l 267 39 q 269 39 270 38 q 272 37 273 37 q 277 36 278 33 q 280 31 280 27 q 280 24 278 23 q 277 19 274 19 q 277 18 280 15 q 282 11 282 9 q 282 7 282 6 q 281 5 281 4 q 280 0 277 0 q 276 -2 275 -2 q 274 -2 273 -3 l 267 -3 z m 137 -3 l 125 39 l 131 39 l 137 11 q 138 8 138 6 q 138 4 139 2 q 140 7 140 10 l 148 39 l 155 39 l 161 17 q 162 12 163 9 q 164 6 164 2 q 165 4 165 6 q 165 8 166 11 l 173 39 l 178 39 l 166 -3 l 161 -3 l 153 28 q 152 31 152 33 q 151 31 151 28 l 142 -3 z m 82 -3 l 70 39 l 77 39 l 82 11 q 82 6 85 2 q 86 7 86 10 l 94 39 l 100 39 l 107 17 q 108 12 108 9 q 109 6 109 2 q 111 4 111 6 q 111 8 112 11 l 118 39 l 124 39 l 112 -3 l 107 -3 l 99 28 q 98 31 98 33 q 96 31 96 28 l 87 -3 z m 256 20 l 265 20 q 269 20 270 22 q 273 22 273 23 q 274 24 274 27 q 274 30 273 31 l 272 31 q 271 31 271 32 q 271 32 270 32 q 269 33 264 33 l 256 33 z m 190 -3 l 179 39 l 185 39 l 191 11 q 192 8 192 6 q 192 4 194 2 q 194 6 194 8 q 195 9 195 10 l 203 39 l 209 39 l 216 17 q 217 12 218 9 q 218 6 218 2 q 220 4 220 6 q 220 8 221 11 l 228 39 l 233 39 l 221 -3 l 216 -3 l 208 28 q 207 31 207 33 q 205 31 205 28 l 196 -3 z m 443 19 l 455 19 q 457 19 458 20 q 460 20 462 20 q 464 20 464 23 q 465 24 465 27 q 465 30 463 32 q 462 33 456 33 l 443 33 z m 256 1 l 267 1 q 269 1 270 2 l 273 2 q 274 4 276 5 l 276 9 q 276 11 274 13 q 274 15 272 15 l 265 15 l 256 15 z m 290 -3 l 290 39 l 295 39 l 295 -3 z m 657 17 q 657 8 660 5 q 664 1 671 1 q 678 1 681 5 q 685 8 685 18 q 685 23 684 26 q 682 31 679 32 q 676 33 671 33 q 665 33 662 30 q 657 26 657 17 z m 651 17 q 651 28 657 33 q 661 39 671 39 q 674 39 676 38 q 679 37 681 36 q 684 35 686 33 q 687 31 689 28 q 690 26 690 18 q 690 9 688 6 q 685 1 681 -2 q 677 -4 671 -4 q 668 -4 666 -4 q 663 -3 660 -2 q 658 0 656 2 q 655 4 654 6 q 653 9 652 12 q 651 14 651 17 z m 395 -3 l 411 39 l 417 39 l 434 -3 l 428 -3 l 423 9 l 406 9 l 400 -3 z m 306 -3 l 306 39 l 311 39 l 311 1 l 330 1 l 330 -3 z m 595 -3 l 595 2 l 602 2 l 602 -3 z m 499 13 l 499 18 l 516 18 l 516 2 q 512 -2 508 -3 q 506 -3 504 -4 q 501 -4 499 -4 q 493 -4 489 -2 q 486 0 484 2 q 482 3 481 6 q 480 9 479 12 q 478 14 478 17 q 478 21 479 23 q 480 25 481 28 q 483 34 488 36 q 490 37 493 38 q 496 39 499 39 q 504 39 507 37 q 511 36 512 33 q 515 30 516 27 l 511 26 q 511 27 508 30 q 508 32 504 33 l 499 33 l 493 33 q 490 32 488 30 q 488 29 485 26 q 485 24 484 22 q 484 20 484 18 q 484 11 486 9 q 490 3 491 2 q 494 1 499 1 q 503 1 506 2 q 508 4 509 4 q 510 4 511 5 l 511 13 z m 438 -3 l 438 39 l 456 39 q 459 39 461 38 q 463 37 465 37 q 468 36 469 33 q 471 31 471 27 q 471 22 468 19 q 467 18 464 18 q 462 17 459 15 q 461 15 462 14 q 462 14 463 14 q 464 12 464 10 q 465 9 467 7 l 475 -3 l 468 -3 l 462 5 q 460 7 460 8 q 459 10 458 11 q 458 13 457 13 q 456 13 455 14 l 454 14 q 453 14 453 14 q 453 15 452 15 l 450 15 l 443 15 l 443 -3 z m 337 -3 l 337 39 l 343 39 l 343 1 l 363 1 l 363 -3 z m 641 11 l 646 10 q 644 2 640 0 q 636 -4 629 -4 q 623 -4 619 -2 q 616 0 615 2 q 614 4 612 6 q 610 14 610 18 q 610 22 612 30 q 617 35 619 36 q 622 37 624 38 q 626 39 629 39 q 632 39 635 38 q 638 37 640 36 q 642 34 644 32 q 645 30 646 27 l 640 26 q 640 30 636 32 q 634 33 629 33 q 623 33 621 32 q 619 31 618 30 q 618 28 616 26 q 616 24 616 22 q 615 20 615 18 q 615 12 618 9 q 618 7 619 6 q 620 4 621 2 q 624 1 629 1 q 634 1 637 4 q 640 7 641 11 z m 698 -3 l 698 39 l 706 39 l 716 9 q 716 7 717 6 q 718 4 718 2 q 718 3 720 9 l 729 39 l 737 39 l 737 -3 l 732 -3 l 732 31 l 720 -3 l 715 -3 l 703 32 l 703 -3 z m 407 14 l 421 14 l 416 26 q 415 28 415 30 q 415 31 413 33 q 413 30 411 26 z m 235 -3 l 235 2 l 242 2 l 242 -3 z m 563 -3 l 563 39 l 568 39 l 568 1 l 589 1 l 589 -3 z m 525 -3 l 525 39 l 555 39 l 555 33 l 530 33 l 530 20 l 553 20 l 553 15 l 530 15 l 530 1 l 555 1 l 555 -3 z m 377 -3 l 377 14 l 361 39 l 368 39 l 376 26 q 378 20 380 19 q 381 20 382 22 q 383 24 385 26 l 393 39 l 399 39 l 382 14 l 382 -3 z m 251 -3 l 251 39 l 267 39 q 269 39 270 38 q 272 37 273 37 q 277 36 278 33 q 280 31 280 27 q 280 24 278 23 q 277 19 274 19 q 277 18 280 15 q 282 11 282 9 q 282 7 282 6 q 281 5 281 4 q 280 0 277 0 q 276 -2 275 -2 q 274 -2 273 -3 l 267 -3 z m 137 -3 l 125 39 l 131 39 l 137 11 q 138 8 138 6 q 138 4 139 2 q 140 7 140 10 l 148 39 l 155 39 l 161 17 q 162 12 163 9 q 164 6 164 2 q 165 4 165 6 q 165 8 166 11 l 173 39 l 178 39 l 166 -3 l 161 -3 l 153 28 q 152 31 152 33 q 151 31 151 28 l 142 -3 z m 82 -3 l 70 39 l 77 39 l 82 11 q 82 6 85 2 q 86 7 86 10 l 94 39 l 100 39 l 107 17 q 108 12 108 9 q 109 6 109 2 q 111 4 111 6 q 111 8 112 11 l 118 39 l 124 39 l 112 -3 l 107 -3 l 99 28 q 98 31 98 33 q 96 31 96 28 l 87 -3 z m 256 20 l 265 20 q 269 20 270 22 q 273 22 273 23 q 274 24 274 27 q 274 30 273 31 l 272 31 q 271 31 271 32 q 271 32 270 32 q 269 33 264 33 l 256 33 z m 190 -3 l 179 39 l 185 39 l 191 11 q 192 8 192 6 q 192 4 194 2 q 194 6 194 8 q 195 9 195 10 l 203 39 l 209 39 l 216 17 q 217 12 218 9 q 218 6 218 2 q 220 4 220 6 q 220 8 221 11 l 228 39 l 233 39 l 221 -3 l 216 -3 l 208 28 q 207 31 207 33 q 205 31 205 28 l 196 -3 z m 443 19 l 455 19 q 457 19 458 20 q 460 20 462 20 q 464 20 464 23 q 465 24 465 27 q 465 30 463 32 q 462 33 456 33 l 443 33 z m 256 1 l 267 1 q 269 1 270 2 l 273 2 q 274 4 276 5 l 276 9 q 276 11 274 13 q 274 15 272 15 l 265 15 l 256 15 z m 290 -3 l 290 39 l 295 39 l 295 -3 z m 657 17 q 657 8 660 5 q 664 1 671 1 q 678 1 681 5 q 685 8 685 18 q 685 23 684 26 q 682 31 679 32 q 676 33 671 33 q 665 33 662 30 q 657 26 657 17 z m 651 17 q 651 28 657 33 q 661 39 671 39 q 674 39 676 38 q 679 37 681 36 q 684 35 686 33 q 687 31 689 28 q 690 26 690 18 q 690 9 688 6 q 685 1 681 -2 q 677 -4 671 -4 q 668 -4 666 -4 q 663 -3 660 -2 q 658 0 656 2 q 655 4 654 6 q 653 9 652 12 q 651 14 651 17 z m 395 -3 l 411 39 l 417 39 l 434 -3 l 428 -3 l 423 9 l 406 9 l 400 -3 z m 306 -3 l 306 39 l 311 39 l 311 1 l 330 1 l 330 -3 z m 595 -3 l 595 2 l 602 2 l 602 -3 z m 499 13 l 499 18 l 516 18 l 516 2 q 512 -2 508 -3 q 506 -3 504 -4 q 501 -4 499 -4 q 493 -4 489 -2 q 486 0 484 2 q 482 3 481 6 q 480 9 479 12 q 478 14 478 17 q 478 21 479 23 q 480 25 481 28 q 483 34 488 36 q 490 37 493 38 q 496 39 499 39 q 504 39 507 37 q 511 36 512 33 q 515 30 516 27 l 511 26 q 511 27 508 30 q 508 32 504 33 l 499 33 l 493 33 q 490 32 488 30 q 488 29 485 26 q 485 24 484 22 q 484 20 484 18 q 484 11 486 9 q 490 3 491 2 q 494 1 499 1 q 503 1 506 2 q 508 4 509 4 q 510 4 511 5 l 511 13 z m 438 -3 l 438 39 l 456 39 q 459 39 461 38 q 463 37 465 37 q 468 36 469 33 q 471 31 471 27 q 471 22 468 19 q 467 18 464 18 q 462 17 459 15 q 461 15 462 14 q 462 14 463 14 q 464 12 464 10 q 465 9 467 7 l 475 -3 l 468 -3 l 462 5 q 460 7 460 8 q 459 10 458 11 q 458 13 457 13 q 456 13 455 14 l 454 14 q 453 14 453 14 q 453 15 452 15 l 450 15 l 443 15 l 443 -3 z m 337 -3 l 337 39 l 343 39 l 343 1 l 363 1 l 363 -3 z m 641 11 l 646 10 q 644 2 640 0 q 636 -4 629 -4 q 623 -4 619 -2 q 616 0 615 2 q 614 4 612 6 q 610 14 610 18 q 610 22 612 30 q 617 35 619 36 q 622 37 624 38 q 626 39 629 39 q 632 39 635 38 q 638 37 640 36 q 642 34 644 32 q 645 30 646 27 l 640 26 q 640 30 636 32 q 634 33 629 33 q 623 33 621 32 q 619 31 618 30 q 618 28 616 26 q 616 24 616 22 q 615 20 615 18 q 615 12 618 9 q 618 7 619 6 q 620 4 621 2 q 624 1 629 1 q 634 1 637 4 q 640 7 641 11 z m 698 -3 l 698 39 l 706 39 l 716 9 q 716 7 717 6 q 718 4 718 2 q 718 3 720 9 l 729 39 l 737 39 l 737 -3 l 732 -3 l 732 31 l 720 -3 l 715 -3 l 703 32 l 703 -3 z m 407 14 l 421 14 l 416 26 q 415 28 415 30 q 415 31 413 33 q 413 30 411 26 z m 235 -3 l 235 2 l 242 2 l 242 -3 z m 563 -3 l 563 39 l 568 39 l 568 1 l 589 1 l 589 -3 z m 525 -3 l 525 39 l 555 39 l 555 33 l 530 33 l 530 20 l 553 20 l 553 15 l 530 15 l 530 1 l 555 1 l 555 -3 z m 377 -3 l 377 14 l 361 39 l 368 39 l 376 26 q 378 20 380 19 q 381 20 382 22 q 383 24 385 26 l 393 39 l 399 39 l 382 14 l 382 -3 z m 251 -3 l 251 39 l 267 39 q 269 39 270 38 q 272 37 273 37 q 277 36 278 33 q 280 31 280 27 q 280 24 278 23 q 277 19 274 19 q 277 18 280 15 q 282 11 282 9 q 282 7 282 6 q 281 5 281 4 q 280 0 277 0 q 276 -2 275 -2 q 274 -2 273 -3 l 267 -3 z m 137 -3 l 125 39 l 131 39 l 137 11 q 138 8 138 6 q 138 4 139 2 q 140 7 140 10 l 148 39 l 155 39 l 161 17 q 162 12 163 9 q 164 6 164 2 q 165 4 165 6 q 165 8 166 11 l 173 39 l 178 39 l 166 -3 l 161 -3 l 153 28 q 152 31 152 33 q 151 31 151 28 l 142 -3 z m 82 -3 l 70 39 l 77 39 l 82 11 q 82 6 85 2 q 86 7 86 10 l 94 39 l 100 39 l 107 17 q 108 12 108 9 q 109 6 109 2 q 111 4 111 6 q 111 8 112 11 l 118 39 l 124 39 l 112 -3 l 107 -3 l 99 28 q 98 31 98 33 q 96 31 96 28 l 87 -3 z m 256 20 l 265 20 q 269 20 270 22 q 273 22 273 23 q 274 24 274 27 q 274 30 273 31 l 272 31 q 271 31 271 32 q 271 32 270 32 q 269 33 264 33 l 256 33 z m 190 -3 l 179 39 l 185 39 l 191 11 q 192 8 192 6 q 192 4 194 2 q 194 6 194 8 q 195 9 195 10 l 203 39 l 209 39 l 216 17 q 217 12 218 9 q 218 6 218 2 q 220 4 220 6 q 220 8 221 11 l 228 39 l 233 39 l 221 -3 l 216 -3 l 208 28 q 207 31 207 33 q 205 31 205 28 l 196 -3 z m 443 19 l 455 19 q 457 19 458 20 q 460 20 462 20 q 464 20 464 23 q 465 24 465 27 q 465 30 463 32 q 462 33 456 33 l 443 33 z m 256 1 l 267 1 q 269 1 270 2 l 273 2 q 274 4 276 5 l 276 9 q 276 11 274 13 q 274 15 272 15 l 265 15 l 256 15 z m 290 -3 l 290 39 l 295 39 l 295 -3 z m 657 17 q 657 8 660 5 q 664 1 671 1 q 678 1 681 5 q 685 8 685 18 q 685 23 684 26 q 682 31 679 32 q 676 33 671 33 q 665 33 662 30 q 657 26 657 17 z m 651 17 q 651 28 657 33 q 661 39 671 39 q 674 39 676 38 q 679 37 681 36 q 684 35 686 33 q 687 31 689 28 q 690 26 690 18 q 690 9 688 6 q 685 1 681 -2 q 677 -4 671 -4 q 668 -4 666 -4 q 663 -3 660 -2 q 658 0 656 2 q 655 4 654 6 q 653 9 652 12 q 651 14 651 17 z m 395 -3 l 411 39 l 417 39 l 434 -3 l 428 -3 l 423 9 l 406 9 l 400 -3 z m 306 -3 l 306 39 l 311 39 l 311 1 l 330 1 l 330 -3 z m 595 -3 l 595 2 l 602 2 l 602 -3 z m 499 13 l 499 18 l 516 18 l 516 2 q 512 -2 508 -3 q 506 -3 504 -4 q 501 -4 499 -4 q 493 -4 489 -2 q 486 0 484 2 q 482 3 481 6 q 480 9 479 12 q 478 14 478 17 q 478 21 479 23 q 480 25 481 28 q 483 34 488 36 q 490 37 493 38 q 496 39 499 39 q 504 39 507 37 q 511 36 512 33 q 515 30 516 27 l 511 26 q 511 27 508 30 q 508 32 504 33 l 499 33 l 493 33 q 490 32 488 30 q 488 29 485 26 q 485 24 484 22 q 484 20 484 18 q 484 11 486 9 q 490 3 491 2 q 494 1 499 1 q 503 1 506 2 q 508 4 509 4 q 510 4 511 5 l 511 13 z m 438 -3 l 438 39 l 456 39 q 459 39 461 38 q 463 37 465 37 q 468 36 469 33 q 471 31 471 27 q 471 22 468 19 q 467 18 464 18 q 462 17 459 15 q 461 15 462 14 q 462 14 463 14 q 464 12 464 10 q 465 9 467 7 l 475 -3 l 468 -3 l 462 5 q 460 7 460 8 q 459 10 458 11 q 458 13 457 13 q 456 13 455 14 l 454 14 q 453 14 453 14 q 453 15 452 15 l 450 15 l 443 15 l 443 -3 z m 337 -3 l 337 39 l 343 39 l 343 1 l 363 1 l 363 -3 z m 641 11 l 646 10 q 644 2 640 0 q 636 -4 629 -4 q 623 -4 619 -2 q 616 0 615 2 q 614 4 612 6 q 610 14 610 18 q 610 22 612 30 q 617 35 619 36 q 622 37 624 38 q 626 39 629 39 q 632 39 635 38 q 638 37 640 36 q 642 34 644 32 q 645 30 646 27 l 640 26 q 640 30 636 32 q 634 33 629 33 q 623 33 621 32 q 619 31 618 30 q 618 28 616 26 q 616 24 616 22 q 615 20 615 18 q 615 12 618 9 q 618 7 619 6 q 620 4 621 2 q 624 1 629 1 q 634 1 637 4 q 640 7 641 11 z m 698 -3 l 698 39 l 706 39 l 716 9 q 716 7 717 6 q 718 4 718 2 q 718 3 720 9 l 729 39 l 737 39 l 737 -3 l 732 -3 l 732 31 l 720 -3 l 715 -3 l 703 32 l 703 -3 z m 117 74 l 125 71 q 123 62 116 56 q 108 50 99 50 q 90 50 82 54 q 74 60 73 66 q 69 73 69 83 q 69 94 73 101 q 76 108 83 111 q 90 115 99 115 q 110 115 114 110 q 121 108 124 97 l 116 96 q 112 104 109 105 q 105 109 99 109 q 91 109 87 105 q 81 101 79 96 q 78 92 78 83 q 78 74 81 70 q 83 63 87 61 q 92 57 98 57 q 106 57 111 62 q 113 64 114 67 q 116 70 117 74 z m 133 82 q 133 90 135 96 q 137 102 142 106 q 146 111 152 113 q 157 115 163 115 q 172 115 179 111 q 185 108 190 100 q 194 90 194 83 q 194 78 193 74 q 192 70 190 66 q 185 58 178 54 q 170 50 163 50 q 158 50 154 51 q 151 52 147 54 q 140 58 137 66 q 133 73 133 82 z m 142 82 q 142 70 147 63 q 154 57 163 57 q 173 57 178 65 q 185 72 185 83 q 185 87 184 90 q 183 93 182 96 q 180 103 174 105 q 171 109 163 109 q 155 109 148 102 q 142 97 142 82 z m 204 52 l 204 114 l 216 114 l 231 70 q 234 64 234 61 q 236 63 238 71 l 254 114 l 264 114 l 264 52 l 256 52 l 256 104 l 238 52 l 230 52 l 212 105 l 212 52 z m 278 52 l 278 114 l 302 114 l 311 114 q 316 114 319 111 q 320 110 324 105 q 325 103 326 101 q 326 99 326 96 q 326 90 321 83 q 316 78 302 78 l 286 78 l 286 52 z m 286 84 l 303 84 q 312 84 313 88 q 317 89 317 96 q 317 101 316 102 q 312 106 309 106 q 308 108 302 108 l 286 108 z m 337 52 l 337 114 l 345 114 l 345 58 l 376 58 l 376 52 z m 386 52 l 386 114 l 432 114 l 432 108 l 394 108 l 394 88 l 429 88 l 429 80 l 394 80 l 394 58 l 433 58 l 433 52 z m 460 52 l 460 108 l 439 108 l 439 114 l 490 114 l 490 108 l 469 108 l 469 52 z m 499 52 l 499 114 l 545 114 l 545 108 l 507 108 l 507 88 l 542 88 l 542 80 l 507 80 l 507 58 l 546 58 l 546 52 z m 580 71 l 588 72 q 588 67 590 65 q 592 61 597 59 q 599 58 606 58 q 608 58 610 58 q 613 58 615 59 q 618 59 620 63 q 621 65 621 69 q 621 72 620 74 q 619 75 618 76 q 616 76 614 78 q 613 78 603 80 q 598 82 595 82 q 592 83 590 84 q 586 86 584 91 q 582 92 582 94 q 581 96 581 98 q 581 104 585 108 q 586 110 588 111 q 590 112 593 114 q 595 115 605 115 q 612 115 616 113 q 619 111 621 110 q 623 109 624 106 q 628 103 628 97 l 620 96 q 618 104 615 105 q 612 108 605 108 q 595 108 593 105 q 590 102 590 98 q 590 95 593 93 q 593 93 605 88 q 610 87 614 86 q 617 85 619 84 q 622 83 624 82 q 625 80 627 78 q 629 75 629 69 q 629 62 627 59 q 623 55 619 53 q 616 52 613 51 q 610 50 606 50 q 602 50 598 51 q 594 52 592 53 q 587 54 582 61 q 580 65 580 71 z m 641 52 l 641 114 l 686 114 l 686 108 l 650 108 l 650 88 l 685 88 l 685 80 l 650 80 l 650 58 l 688 58 l 688 52 z m 716 52 l 716 108 l 696 108 l 696 114 l 745 114 l 745 108 l 724 108 l 724 52 z m 75 127 l 75 189 l 100 189 l 109 189 q 111 189 117 187 q 118 186 120 184 q 121 182 122 180 q 124 178 124 173 q 124 164 118 158 q 115 153 100 153 l 85 153 l 85 127 z m 85 161 l 100 161 q 109 161 112 163 q 116 167 116 171 q 116 173 115 175 q 114 177 113 179 q 110 182 108 182 q 107 183 100 183 l 85 183 z m 134 127 l 134 189 l 179 189 l 179 183 l 143 183 l 143 163 l 177 163 l 177 156 l 143 156 l 143 135 l 181 135 l 181 127 z m 192 127 l 192 189 l 221 189 q 230 189 234 188 q 239 186 241 183 q 243 175 243 173 q 243 166 239 162 q 235 158 225 156 q 227 154 228 154 q 229 154 230 153 q 235 148 237 144 l 248 127 l 238 127 l 229 140 q 228 143 226 145 q 225 147 224 149 q 222 150 222 152 q 221 153 220 153 q 218 154 216 154 q 215 156 211 156 l 202 156 l 202 127 z m 202 162 l 218 162 q 226 162 228 163 q 231 166 233 167 q 234 169 234 173 q 234 177 231 180 q 228 183 221 183 l 202 183 z m 254 148 l 261 148 q 261 146 262 144 q 263 142 264 140 q 265 139 266 138 q 268 136 270 136 q 276 134 280 134 q 282 134 284 134 q 286 134 287 135 q 293 137 294 139 q 294 140 294 142 q 295 143 295 144 q 295 148 294 149 q 291 151 287 153 q 286 154 284 154 q 281 154 277 156 q 268 157 264 160 q 259 164 257 166 q 256 169 256 174 q 256 176 256 178 q 257 181 259 183 q 260 187 267 189 q 269 191 278 191 q 286 191 290 189 q 296 186 298 182 q 302 176 302 173 l 294 171 q 292 178 289 180 q 285 184 278 184 q 270 184 267 180 q 264 178 264 174 q 264 170 267 169 q 268 167 278 165 q 287 161 293 161 q 295 159 297 158 q 299 156 300 154 q 303 151 303 145 q 303 140 300 136 q 298 133 296 132 q 295 130 293 128 q 285 126 280 126 q 273 126 265 128 q 262 130 260 132 q 258 133 256 136 q 255 139 254 142 q 254 144 254 148 z m 312 158 q 312 172 320 182 q 329 191 342 191 q 346 191 350 190 q 353 189 358 187 q 362 185 364 182 q 366 179 368 175 q 372 168 372 158 q 372 149 368 141 q 364 134 358 130 q 350 126 342 126 q 333 126 326 131 q 317 136 316 143 q 312 148 312 158 z m 320 158 q 320 146 326 140 q 332 134 342 134 q 352 134 358 140 q 363 147 363 158 q 363 162 362 166 q 362 170 360 173 q 357 178 354 180 q 349 184 342 184 q 337 184 334 182 q 331 181 326 178 q 320 172 320 158 z m 382 127 l 382 189 l 391 189 l 424 141 l 424 189 l 432 189 l 432 127 l 424 127 l 390 176 l 390 127 z m 439 127 l 463 189 l 472 189 l 498 127 l 488 127 l 481 147 l 455 147 l 447 127 z m 456 153 l 478 153 l 472 170 q 470 174 469 178 q 468 181 467 183 q 467 180 466 177 q 465 174 464 171 z m 503 127 l 503 189 l 512 189 l 512 135 l 543 135 l 543 127 z m 615 189 l 623 189 l 623 154 q 623 143 621 139 q 619 133 614 130 q 609 126 599 126 q 589 126 585 130 q 582 131 580 134 q 578 136 576 139 q 575 141 575 154 l 575 189 l 582 189 l 582 154 q 582 144 584 141 q 586 137 589 136 q 591 135 593 134 q 595 134 598 134 q 606 134 611 137 q 615 141 615 154 z m 634 148 l 642 148 q 642 146 643 144 q 644 142 645 140 q 646 139 648 138 q 649 136 651 136 q 657 134 660 134 q 667 134 670 135 q 672 136 675 139 q 676 140 676 144 q 676 148 675 149 q 673 150 672 151 q 672 152 670 153 q 668 154 665 154 q 662 154 658 156 q 654 157 650 158 q 647 158 646 160 q 641 162 640 166 q 637 169 637 174 q 637 178 640 183 q 641 187 647 189 q 651 191 659 191 q 662 191 666 191 q 669 191 671 189 q 677 186 680 182 q 681 180 682 178 q 683 175 683 173 l 675 171 q 673 174 672 176 q 672 179 670 180 q 667 184 659 184 q 650 184 649 180 q 645 179 645 174 q 645 171 647 169 q 649 167 659 165 q 670 161 673 161 q 676 159 678 158 q 680 156 681 154 q 684 152 684 145 q 684 139 681 136 q 679 133 678 132 q 676 130 673 128 q 667 126 662 126 q 657 126 654 126 q 650 127 647 128 q 645 130 642 132 q 640 133 638 136 q 636 139 635 142 q 634 144 634 148 z m 696 127 l 696 189 l 741 189 l 741 183 l 705 183 l 705 163 l 738 163 l 738 156 l 705 156 l 705 135 l 742 135 l 742 127 z m 205 259 q 205 269 190 271 q 188 271 185 272 q 182 272 178 272 l 172 265 l 156 248 q 152 243 148 239 q 145 235 140 232 q 146 230 155 229 q 157 229 160 229 q 164 229 167 230 q 182 231 190 238 q 205 250 205 259 z m 216 289 q 216 293 211 293 q 209 293 194 288 l 183 278 q 181 276 179 272 l 196 275 q 200 275 207 280 q 216 286 216 289 z m 229 307 q 229 305 226 305 q 224 305 224 306 q 223 306 221 306 q 211 304 198 291 q 200 293 202 294 q 205 295 207 296 q 214 297 220 296 q 224 296 224 291 l 224 287 q 219 278 196 273 q 214 271 214 261 q 214 249 195 236 q 188 232 180 230 q 173 227 165 226 q 152 223 145 224 q 139 224 132 227 q 126 223 121 223 l 119 223 q 113 225 109 226 l 112 226 q 120 226 125 230 l 125 231 q 118 227 110 227 q 99 227 93 233 q 83 240 83 254 q 83 258 84 262 q 85 265 87 270 q 94 285 111 296 q 116 301 122 302 q 127 304 132 305 q 143 305 147 301 q 142 304 137 304 q 131 304 124 300 q 114 296 113 294 q 103 289 93 277 q 84 263 84 253 q 84 248 85 245 q 86 242 88 239 q 92 233 99 231 q 102 230 104 230 q 106 229 108 229 q 112 229 115 230 q 118 231 122 233 q 111 241 111 255 q 113 268 127 278 l 125 275 q 123 275 121 271 q 115 265 115 258 q 115 245 130 236 q 138 241 138 242 q 140 245 142 247 q 144 249 146 251 q 148 253 148 256 q 149 259 151 262 l 151 261 q 151 256 150 253 l 162 267 q 193 302 213 308 q 204 311 199 311 q 186 310 171 302 q 153 293 153 280 q 153 276 156 273 q 157 272 157 271 q 151 275 151 281 q 151 292 164 303 q 180 315 198 313 q 204 313 216 309 l 220 309 q 225 309 228 307 z m 231 242 q 230 238 223 231 q 216 227 211 227 q 206 227 206 233 q 206 238 212 246 l 211 246 q 210 245 207 245 q 207 245 206 246 q 209 246 216 253 l 217 253 l 220 257 q 223 260 223 262 l 226 262 q 229 262 229 261 q 229 257 223 250 l 216 243 q 210 234 210 231 q 210 228 214 228 q 219 228 226 238 q 227 239 228 240 q 229 240 231 242 z m 236 270 q 232 264 226 264 q 223 264 219 267 l 222 267 q 229 267 231 274 l 231 276 l 236 274 q 237 273 236 270 z m 271 289 q 271 284 240 247 l 239 247 q 230 236 230 230 q 230 227 233 227 q 239 227 246 237 q 247 238 248 238 q 249 239 250 241 q 250 236 242 230 q 237 226 231 226 q 225 227 225 232 q 224 237 245 263 l 257 278 l 263 284 q 266 288 268 294 q 271 292 271 289 z m 288 289 q 288 285 256 247 q 246 235 246 230 q 246 227 250 227 q 254 227 263 237 l 267 241 q 266 236 258 230 q 253 226 247 226 q 241 227 241 232 q 241 238 261 263 l 273 278 l 279 284 q 284 290 285 294 q 288 292 288 289 z m 269 222 q 253 219 244 210 q 237 201 237 199 q 237 195 241 195 q 242 194 248 196 q 250 198 252 200 q 255 203 258 206 z m 298 287 q 296 273 285 262 q 285 261 284 261 q 284 261 284 260 q 281 256 278 252 q 274 249 271 244 q 269 242 269 240 q 268 242 270 246 q 264 237 264 232 q 264 229 267 229 q 268 229 272 231 q 287 243 293 265 l 293 262 l 293 259 q 295 257 295 254 q 295 252 290 244 l 282 231 l 273 219 q 276 221 284 225 l 283 224 q 281 222 278 220 q 274 217 271 212 l 263 202 l 259 197 q 253 191 246 189 q 240 189 237 193 q 231 195 235 202 q 236 203 237 205 q 238 207 240 209 l 241 210 l 234 209 q 251 221 262 222 q 263 222 264 222 q 265 223 266 223 l 267 223 l 269 223 l 275 232 q 271 228 268 228 q 265 227 263 227 q 258 227 258 232 q 258 244 279 263 l 281 264 l 291 274 q 293 278 295 281 q 297 284 298 287 z m 412 302 q 406 304 402 304 q 392 304 384 302 q 375 299 366 294 q 362 292 360 290 q 357 287 354 285 q 366 284 386 272 q 408 294 424 300 z m 433 298 q 429 297 424 296 q 420 294 415 289 q 412 287 400 275 l 393 268 l 403 262 q 405 265 409 270 q 413 274 418 280 z m 442 315 q 442 314 441 313 q 441 306 438 299 l 439 298 l 438 298 q 433 286 425 278 l 409 259 q 411 258 412 258 q 413 258 415 257 q 415 255 414 255 q 412 255 411 256 q 410 256 408 257 q 396 244 395 233 q 393 229 393 227 q 393 223 397 223 q 405 223 414 236 l 418 242 q 428 256 431 267 l 431 270 q 431 269 432 268 l 432 267 q 430 253 422 241 l 409 215 q 409 219 412 228 q 400 219 394 219 q 385 219 387 231 q 387 237 391 244 q 395 252 401 261 l 391 266 l 382 257 q 379 253 374 247 q 368 241 360 231 q 344 215 332 215 l 329 215 q 326 215 320 218 q 320 218 322 218 q 331 216 340 225 q 332 221 321 221 q 310 221 303 226 l 304 226 q 294 233 294 247 q 294 257 298 262 q 304 278 321 289 q 327 294 332 296 q 338 297 344 298 q 354 298 358 294 l 357 294 q 355 296 348 296 q 338 296 323 287 q 312 279 304 270 q 295 256 295 245 q 295 229 310 224 q 316 222 319 222 q 340 223 365 250 l 384 270 q 369 279 350 279 l 349 279 q 347 275 347 270 q 348 270 352 264 q 345 268 345 274 q 345 277 346 279 q 336 277 333 275 q 315 268 317 254 q 317 245 323 238 l 325 236 q 313 248 313 257 q 313 270 325 279 q 335 286 350 286 q 364 302 385 305 q 390 306 401 306 q 406 306 416 304 l 428 301 l 434 301 l 435 300 q 439 307 441 317 l 442 317 z m 455 250 q 455 247 454 245 q 449 240 446 236 q 442 232 439 227 l 440 227 l 441 227 q 440 226 439 226 q 438 226 438 225 q 433 225 433 227 q 433 231 442 240 q 449 249 449 251 q 450 254 446 257 q 434 240 425 236 l 421 234 l 419 235 q 423 235 432 245 q 441 253 444 258 q 444 259 444 259 q 443 259 443 260 q 443 261 450 267 q 450 268 451 268 l 452 267 q 452 266 447 259 q 455 256 455 250 z m 484 253 q 484 259 480 257 q 476 257 474 255 q 471 253 465 245 q 459 237 459 232 q 458 230 461 230 q 467 232 471 237 q 475 245 475 248 q 475 250 474 250 q 478 250 478 245 l 477 243 q 479 245 480 248 q 482 250 484 252 z m 503 262 q 499 262 494 257 q 490 252 486 246 q 482 240 477 232 q 472 222 468 216 q 464 211 463 209 q 450 193 443 193 q 437 192 434 197 q 434 202 434 202 q 434 207 438 211 q 436 210 433 210 q 443 220 455 223 q 456 223 456 224 q 457 224 459 224 l 460 223 q 441 217 437 205 q 436 203 436 200 q 436 199 437 198 q 437 197 438 197 q 446 196 457 212 l 464 222 l 468 228 q 465 227 463 227 q 455 227 455 235 q 455 244 468 256 q 474 262 479 262 q 486 262 486 254 l 487 254 l 492 260 q 497 265 501 265 q 504 265 506 262 z m 521 255 q 521 249 510 243 q 509 242 508 242 l 507 242 q 504 242 501 247 q 503 245 506 245 q 513 249 515 256 l 515 258 l 515 259 l 515 260 q 511 260 502 251 l 502 250 q 499 246 498 244 q 498 241 498 239 q 497 240 497 245 q 495 241 494 238 q 492 234 492 231 q 492 230 493 229 q 493 227 497 227 q 507 231 514 237 q 516 239 519 241 q 517 238 515 236 q 513 233 508 230 q 500 225 494 227 q 494 226 493 227 q 487 227 487 233 q 487 243 498 253 q 504 262 514 262 q 516 262 517 261 q 521 258 521 255 z m 561 289 q 561 285 529 247 q 520 236 520 230 q 520 227 523 227 q 529 227 536 237 q 537 238 538 238 q 539 239 540 241 q 540 236 532 230 q 527 226 520 226 q 515 228 515 232 q 515 240 534 263 l 546 278 l 552 284 q 558 290 558 294 q 561 292 561 289 z m 615 258 q 598 264 597 277 q 592 274 587 272 q 582 269 579 266 q 560 248 560 233 q 560 227 563 226 l 565 226 l 567 226 q 582 226 595 236 q 599 240 604 245 q 610 250 615 258 z m 635 287 l 627 287 q 615 286 598 278 q 600 264 617 261 l 624 270 z m 653 305 q 640 305 630 303 q 619 301 611 296 q 616 301 624 304 q 631 307 640 309 q 620 310 605 297 q 602 295 598 287 q 605 289 612 290 q 618 291 626 290 q 628 290 631 290 q 634 290 639 289 q 641 292 644 296 q 648 300 653 305 z m 716 306 q 714 303 712 300 q 709 298 704 296 q 696 291 689 291 l 687 291 q 686 291 685 292 q 686 293 686 294 q 686 295 688 297 q 679 304 663 304 l 659 299 l 649 287 q 657 286 664 285 q 671 284 677 284 q 691 284 696 287 q 692 283 681 281 q 672 279 663 282 l 647 285 q 643 280 640 276 q 636 273 634 269 l 627 259 l 632 259 q 657 261 661 271 l 662 271 q 659 265 649 260 q 644 258 640 257 q 635 256 631 256 l 626 256 q 619 248 614 242 q 610 236 606 232 q 593 218 582 218 q 577 219 571 219 q 581 219 592 229 q 578 223 570 223 l 564 224 l 572 216 q 564 220 559 225 q 558 225 554 227 q 542 236 541 250 q 541 255 541 259 q 541 263 543 267 q 546 276 551 282 q 556 289 563 296 q 580 311 593 311 q 600 311 605 307 l 604 306 q 601 309 595 309 q 582 307 568 296 q 556 286 550 276 q 542 262 542 250 q 544 232 558 227 q 556 233 557 239 q 559 254 568 265 q 579 279 598 287 q 600 289 600 293 l 609 302 q 622 313 643 313 q 648 313 652 313 q 655 313 660 312 l 661 312 q 668 317 674 320 q 679 322 685 321 q 689 321 691 319 q 680 317 680 317 q 678 316 676 315 q 673 314 670 312 q 674 311 678 310 q 682 310 687 308 q 697 305 703 305 q 712 305 716 306 z m 655 236 q 652 239 652 243 q 652 245 652 246 q 653 248 653 250 q 643 237 644 231 q 644 229 646 229 q 648 229 655 236 z m 668 257 q 668 259 666 259 q 664 259 662 258 q 661 257 659 253 q 654 243 654 240 q 654 237 655 236 l 658 239 l 658 240 l 658 239 q 659 240 659 240 q 659 241 660 242 q 662 248 662 250 q 662 251 661 252 q 663 248 663 247 q 666 250 668 257 z m 672 254 q 672 249 665 239 q 656 230 652 227 l 644 227 q 638 227 638 232 q 638 240 649 253 q 656 262 665 262 q 672 262 672 254 z m 705 256 q 706 254 701 245 q 695 237 693 235 l 681 224 q 674 217 672 209 q 673 221 681 230 q 685 234 687 237 q 689 240 691 244 q 692 245 693 248 l 693 245 q 693 245 692 243 q 694 245 698 253 q 698 254 698 254 q 699 255 699 256 q 699 261 694 259 q 694 259 686 253 q 684 248 680 244 q 677 241 673 236 q 668 230 667 227 q 666 226 662 218 q 662 220 662 222 q 661 225 662 227 q 664 234 671 241 l 677 248 q 682 255 682 259 q 682 260 682 261 q 681 262 681 263 q 687 261 687 257 q 693 262 700 262 q 704 260 705 256 z m 744 270 l 729 270 q 728 268 722 262 q 717 256 709 245 q 707 245 705 240 q 701 235 701 230 q 701 227 703 227 q 708 227 717 237 l 718 238 q 719 239 719 240 q 719 240 720 241 q 720 236 713 230 q 708 226 701 226 q 696 228 695 232 q 695 234 699 242 l 711 256 l 722 270 l 705 272 q 701 273 695 273 l 686 273 q 674 273 662 268 l 661 268 q 671 278 692 278 q 693 278 700 276 q 708 275 722 273 l 725 272 q 728 277 730 280 q 733 284 735 287 q 737 286 737 282 q 737 279 735 277 l 731 271 l 739 270 l 745 270 l 746 270 l 749 270 z m 751 257 q 751 254 744 251 l 743 250 q 746 253 746 258 l 746 262 l 743 262 q 738 262 737 258 q 737 256 740 241 q 741 227 724 227 q 715 227 713 233 q 712 234 712 236 q 712 244 724 246 l 728 245 l 726 245 q 722 245 720 243 q 717 238 717 236 q 717 228 725 228 q 733 228 733 239 q 733 244 732 247 q 731 250 731 254 q 731 264 740 264 q 742 264 743 264 q 744 263 746 263 q 750 261 750 260 q 751 259 751 257 z"},"r":{"x_min":0,"x_max":358,"ha":358,"o":"m 173 537 q 182 538 195 544 q 208 550 222 554 q 236 559 250 558 q 265 557 276 544 q 281 538 286 528 q 291 518 294 508 q 297 497 296 488 q 296 478 290 473 q 284 468 278 442 q 271 417 270 384 q 270 351 280 316 q 289 281 315 257 q 320 252 316 243 q 312 234 302 226 q 292 218 277 212 q 262 206 246 208 q 230 210 214 222 q 199 234 187 260 q 175 286 176 323 q 176 360 180 395 q 184 430 189 456 q 194 481 191 483 q 187 486 179 472 q 171 458 160 432 q 149 407 138 372 q 126 338 116 301 q 106 264 98 226 q 90 188 87 156 q 87 111 88 75 q 90 39 94 13 q 95 7 80 4 q 64 1 45 2 q 26 4 11 13 q -4 22 -2 40 q -2 43 0 92 q 2 141 4 218 l 3 218 q 6 305 7 358 q 8 410 7 443 q 6 476 4 498 q 2 520 -2 547 q -3 553 12 556 q 27 559 46 558 q 64 556 80 547 q 95 538 94 520 q 92 472 91 428 q 90 384 89 342 q 99 378 112 412 q 124 447 136 474 q 147 502 157 519 q 167 536 173 537 z"},"2":{"x_min":0,"x_max":813,"ha":813,"o":"m 584 521 l 493 438 l 517 314 l 410 377 l 300 314 l 326 435 l 234 521 l 358 534 l 410 648 l 460 535 z m 455 384 l 426 556 l 391 556 l 361 384 l 376 375 l 389 384 l 395 423 l 421 423 l 428 384 l 442 375 z m 419 448 l 399 448 l 408 516 z m 407 14 l 421 14 l 416 26 q 415 28 415 30 q 415 31 413 33 q 413 30 411 26 z m 235 -3 l 235 2 l 242 2 l 242 -3 z m 563 -3 l 563 39 l 568 39 l 568 1 l 589 1 l 589 -3 z m 525 -3 l 525 39 l 555 39 l 555 33 l 530 33 l 530 20 l 553 20 l 553 15 l 530 15 l 530 1 l 555 1 l 555 -3 z m 377 -3 l 377 14 l 361 39 l 368 39 l 376 26 q 378 20 380 19 q 381 20 382 22 q 383 24 385 26 l 393 39 l 399 39 l 382 14 l 382 -3 z m 251 -3 l 251 39 l 267 39 q 269 39 270 38 q 272 37 273 37 q 277 36 278 33 q 280 31 280 27 q 280 24 278 23 q 277 19 274 19 q 277 18 280 15 q 282 11 282 9 q 282 7 282 6 q 281 5 281 4 q 280 0 277 0 q 276 -2 275 -2 q 274 -2 273 -3 l 267 -3 z m 137 -3 l 125 39 l 131 39 l 137 11 q 138 8 138 6 q 138 4 139 2 q 140 7 140 10 l 148 39 l 155 39 l 161 17 q 162 12 163 9 q 164 6 164 2 q 165 4 165 6 q 165 8 166 11 l 173 39 l 178 39 l 166 -3 l 161 -3 l 153 28 q 152 31 152 33 q 151 31 151 28 l 142 -3 z m 82 -3 l 70 39 l 77 39 l 82 11 q 82 6 85 2 q 86 7 86 10 l 94 39 l 100 39 l 107 17 q 108 12 108 9 q 109 6 109 2 q 111 4 111 6 q 111 8 112 11 l 118 39 l 124 39 l 112 -3 l 107 -3 l 99 28 q 98 31 98 33 q 96 31 96 28 l 87 -3 z m 256 20 l 265 20 q 269 20 270 22 q 273 22 273 23 q 274 24 274 27 q 274 30 273 31 l 272 31 q 271 31 271 32 q 271 32 270 32 q 269 33 264 33 l 256 33 z m 190 -3 l 179 39 l 185 39 l 191 11 q 192 8 192 6 q 192 4 194 2 q 194 6 194 8 q 195 9 195 10 l 203 39 l 209 39 l 216 17 q 217 12 218 9 q 218 6 218 2 q 220 4 220 6 q 220 8 221 11 l 228 39 l 233 39 l 221 -3 l 216 -3 l 208 28 q 207 31 207 33 q 205 31 205 28 l 196 -3 z m 443 19 l 455 19 q 457 19 458 20 q 460 20 462 20 q 464 20 464 23 q 465 24 465 27 q 465 30 463 32 q 462 33 456 33 l 443 33 z m 256 1 l 267 1 q 269 1 270 2 l 273 2 q 274 4 276 5 l 276 9 q 276 11 274 13 q 274 15 272 15 l 265 15 l 256 15 z m 290 -3 l 290 39 l 295 39 l 295 -3 z m 657 17 q 657 8 660 5 q 664 1 671 1 q 678 1 681 5 q 685 8 685 18 q 685 23 684 26 q 682 31 679 32 q 676 33 671 33 q 665 33 662 30 q 657 26 657 17 z m 651 17 q 651 28 657 33 q 661 39 671 39 q 674 39 676 38 q 679 37 681 36 q 684 35 686 33 q 687 31 689 28 q 690 26 690 18 q 690 9 688 6 q 685 1 681 -2 q 677 -4 671 -4 q 668 -4 666 -4 q 663 -3 660 -2 q 658 0 656 2 q 655 4 654 6 q 653 9 652 12 q 651 14 651 17 z m 395 -3 l 411 39 l 417 39 l 434 -3 l 428 -3 l 423 9 l 406 9 l 400 -3 z m 306 -3 l 306 39 l 311 39 l 311 1 l 330 1 l 330 -3 z m 595 -3 l 595 2 l 602 2 l 602 -3 z m 499 13 l 499 18 l 516 18 l 516 2 q 512 -2 508 -3 q 506 -3 504 -4 q 501 -4 499 -4 q 493 -4 489 -2 q 486 0 484 2 q 482 3 481 6 q 480 9 479 12 q 478 14 478 17 q 478 21 479 23 q 480 25 481 28 q 483 34 488 36 q 490 37 493 38 q 496 39 499 39 q 504 39 507 37 q 511 36 512 33 q 515 30 516 27 l 511 26 q 511 27 508 30 q 508 32 504 33 l 499 33 l 493 33 q 490 32 488 30 q 488 29 485 26 q 485 24 484 22 q 484 20 484 18 q 484 11 486 9 q 490 3 491 2 q 494 1 499 1 q 503 1 506 2 q 508 4 509 4 q 510 4 511 5 l 511 13 z m 438 -3 l 438 39 l 456 39 q 459 39 461 38 q 463 37 465 37 q 468 36 469 33 q 471 31 471 27 q 471 22 468 19 q 467 18 464 18 q 462 17 459 15 q 461 15 462 14 q 462 14 463 14 q 464 12 464 10 q 465 9 467 7 l 475 -3 l 468 -3 l 462 5 q 460 7 460 8 q 459 10 458 11 q 458 13 457 13 q 456 13 455 14 l 454 14 q 453 14 453 14 q 453 15 452 15 l 450 15 l 443 15 l 443 -3 z m 337 -3 l 337 39 l 343 39 l 343 1 l 363 1 l 363 -3 z m 641 11 l 646 10 q 644 2 640 0 q 636 -4 629 -4 q 623 -4 619 -2 q 616 0 615 2 q 614 4 612 6 q 610 14 610 18 q 610 22 612 30 q 617 35 619 36 q 622 37 624 38 q 626 39 629 39 q 632 39 635 38 q 638 37 640 36 q 642 34 644 32 q 645 30 646 27 l 640 26 q 640 30 636 32 q 634 33 629 33 q 623 33 621 32 q 619 31 618 30 q 618 28 616 26 q 616 24 616 22 q 615 20 615 18 q 615 12 618 9 q 618 7 619 6 q 620 4 621 2 q 624 1 629 1 q 634 1 637 4 q 640 7 641 11 z m 698 -3 l 698 39 l 706 39 l 716 9 q 716 7 717 6 q 718 4 718 2 q 718 3 720 9 l 729 39 l 737 39 l 737 -3 l 732 -3 l 732 31 l 720 -3 l 715 -3 l 703 32 l 703 -3 z m 407 14 l 421 14 l 416 26 q 415 28 415 30 q 415 31 413 33 q 413 30 411 26 z m 235 -3 l 235 2 l 242 2 l 242 -3 z m 563 -3 l 563 39 l 568 39 l 568 1 l 589 1 l 589 -3 z m 525 -3 l 525 39 l 555 39 l 555 33 l 530 33 l 530 20 l 553 20 l 553 15 l 530 15 l 530 1 l 555 1 l 555 -3 z m 377 -3 l 377 14 l 361 39 l 368 39 l 376 26 q 378 20 380 19 q 381 20 382 22 q 383 24 385 26 l 393 39 l 399 39 l 382 14 l 382 -3 z m 251 -3 l 251 39 l 267 39 q 269 39 270 38 q 272 37 273 37 q 277 36 278 33 q 280 31 280 27 q 280 24 278 23 q 277 19 274 19 q 277 18 280 15 q 282 11 282 9 q 282 7 282 6 q 281 5 281 4 q 280 0 277 0 q 276 -2 275 -2 q 274 -2 273 -3 l 267 -3 z m 137 -3 l 125 39 l 131 39 l 137 11 q 138 8 138 6 q 138 4 139 2 q 140 7 140 10 l 148 39 l 155 39 l 161 17 q 162 12 163 9 q 164 6 164 2 q 165 4 165 6 q 165 8 166 11 l 173 39 l 178 39 l 166 -3 l 161 -3 l 153 28 q 152 31 152 33 q 151 31 151 28 l 142 -3 z m 82 -3 l 70 39 l 77 39 l 82 11 q 82 6 85 2 q 86 7 86 10 l 94 39 l 100 39 l 107 17 q 108 12 108 9 q 109 6 109 2 q 111 4 111 6 q 111 8 112 11 l 118 39 l 124 39 l 112 -3 l 107 -3 l 99 28 q 98 31 98 33 q 96 31 96 28 l 87 -3 z m 256 20 l 265 20 q 269 20 270 22 q 273 22 273 23 q 274 24 274 27 q 274 30 273 31 l 272 31 q 271 31 271 32 q 271 32 270 32 q 269 33 264 33 l 256 33 z m 190 -3 l 179 39 l 185 39 l 191 11 q 192 8 192 6 q 192 4 194 2 q 194 6 194 8 q 195 9 195 10 l 203 39 l 209 39 l 216 17 q 217 12 218 9 q 218 6 218 2 q 220 4 220 6 q 220 8 221 11 l 228 39 l 233 39 l 221 -3 l 216 -3 l 208 28 q 207 31 207 33 q 205 31 205 28 l 196 -3 z m 443 19 l 455 19 q 457 19 458 20 q 460 20 462 20 q 464 20 464 23 q 465 24 465 27 q 465 30 463 32 q 462 33 456 33 l 443 33 z m 256 1 l 267 1 q 269 1 270 2 l 273 2 q 274 4 276 5 l 276 9 q 276 11 274 13 q 274 15 272 15 l 265 15 l 256 15 z m 290 -3 l 290 39 l 295 39 l 295 -3 z m 657 17 q 657 8 660 5 q 664 1 671 1 q 678 1 681 5 q 685 8 685 18 q 685 23 684 26 q 682 31 679 32 q 676 33 671 33 q 665 33 662 30 q 657 26 657 17 z m 651 17 q 651 28 657 33 q 661 39 671 39 q 674 39 676 38 q 679 37 681 36 q 684 35 686 33 q 687 31 689 28 q 690 26 690 18 q 690 9 688 6 q 685 1 681 -2 q 677 -4 671 -4 q 668 -4 666 -4 q 663 -3 660 -2 q 658 0 656 2 q 655 4 654 6 q 653 9 652 12 q 651 14 651 17 z m 395 -3 l 411 39 l 417 39 l 434 -3 l 428 -3 l 423 9 l 406 9 l 400 -3 z m 306 -3 l 306 39 l 311 39 l 311 1 l 330 1 l 330 -3 z m 595 -3 l 595 2 l 602 2 l 602 -3 z m 499 13 l 499 18 l 516 18 l 516 2 q 512 -2 508 -3 q 506 -3 504 -4 q 501 -4 499 -4 q 493 -4 489 -2 q 486 0 484 2 q 482 3 481 6 q 480 9 479 12 q 478 14 478 17 q 478 21 479 23 q 480 25 481 28 q 483 34 488 36 q 490 37 493 38 q 496 39 499 39 q 504 39 507 37 q 511 36 512 33 q 515 30 516 27 l 511 26 q 511 27 508 30 q 508 32 504 33 l 499 33 l 493 33 q 490 32 488 30 q 488 29 485 26 q 485 24 484 22 q 484 20 484 18 q 484 11 486 9 q 490 3 491 2 q 494 1 499 1 q 503 1 506 2 q 508 4 509 4 q 510 4 511 5 l 511 13 z m 438 -3 l 438 39 l 456 39 q 459 39 461 38 q 463 37 465 37 q 468 36 469 33 q 471 31 471 27 q 471 22 468 19 q 467 18 464 18 q 462 17 459 15 q 461 15 462 14 q 462 14 463 14 q 464 12 464 10 q 465 9 467 7 l 475 -3 l 468 -3 l 462 5 q 460 7 460 8 q 459 10 458 11 q 458 13 457 13 q 456 13 455 14 l 454 14 q 453 14 453 14 q 453 15 452 15 l 450 15 l 443 15 l 443 -3 z m 337 -3 l 337 39 l 343 39 l 343 1 l 363 1 l 363 -3 z m 641 11 l 646 10 q 644 2 640 0 q 636 -4 629 -4 q 623 -4 619 -2 q 616 0 615 2 q 614 4 612 6 q 610 14 610 18 q 610 22 612 30 q 617 35 619 36 q 622 37 624 38 q 626 39 629 39 q 632 39 635 38 q 638 37 640 36 q 642 34 644 32 q 645 30 646 27 l 640 26 q 640 30 636 32 q 634 33 629 33 q 623 33 621 32 q 619 31 618 30 q 618 28 616 26 q 616 24 616 22 q 615 20 615 18 q 615 12 618 9 q 618 7 619 6 q 620 4 621 2 q 624 1 629 1 q 634 1 637 4 q 640 7 641 11 z m 698 -3 l 698 39 l 706 39 l 716 9 q 716 7 717 6 q 718 4 718 2 q 718 3 720 9 l 729 39 l 737 39 l 737 -3 l 732 -3 l 732 31 l 720 -3 l 715 -3 l 703 32 l 703 -3 z m 407 14 l 421 14 l 416 26 q 415 28 415 30 q 415 31 413 33 q 413 30 411 26 z m 235 -3 l 235 2 l 242 2 l 242 -3 z m 563 -3 l 563 39 l 568 39 l 568 1 l 589 1 l 589 -3 z m 525 -3 l 525 39 l 555 39 l 555 33 l 530 33 l 530 20 l 553 20 l 553 15 l 530 15 l 530 1 l 555 1 l 555 -3 z m 377 -3 l 377 14 l 361 39 l 368 39 l 376 26 q 378 20 380 19 q 381 20 382 22 q 383 24 385 26 l 393 39 l 399 39 l 382 14 l 382 -3 z m 251 -3 l 251 39 l 267 39 q 269 39 270 38 q 272 37 273 37 q 277 36 278 33 q 280 31 280 27 q 280 24 278 23 q 277 19 274 19 q 277 18 280 15 q 282 11 282 9 q 282 7 282 6 q 281 5 281 4 q 280 0 277 0 q 276 -2 275 -2 q 274 -2 273 -3 l 267 -3 z m 137 -3 l 125 39 l 131 39 l 137 11 q 138 8 138 6 q 138 4 139 2 q 140 7 140 10 l 148 39 l 155 39 l 161 17 q 162 12 163 9 q 164 6 164 2 q 165 4 165 6 q 165 8 166 11 l 173 39 l 178 39 l 166 -3 l 161 -3 l 153 28 q 152 31 152 33 q 151 31 151 28 l 142 -3 z m 82 -3 l 70 39 l 77 39 l 82 11 q 82 6 85 2 q 86 7 86 10 l 94 39 l 100 39 l 107 17 q 108 12 108 9 q 109 6 109 2 q 111 4 111 6 q 111 8 112 11 l 118 39 l 124 39 l 112 -3 l 107 -3 l 99 28 q 98 31 98 33 q 96 31 96 28 l 87 -3 z m 256 20 l 265 20 q 269 20 270 22 q 273 22 273 23 q 274 24 274 27 q 274 30 273 31 l 272 31 q 271 31 271 32 q 271 32 270 32 q 269 33 264 33 l 256 33 z m 190 -3 l 179 39 l 185 39 l 191 11 q 192 8 192 6 q 192 4 194 2 q 194 6 194 8 q 195 9 195 10 l 203 39 l 209 39 l 216 17 q 217 12 218 9 q 218 6 218 2 q 220 4 220 6 q 220 8 221 11 l 228 39 l 233 39 l 221 -3 l 216 -3 l 208 28 q 207 31 207 33 q 205 31 205 28 l 196 -3 z m 443 19 l 455 19 q 457 19 458 20 q 460 20 462 20 q 464 20 464 23 q 465 24 465 27 q 465 30 463 32 q 462 33 456 33 l 443 33 z m 256 1 l 267 1 q 269 1 270 2 l 273 2 q 274 4 276 5 l 276 9 q 276 11 274 13 q 274 15 272 15 l 265 15 l 256 15 z m 290 -3 l 290 39 l 295 39 l 295 -3 z m 657 17 q 657 8 660 5 q 664 1 671 1 q 678 1 681 5 q 685 8 685 18 q 685 23 684 26 q 682 31 679 32 q 676 33 671 33 q 665 33 662 30 q 657 26 657 17 z m 651 17 q 651 28 657 33 q 661 39 671 39 q 674 39 676 38 q 679 37 681 36 q 684 35 686 33 q 687 31 689 28 q 690 26 690 18 q 690 9 688 6 q 685 1 681 -2 q 677 -4 671 -4 q 668 -4 666 -4 q 663 -3 660 -2 q 658 0 656 2 q 655 4 654 6 q 653 9 652 12 q 651 14 651 17 z m 395 -3 l 411 39 l 417 39 l 434 -3 l 428 -3 l 423 9 l 406 9 l 400 -3 z m 306 -3 l 306 39 l 311 39 l 311 1 l 330 1 l 330 -3 z m 595 -3 l 595 2 l 602 2 l 602 -3 z m 499 13 l 499 18 l 516 18 l 516 2 q 512 -2 508 -3 q 506 -3 504 -4 q 501 -4 499 -4 q 493 -4 489 -2 q 486 0 484 2 q 482 3 481 6 q 480 9 479 12 q 478 14 478 17 q 478 21 479 23 q 480 25 481 28 q 483 34 488 36 q 490 37 493 38 q 496 39 499 39 q 504 39 507 37 q 511 36 512 33 q 515 30 516 27 l 511 26 q 511 27 508 30 q 508 32 504 33 l 499 33 l 493 33 q 490 32 488 30 q 488 29 485 26 q 485 24 484 22 q 484 20 484 18 q 484 11 486 9 q 490 3 491 2 q 494 1 499 1 q 503 1 506 2 q 508 4 509 4 q 510 4 511 5 l 511 13 z m 438 -3 l 438 39 l 456 39 q 459 39 461 38 q 463 37 465 37 q 468 36 469 33 q 471 31 471 27 q 471 22 468 19 q 467 18 464 18 q 462 17 459 15 q 461 15 462 14 q 462 14 463 14 q 464 12 464 10 q 465 9 467 7 l 475 -3 l 468 -3 l 462 5 q 460 7 460 8 q 459 10 458 11 q 458 13 457 13 q 456 13 455 14 l 454 14 q 453 14 453 14 q 453 15 452 15 l 450 15 l 443 15 l 443 -3 z m 337 -3 l 337 39 l 343 39 l 343 1 l 363 1 l 363 -3 z m 641 11 l 646 10 q 644 2 640 0 q 636 -4 629 -4 q 623 -4 619 -2 q 616 0 615 2 q 614 4 612 6 q 610 14 610 18 q 610 22 612 30 q 617 35 619 36 q 622 37 624 38 q 626 39 629 39 q 632 39 635 38 q 638 37 640 36 q 642 34 644 32 q 645 30 646 27 l 640 26 q 640 30 636 32 q 634 33 629 33 q 623 33 621 32 q 619 31 618 30 q 618 28 616 26 q 616 24 616 22 q 615 20 615 18 q 615 12 618 9 q 618 7 619 6 q 620 4 621 2 q 624 1 629 1 q 634 1 637 4 q 640 7 641 11 z m 698 -3 l 698 39 l 706 39 l 716 9 q 716 7 717 6 q 718 4 718 2 q 718 3 720 9 l 729 39 l 737 39 l 737 -3 l 732 -3 l 732 31 l 720 -3 l 715 -3 l 703 32 l 703 -3 z m 117 74 l 125 71 q 123 62 116 56 q 108 50 99 50 q 90 50 82 54 q 74 60 73 66 q 69 73 69 83 q 69 94 73 101 q 76 108 83 111 q 90 115 99 115 q 110 115 114 110 q 121 108 124 97 l 116 96 q 112 104 109 105 q 105 109 99 109 q 91 109 87 105 q 81 101 79 96 q 78 92 78 83 q 78 74 81 70 q 83 63 87 61 q 92 57 98 57 q 106 57 111 62 q 113 64 114 67 q 116 70 117 74 z m 133 82 q 133 90 135 96 q 137 102 142 106 q 146 111 152 113 q 157 115 163 115 q 172 115 179 111 q 185 108 190 100 q 194 90 194 83 q 194 78 193 74 q 192 70 190 66 q 185 58 178 54 q 170 50 163 50 q 158 50 154 51 q 151 52 147 54 q 140 58 137 66 q 133 73 133 82 z m 142 82 q 142 70 147 63 q 154 57 163 57 q 173 57 178 65 q 185 72 185 83 q 185 87 184 90 q 183 93 182 96 q 180 103 174 105 q 171 109 163 109 q 155 109 148 102 q 142 97 142 82 z m 204 52 l 204 114 l 216 114 l 231 70 q 234 64 234 61 q 236 63 238 71 l 254 114 l 264 114 l 264 52 l 256 52 l 256 104 l 238 52 l 230 52 l 212 105 l 212 52 z m 278 52 l 278 114 l 302 114 l 311 114 q 316 114 319 111 q 320 110 324 105 q 325 103 326 101 q 326 99 326 96 q 326 90 321 83 q 316 78 302 78 l 286 78 l 286 52 z m 286 84 l 303 84 q 312 84 313 88 q 317 89 317 96 q 317 101 316 102 q 312 106 309 106 q 308 108 302 108 l 286 108 z m 337 52 l 337 114 l 345 114 l 345 58 l 376 58 l 376 52 z m 386 52 l 386 114 l 432 114 l 432 108 l 394 108 l 394 88 l 429 88 l 429 80 l 394 80 l 394 58 l 433 58 l 433 52 z m 460 52 l 460 108 l 439 108 l 439 114 l 490 114 l 490 108 l 469 108 l 469 52 z m 499 52 l 499 114 l 545 114 l 545 108 l 507 108 l 507 88 l 542 88 l 542 80 l 507 80 l 507 58 l 546 58 l 546 52 z m 580 71 l 588 72 q 588 67 590 65 q 592 61 597 59 q 599 58 606 58 q 608 58 610 58 q 613 58 615 59 q 618 59 620 63 q 621 65 621 69 q 621 72 620 74 q 619 75 618 76 q 616 76 614 78 q 613 78 603 80 q 598 82 595 82 q 592 83 590 84 q 586 86 584 91 q 582 92 582 94 q 581 96 581 98 q 581 104 585 108 q 586 110 588 111 q 590 112 593 114 q 595 115 605 115 q 612 115 616 113 q 619 111 621 110 q 623 109 624 106 q 628 103 628 97 l 620 96 q 618 104 615 105 q 612 108 605 108 q 595 108 593 105 q 590 102 590 98 q 590 95 593 93 q 593 93 605 88 q 610 87 614 86 q 617 85 619 84 q 622 83 624 82 q 625 80 627 78 q 629 75 629 69 q 629 62 627 59 q 623 55 619 53 q 616 52 613 51 q 610 50 606 50 q 602 50 598 51 q 594 52 592 53 q 587 54 582 61 q 580 65 580 71 z m 641 52 l 641 114 l 686 114 l 686 108 l 650 108 l 650 88 l 685 88 l 685 80 l 650 80 l 650 58 l 688 58 l 688 52 z m 716 52 l 716 108 l 696 108 l 696 114 l 745 114 l 745 108 l 724 108 l 724 52 z m 75 127 l 75 189 l 100 189 l 109 189 q 111 189 117 187 q 118 186 120 184 q 121 182 122 180 q 124 178 124 173 q 124 164 118 158 q 115 153 100 153 l 85 153 l 85 127 z m 85 161 l 100 161 q 109 161 112 163 q 116 167 116 171 q 116 173 115 175 q 114 177 113 179 q 110 182 108 182 q 107 183 100 183 l 85 183 z m 134 127 l 134 189 l 179 189 l 179 183 l 143 183 l 143 163 l 177 163 l 177 156 l 143 156 l 143 135 l 181 135 l 181 127 z m 192 127 l 192 189 l 221 189 q 230 189 234 188 q 239 186 241 183 q 243 175 243 173 q 243 166 239 162 q 235 158 225 156 q 227 154 228 154 q 229 154 230 153 q 235 148 237 144 l 248 127 l 238 127 l 229 140 q 228 143 226 145 q 225 147 224 149 q 222 150 222 152 q 221 153 220 153 q 218 154 216 154 q 215 156 211 156 l 202 156 l 202 127 z m 202 162 l 218 162 q 226 162 228 163 q 231 166 233 167 q 234 169 234 173 q 234 177 231 180 q 228 183 221 183 l 202 183 z m 254 148 l 261 148 q 261 146 262 144 q 263 142 264 140 q 265 139 266 138 q 268 136 270 136 q 276 134 280 134 q 282 134 284 134 q 286 134 287 135 q 293 137 294 139 q 294 140 294 142 q 295 143 295 144 q 295 148 294 149 q 291 151 287 153 q 286 154 284 154 q 281 154 277 156 q 268 157 264 160 q 259 164 257 166 q 256 169 256 174 q 256 176 256 178 q 257 181 259 183 q 260 187 267 189 q 269 191 278 191 q 286 191 290 189 q 296 186 298 182 q 302 176 302 173 l 294 171 q 292 178 289 180 q 285 184 278 184 q 270 184 267 180 q 264 178 264 174 q 264 170 267 169 q 268 167 278 165 q 287 161 293 161 q 295 159 297 158 q 299 156 300 154 q 303 151 303 145 q 303 140 300 136 q 298 133 296 132 q 295 130 293 128 q 285 126 280 126 q 273 126 265 128 q 262 130 260 132 q 258 133 256 136 q 255 139 254 142 q 254 144 254 148 z m 312 158 q 312 172 320 182 q 329 191 342 191 q 346 191 350 190 q 353 189 358 187 q 362 185 364 182 q 366 179 368 175 q 372 168 372 158 q 372 149 368 141 q 364 134 358 130 q 350 126 342 126 q 333 126 326 131 q 317 136 316 143 q 312 148 312 158 z m 320 158 q 320 146 326 140 q 332 134 342 134 q 352 134 358 140 q 363 147 363 158 q 363 162 362 166 q 362 170 360 173 q 357 178 354 180 q 349 184 342 184 q 337 184 334 182 q 331 181 326 178 q 320 172 320 158 z m 382 127 l 382 189 l 391 189 l 424 141 l 424 189 l 432 189 l 432 127 l 424 127 l 390 176 l 390 127 z m 439 127 l 463 189 l 472 189 l 498 127 l 488 127 l 481 147 l 455 147 l 447 127 z m 456 153 l 478 153 l 472 170 q 470 174 469 178 q 468 181 467 183 q 467 180 466 177 q 465 174 464 171 z m 503 127 l 503 189 l 512 189 l 512 135 l 543 135 l 543 127 z m 615 189 l 623 189 l 623 154 q 623 143 621 139 q 619 133 614 130 q 609 126 599 126 q 589 126 585 130 q 582 131 580 134 q 578 136 576 139 q 575 141 575 154 l 575 189 l 582 189 l 582 154 q 582 144 584 141 q 586 137 589 136 q 591 135 593 134 q 595 134 598 134 q 606 134 611 137 q 615 141 615 154 z m 634 148 l 642 148 q 642 146 643 144 q 644 142 645 140 q 646 139 648 138 q 649 136 651 136 q 657 134 660 134 q 667 134 670 135 q 672 136 675 139 q 676 140 676 144 q 676 148 675 149 q 673 150 672 151 q 672 152 670 153 q 668 154 665 154 q 662 154 658 156 q 654 157 650 158 q 647 158 646 160 q 641 162 640 166 q 637 169 637 174 q 637 178 640 183 q 641 187 647 189 q 651 191 659 191 q 662 191 666 191 q 669 191 671 189 q 677 186 680 182 q 681 180 682 178 q 683 175 683 173 l 675 171 q 673 174 672 176 q 672 179 670 180 q 667 184 659 184 q 650 184 649 180 q 645 179 645 174 q 645 171 647 169 q 649 167 659 165 q 670 161 673 161 q 676 159 678 158 q 680 156 681 154 q 684 152 684 145 q 684 139 681 136 q 679 133 678 132 q 676 130 673 128 q 667 126 662 126 q 657 126 654 126 q 650 127 647 128 q 645 130 642 132 q 640 133 638 136 q 636 139 635 142 q 634 144 634 148 z m 696 127 l 696 189 l 741 189 l 741 183 l 705 183 l 705 163 l 738 163 l 738 156 l 705 156 l 705 135 l 742 135 l 742 127 z m 205 259 q 205 269 190 271 q 188 271 185 272 q 182 272 178 272 l 172 265 l 156 248 q 152 243 148 239 q 145 235 140 232 q 146 230 155 229 q 157 229 160 229 q 164 229 167 230 q 182 231 190 238 q 205 250 205 259 z m 216 289 q 216 293 211 293 q 209 293 194 288 l 183 278 q 181 276 179 272 l 196 275 q 200 275 207 280 q 216 286 216 289 z m 229 307 q 229 305 226 305 q 224 305 224 306 q 223 306 221 306 q 211 304 198 291 q 200 293 202 294 q 205 295 207 296 q 214 297 220 296 q 224 296 224 291 l 224 287 q 219 278 196 273 q 214 271 214 261 q 214 249 195 236 q 188 232 180 230 q 173 227 165 226 q 152 223 145 224 q 139 224 132 227 q 126 223 121 223 l 119 223 q 113 225 109 226 l 112 226 q 120 226 125 230 l 125 231 q 118 227 110 227 q 99 227 93 233 q 83 240 83 254 q 83 258 84 262 q 85 265 87 270 q 94 285 111 296 q 116 301 122 302 q 127 304 132 305 q 143 305 147 301 q 142 304 137 304 q 131 304 124 300 q 114 296 113 294 q 103 289 93 277 q 84 263 84 253 q 84 248 85 245 q 86 242 88 239 q 92 233 99 231 q 102 230 104 230 q 106 229 108 229 q 112 229 115 230 q 118 231 122 233 q 111 241 111 255 q 113 268 127 278 l 125 275 q 123 275 121 271 q 115 265 115 258 q 115 245 130 236 q 138 241 138 242 q 140 245 142 247 q 144 249 146 251 q 148 253 148 256 q 149 259 151 262 l 151 261 q 151 256 150 253 l 162 267 q 193 302 213 308 q 204 311 199 311 q 186 310 171 302 q 153 293 153 280 q 153 276 156 273 q 157 272 157 271 q 151 275 151 281 q 151 292 164 303 q 180 315 198 313 q 204 313 216 309 l 220 309 q 225 309 228 307 z m 231 242 q 230 238 223 231 q 216 227 211 227 q 206 227 206 233 q 206 238 212 246 l 211 246 q 210 245 207 245 q 207 245 206 246 q 209 246 216 253 l 217 253 l 220 257 q 223 260 223 262 l 226 262 q 229 262 229 261 q 229 257 223 250 l 216 243 q 210 234 210 231 q 210 228 214 228 q 219 228 226 238 q 227 239 228 240 q 229 240 231 242 z m 236 270 q 232 264 226 264 q 223 264 219 267 l 222 267 q 229 267 231 274 l 231 276 l 236 274 q 237 273 236 270 z m 271 289 q 271 284 240 247 l 239 247 q 230 236 230 230 q 230 227 233 227 q 239 227 246 237 q 247 238 248 238 q 249 239 250 241 q 250 236 242 230 q 237 226 231 226 q 225 227 225 232 q 224 237 245 263 l 257 278 l 263 284 q 266 288 268 294 q 271 292 271 289 z m 288 289 q 288 285 256 247 q 246 235 246 230 q 246 227 250 227 q 254 227 263 237 l 267 241 q 266 236 258 230 q 253 226 247 226 q 241 227 241 232 q 241 238 261 263 l 273 278 l 279 284 q 284 290 285 294 q 288 292 288 289 z m 269 222 q 253 219 244 210 q 237 201 237 199 q 237 195 241 195 q 242 194 248 196 q 250 198 252 200 q 255 203 258 206 z m 298 287 q 296 273 285 262 q 285 261 284 261 q 284 261 284 260 q 281 256 278 252 q 274 249 271 244 q 269 242 269 240 q 268 242 270 246 q 264 237 264 232 q 264 229 267 229 q 268 229 272 231 q 287 243 293 265 l 293 262 l 293 259 q 295 257 295 254 q 295 252 290 244 l 282 231 l 273 219 q 276 221 284 225 l 283 224 q 281 222 278 220 q 274 217 271 212 l 263 202 l 259 197 q 253 191 246 189 q 240 189 237 193 q 231 195 235 202 q 236 203 237 205 q 238 207 240 209 l 241 210 l 234 209 q 251 221 262 222 q 263 222 264 222 q 265 223 266 223 l 267 223 l 269 223 l 275 232 q 271 228 268 228 q 265 227 263 227 q 258 227 258 232 q 258 244 279 263 l 281 264 l 291 274 q 293 278 295 281 q 297 284 298 287 z m 412 302 q 406 304 402 304 q 392 304 384 302 q 375 299 366 294 q 362 292 360 290 q 357 287 354 285 q 366 284 386 272 q 408 294 424 300 z m 433 298 q 429 297 424 296 q 420 294 415 289 q 412 287 400 275 l 393 268 l 403 262 q 405 265 409 270 q 413 274 418 280 z m 442 315 q 442 314 441 313 q 441 306 438 299 l 439 298 l 438 298 q 433 286 425 278 l 409 259 q 411 258 412 258 q 413 258 415 257 q 415 255 414 255 q 412 255 411 256 q 410 256 408 257 q 396 244 395 233 q 393 229 393 227 q 393 223 397 223 q 405 223 414 236 l 418 242 q 428 256 431 267 l 431 270 q 431 269 432 268 l 432 267 q 430 253 422 241 l 409 215 q 409 219 412 228 q 400 219 394 219 q 385 219 387 231 q 387 237 391 244 q 395 252 401 261 l 391 266 l 382 257 q 379 253 374 247 q 368 241 360 231 q 344 215 332 215 l 329 215 q 326 215 320 218 q 320 218 322 218 q 331 216 340 225 q 332 221 321 221 q 310 221 303 226 l 304 226 q 294 233 294 247 q 294 257 298 262 q 304 278 321 289 q 327 294 332 296 q 338 297 344 298 q 354 298 358 294 l 357 294 q 355 296 348 296 q 338 296 323 287 q 312 279 304 270 q 295 256 295 245 q 295 229 310 224 q 316 222 319 222 q 340 223 365 250 l 384 270 q 369 279 350 279 l 349 279 q 347 275 347 270 q 348 270 352 264 q 345 268 345 274 q 345 277 346 279 q 336 277 333 275 q 315 268 317 254 q 317 245 323 238 l 325 236 q 313 248 313 257 q 313 270 325 279 q 335 286 350 286 q 364 302 385 305 q 390 306 401 306 q 406 306 416 304 l 428 301 l 434 301 l 435 300 q 439 307 441 317 l 442 317 z m 455 250 q 455 247 454 245 q 449 240 446 236 q 442 232 439 227 l 440 227 l 441 227 q 440 226 439 226 q 438 226 438 225 q 433 225 433 227 q 433 231 442 240 q 449 249 449 251 q 450 254 446 257 q 434 240 425 236 l 421 234 l 419 235 q 423 235 432 245 q 441 253 444 258 q 444 259 444 259 q 443 259 443 260 q 443 261 450 267 q 450 268 451 268 l 452 267 q 452 266 447 259 q 455 256 455 250 z m 484 253 q 484 259 480 257 q 476 257 474 255 q 471 253 465 245 q 459 237 459 232 q 458 230 461 230 q 467 232 471 237 q 475 245 475 248 q 475 250 474 250 q 478 250 478 245 l 477 243 q 479 245 480 248 q 482 250 484 252 z m 503 262 q 499 262 494 257 q 490 252 486 246 q 482 240 477 232 q 472 222 468 216 q 464 211 463 209 q 450 193 443 193 q 437 192 434 197 q 434 202 434 202 q 434 207 438 211 q 436 210 433 210 q 443 220 455 223 q 456 223 456 224 q 457 224 459 224 l 460 223 q 441 217 437 205 q 436 203 436 200 q 436 199 437 198 q 437 197 438 197 q 446 196 457 212 l 464 222 l 468 228 q 465 227 463 227 q 455 227 455 235 q 455 244 468 256 q 474 262 479 262 q 486 262 486 254 l 487 254 l 492 260 q 497 265 501 265 q 504 265 506 262 z m 521 255 q 521 249 510 243 q 509 242 508 242 l 507 242 q 504 242 501 247 q 503 245 506 245 q 513 249 515 256 l 515 258 l 515 259 l 515 260 q 511 260 502 251 l 502 250 q 499 246 498 244 q 498 241 498 239 q 497 240 497 245 q 495 241 494 238 q 492 234 492 231 q 492 230 493 229 q 493 227 497 227 q 507 231 514 237 q 516 239 519 241 q 517 238 515 236 q 513 233 508 230 q 500 225 494 227 q 494 226 493 227 q 487 227 487 233 q 487 243 498 253 q 504 262 514 262 q 516 262 517 261 q 521 258 521 255 z m 561 289 q 561 285 529 247 q 520 236 520 230 q 520 227 523 227 q 529 227 536 237 q 537 238 538 238 q 539 239 540 241 q 540 236 532 230 q 527 226 520 226 q 515 228 515 232 q 515 240 534 263 l 546 278 l 552 284 q 558 290 558 294 q 561 292 561 289 z m 615 258 q 598 264 597 277 q 592 274 587 272 q 582 269 579 266 q 560 248 560 233 q 560 227 563 226 l 565 226 l 567 226 q 582 226 595 236 q 599 240 604 245 q 610 250 615 258 z m 635 287 l 627 287 q 615 286 598 278 q 600 264 617 261 l 624 270 z m 653 305 q 640 305 630 303 q 619 301 611 296 q 616 301 624 304 q 631 307 640 309 q 620 310 605 297 q 602 295 598 287 q 605 289 612 290 q 618 291 626 290 q 628 290 631 290 q 634 290 639 289 q 641 292 644 296 q 648 300 653 305 z m 716 306 q 714 303 712 300 q 709 298 704 296 q 696 291 689 291 l 687 291 q 686 291 685 292 q 686 293 686 294 q 686 295 688 297 q 679 304 663 304 l 659 299 l 649 287 q 657 286 664 285 q 671 284 677 284 q 691 284 696 287 q 692 283 681 281 q 672 279 663 282 l 647 285 q 643 280 640 276 q 636 273 634 269 l 627 259 l 632 259 q 657 261 661 271 l 662 271 q 659 265 649 260 q 644 258 640 257 q 635 256 631 256 l 626 256 q 619 248 614 242 q 610 236 606 232 q 593 218 582 218 q 577 219 571 219 q 581 219 592 229 q 578 223 570 223 l 564 224 l 572 216 q 564 220 559 225 q 558 225 554 227 q 542 236 541 250 q 541 255 541 259 q 541 263 543 267 q 546 276 551 282 q 556 289 563 296 q 580 311 593 311 q 600 311 605 307 l 604 306 q 601 309 595 309 q 582 307 568 296 q 556 286 550 276 q 542 262 542 250 q 544 232 558 227 q 556 233 557 239 q 559 254 568 265 q 579 279 598 287 q 600 289 600 293 l 609 302 q 622 313 643 313 q 648 313 652 313 q 655 313 660 312 l 661 312 q 668 317 674 320 q 679 322 685 321 q 689 321 691 319 q 680 317 680 317 q 678 316 676 315 q 673 314 670 312 q 674 311 678 310 q 682 310 687 308 q 697 305 703 305 q 712 305 716 306 z m 655 236 q 652 239 652 243 q 652 245 652 246 q 653 248 653 250 q 643 237 644 231 q 644 229 646 229 q 648 229 655 236 z m 668 257 q 668 259 666 259 q 664 259 662 258 q 661 257 659 253 q 654 243 654 240 q 654 237 655 236 l 658 239 l 658 240 l 658 239 q 659 240 659 240 q 659 241 660 242 q 662 248 662 250 q 662 251 661 252 q 663 248 663 247 q 666 250 668 257 z m 672 254 q 672 249 665 239 q 656 230 652 227 l 644 227 q 638 227 638 232 q 638 240 649 253 q 656 262 665 262 q 672 262 672 254 z m 705 256 q 706 254 701 245 q 695 237 693 235 l 681 224 q 674 217 672 209 q 673 221 681 230 q 685 234 687 237 q 689 240 691 244 q 692 245 693 248 l 693 245 q 693 245 692 243 q 694 245 698 253 q 698 254 698 254 q 699 255 699 256 q 699 261 694 259 q 694 259 686 253 q 684 248 680 244 q 677 241 673 236 q 668 230 667 227 q 666 226 662 218 q 662 220 662 222 q 661 225 662 227 q 664 234 671 241 l 677 248 q 682 255 682 259 q 682 260 682 261 q 681 262 681 263 q 687 261 687 257 q 693 262 700 262 q 704 260 705 256 z m 744 270 l 729 270 q 728 268 722 262 q 717 256 709 245 q 707 245 705 240 q 701 235 701 230 q 701 227 703 227 q 708 227 717 237 l 718 238 q 719 239 719 240 q 719 240 720 241 q 720 236 713 230 q 708 226 701 226 q 696 228 695 232 q 695 234 699 242 l 711 256 l 722 270 l 705 272 q 701 273 695 273 l 686 273 q 674 273 662 268 l 661 268 q 671 278 692 278 q 693 278 700 276 q 708 275 722 273 l 725 272 q 728 277 730 280 q 733 284 735 287 q 737 286 737 282 q 737 279 735 277 l 731 271 l 739 270 l 745 270 l 746 270 l 749 270 z m 751 257 q 751 254 744 251 l 743 250 q 746 253 746 258 l 746 262 l 743 262 q 738 262 737 258 q 737 256 740 241 q 741 227 724 227 q 715 227 713 233 q 712 234 712 236 q 712 244 724 246 l 728 245 l 726 245 q 722 245 720 243 q 717 238 717 236 q 717 228 725 228 q 733 228 733 239 q 733 244 732 247 q 731 250 731 254 q 731 264 740 264 q 742 264 743 264 q 744 263 746 263 q 750 261 750 260 q 751 259 751 257 z"}}}
